G04 #@! TF.GenerationSoftware,KiCad,Pcbnew,(5.1.6)-1*
G04 #@! TF.CreationDate,2022-01-17T18:14:53-08:00*
G04 #@! TF.ProjectId,Attenuator Controller Board,41747465-6e75-4617-946f-7220436f6e74,rev?*
G04 #@! TF.SameCoordinates,Original*
G04 #@! TF.FileFunction,Soldermask,Top*
G04 #@! TF.FilePolarity,Negative*
%FSLAX46Y46*%
G04 Gerber Fmt 4.6, Leading zero omitted, Abs format (unit mm)*
G04 Created by KiCad (PCBNEW (5.1.6)-1) date 2022-01-17 18:14:53*
%MOMM*%
%LPD*%
G01*
G04 APERTURE LIST*
%ADD10C,0.100000*%
%ADD11C,0.010000*%
%ADD12R,0.900000X3.600001*%
%ADD13C,1.600000*%
%ADD14C,3.700000*%
%ADD15R,0.455600X1.573200*%
%ADD16R,1.801800X1.039800*%
%ADD17C,1.290000*%
%ADD18R,1.979600X2.360600*%
%ADD19R,2.270000X1.000000*%
%ADD20R,1.000000X1.000000*%
%ADD21R,3.605200X0.404800*%
%ADD22C,3.656000*%
%ADD23R,0.960000X5.100000*%
%ADD24R,1.450000X5.100000*%
%ADD25R,2.100000X2.100000*%
%ADD26C,1.900000*%
%ADD27C,1.700000*%
%ADD28C,9.100000*%
%ADD29R,0.750000X0.500000*%
%ADD30R,1.000000X2.270000*%
%ADD31R,3.600000X1.600000*%
G04 APERTURE END LIST*
D10*
X104516000Y-86270000D02*
G75*
G03*
X104516000Y-86270000I-646000J0D01*
G01*
D11*
G36*
X132519000Y-87045000D02*
G01*
X133641000Y-87045000D01*
X133641000Y-89052000D01*
X132519000Y-89052000D01*
X132519000Y-87045000D01*
G37*
X132519000Y-87045000D02*
X133641000Y-87045000D01*
X133641000Y-89052000D01*
X132519000Y-89052000D01*
X132519000Y-87045000D01*
G36*
X157919000Y-87045000D02*
G01*
X159041000Y-87045000D01*
X159041000Y-89052000D01*
X157919000Y-89052000D01*
X157919000Y-87045000D01*
G37*
X157919000Y-87045000D02*
X159041000Y-87045000D01*
X159041000Y-89052000D01*
X157919000Y-89052000D01*
X157919000Y-87045000D01*
G36*
X155379000Y-83489000D02*
G01*
X156501000Y-83489000D01*
X156501000Y-85496000D01*
X155379000Y-85496000D01*
X155379000Y-83489000D01*
G37*
X155379000Y-83489000D02*
X156501000Y-83489000D01*
X156501000Y-85496000D01*
X155379000Y-85496000D01*
X155379000Y-83489000D01*
G36*
X142679000Y-87045000D02*
G01*
X143801000Y-87045000D01*
X143801000Y-89052000D01*
X142679000Y-89052000D01*
X142679000Y-87045000D01*
G37*
X142679000Y-87045000D02*
X143801000Y-87045000D01*
X143801000Y-89052000D01*
X142679000Y-89052000D01*
X142679000Y-87045000D01*
G36*
X147759000Y-87045000D02*
G01*
X148881000Y-87045000D01*
X148881000Y-89052000D01*
X147759000Y-89052000D01*
X147759000Y-87045000D01*
G37*
X147759000Y-87045000D02*
X148881000Y-87045000D01*
X148881000Y-89052000D01*
X147759000Y-89052000D01*
X147759000Y-87045000D01*
G36*
X137599000Y-87045000D02*
G01*
X138721000Y-87045000D01*
X138721000Y-89052000D01*
X137599000Y-89052000D01*
X137599000Y-87045000D01*
G37*
X137599000Y-87045000D02*
X138721000Y-87045000D01*
X138721000Y-89052000D01*
X137599000Y-89052000D01*
X137599000Y-87045000D01*
G36*
X152839000Y-87045000D02*
G01*
X153961000Y-87045000D01*
X153961000Y-89052000D01*
X152839000Y-89052000D01*
X152839000Y-87045000D01*
G37*
X152839000Y-87045000D02*
X153961000Y-87045000D01*
X153961000Y-89052000D01*
X152839000Y-89052000D01*
X152839000Y-87045000D01*
G36*
X122359000Y-87045000D02*
G01*
X123481000Y-87045000D01*
X123481000Y-89052000D01*
X122359000Y-89052000D01*
X122359000Y-87045000D01*
G37*
X122359000Y-87045000D02*
X123481000Y-87045000D01*
X123481000Y-89052000D01*
X122359000Y-89052000D01*
X122359000Y-87045000D01*
G36*
X127439000Y-87045000D02*
G01*
X128561000Y-87045000D01*
X128561000Y-89052000D01*
X127439000Y-89052000D01*
X127439000Y-87045000D01*
G37*
X127439000Y-87045000D02*
X128561000Y-87045000D01*
X128561000Y-89052000D01*
X127439000Y-89052000D01*
X127439000Y-87045000D01*
D10*
X160396000Y-86270000D02*
G75*
G03*
X160396000Y-86270000I-646000J0D01*
G01*
D11*
G36*
X119819000Y-83489000D02*
G01*
X120941000Y-83489000D01*
X120941000Y-85496000D01*
X119819000Y-85496000D01*
X119819000Y-83489000D01*
G37*
X119819000Y-83489000D02*
X120941000Y-83489000D01*
X120941000Y-85496000D01*
X119819000Y-85496000D01*
X119819000Y-83489000D01*
G36*
X140139000Y-83489000D02*
G01*
X141261000Y-83489000D01*
X141261000Y-85496000D01*
X140139000Y-85496000D01*
X140139000Y-83489000D01*
G37*
X140139000Y-83489000D02*
X141261000Y-83489000D01*
X141261000Y-85496000D01*
X140139000Y-85496000D01*
X140139000Y-83489000D01*
G36*
X160459000Y-83489000D02*
G01*
X161581000Y-83489000D01*
X161581000Y-85496000D01*
X160459000Y-85496000D01*
X160459000Y-83489000D01*
G37*
X160459000Y-83489000D02*
X161581000Y-83489000D01*
X161581000Y-85496000D01*
X160459000Y-85496000D01*
X160459000Y-83489000D01*
G36*
X135059000Y-83489000D02*
G01*
X136181000Y-83489000D01*
X136181000Y-85496000D01*
X135059000Y-85496000D01*
X135059000Y-83489000D01*
G37*
X135059000Y-83489000D02*
X136181000Y-83489000D01*
X136181000Y-85496000D01*
X135059000Y-85496000D01*
X135059000Y-83489000D01*
G36*
X145219000Y-83489000D02*
G01*
X146341000Y-83489000D01*
X146341000Y-85496000D01*
X145219000Y-85496000D01*
X145219000Y-83489000D01*
G37*
X145219000Y-83489000D02*
X146341000Y-83489000D01*
X146341000Y-85496000D01*
X145219000Y-85496000D01*
X145219000Y-83489000D01*
G36*
X150299000Y-83489000D02*
G01*
X151421000Y-83489000D01*
X151421000Y-85496000D01*
X150299000Y-85496000D01*
X150299000Y-83489000D01*
G37*
X150299000Y-83489000D02*
X151421000Y-83489000D01*
X151421000Y-85496000D01*
X150299000Y-85496000D01*
X150299000Y-83489000D01*
G36*
X124899000Y-83489000D02*
G01*
X126021000Y-83489000D01*
X126021000Y-85496000D01*
X124899000Y-85496000D01*
X124899000Y-83489000D01*
G37*
X124899000Y-83489000D02*
X126021000Y-83489000D01*
X126021000Y-85496000D01*
X124899000Y-85496000D01*
X124899000Y-83489000D01*
G36*
X129979000Y-83489000D02*
G01*
X131101000Y-83489000D01*
X131101000Y-85496000D01*
X129979000Y-85496000D01*
X129979000Y-83489000D01*
G37*
X129979000Y-83489000D02*
X131101000Y-83489000D01*
X131101000Y-85496000D01*
X129979000Y-85496000D01*
X129979000Y-83489000D01*
G36*
X109659000Y-83489000D02*
G01*
X110781000Y-83489000D01*
X110781000Y-85496000D01*
X109659000Y-85496000D01*
X109659000Y-83489000D01*
G37*
X109659000Y-83489000D02*
X110781000Y-83489000D01*
X110781000Y-85496000D01*
X109659000Y-85496000D01*
X109659000Y-83489000D01*
G36*
X107119000Y-87045000D02*
G01*
X108241000Y-87045000D01*
X108241000Y-89052000D01*
X107119000Y-89052000D01*
X107119000Y-87045000D01*
G37*
X107119000Y-87045000D02*
X108241000Y-87045000D01*
X108241000Y-89052000D01*
X107119000Y-89052000D01*
X107119000Y-87045000D01*
G36*
X102039000Y-87045000D02*
G01*
X103161000Y-87045000D01*
X103161000Y-89052000D01*
X102039000Y-89052000D01*
X102039000Y-87045000D01*
G37*
X102039000Y-87045000D02*
X103161000Y-87045000D01*
X103161000Y-89052000D01*
X102039000Y-89052000D01*
X102039000Y-87045000D01*
G36*
X117279000Y-87045000D02*
G01*
X118401000Y-87045000D01*
X118401000Y-89052000D01*
X117279000Y-89052000D01*
X117279000Y-87045000D01*
G37*
X117279000Y-87045000D02*
X118401000Y-87045000D01*
X118401000Y-89052000D01*
X117279000Y-89052000D01*
X117279000Y-87045000D01*
G36*
X104579000Y-83489000D02*
G01*
X105701000Y-83489000D01*
X105701000Y-85496000D01*
X104579000Y-85496000D01*
X104579000Y-83489000D01*
G37*
X104579000Y-83489000D02*
X105701000Y-83489000D01*
X105701000Y-85496000D01*
X104579000Y-85496000D01*
X104579000Y-83489000D01*
G36*
X112199000Y-87045000D02*
G01*
X113321000Y-87045000D01*
X113321000Y-89052000D01*
X112199000Y-89052000D01*
X112199000Y-87045000D01*
G37*
X112199000Y-87045000D02*
X113321000Y-87045000D01*
X113321000Y-89052000D01*
X112199000Y-89052000D01*
X112199000Y-87045000D01*
G36*
X114739000Y-83489000D02*
G01*
X115861000Y-83489000D01*
X115861000Y-85496000D01*
X114739000Y-85496000D01*
X114739000Y-83489000D01*
G37*
X114739000Y-83489000D02*
X115861000Y-83489000D01*
X115861000Y-85496000D01*
X114739000Y-85496000D01*
X114739000Y-83489000D01*
D10*
X104516000Y-101510000D02*
G75*
G03*
X104516000Y-101510000I-646000J0D01*
G01*
X160396000Y-101510000D02*
G75*
G03*
X160396000Y-101510000I-646000J0D01*
G01*
D11*
G36*
X160459000Y-98729000D02*
G01*
X161581000Y-98729000D01*
X161581000Y-100736000D01*
X160459000Y-100736000D01*
X160459000Y-98729000D01*
G37*
X160459000Y-98729000D02*
X161581000Y-98729000D01*
X161581000Y-100736000D01*
X160459000Y-100736000D01*
X160459000Y-98729000D01*
G36*
X157919000Y-102285000D02*
G01*
X159041000Y-102285000D01*
X159041000Y-104292000D01*
X157919000Y-104292000D01*
X157919000Y-102285000D01*
G37*
X157919000Y-102285000D02*
X159041000Y-102285000D01*
X159041000Y-104292000D01*
X157919000Y-104292000D01*
X157919000Y-102285000D01*
G36*
X155379000Y-98729000D02*
G01*
X156501000Y-98729000D01*
X156501000Y-100736000D01*
X155379000Y-100736000D01*
X155379000Y-98729000D01*
G37*
X155379000Y-98729000D02*
X156501000Y-98729000D01*
X156501000Y-100736000D01*
X155379000Y-100736000D01*
X155379000Y-98729000D01*
G36*
X152839000Y-102285000D02*
G01*
X153961000Y-102285000D01*
X153961000Y-104292000D01*
X152839000Y-104292000D01*
X152839000Y-102285000D01*
G37*
X152839000Y-102285000D02*
X153961000Y-102285000D01*
X153961000Y-104292000D01*
X152839000Y-104292000D01*
X152839000Y-102285000D01*
G36*
X150299000Y-98729000D02*
G01*
X151421000Y-98729000D01*
X151421000Y-100736000D01*
X150299000Y-100736000D01*
X150299000Y-98729000D01*
G37*
X150299000Y-98729000D02*
X151421000Y-98729000D01*
X151421000Y-100736000D01*
X150299000Y-100736000D01*
X150299000Y-98729000D01*
G36*
X147759000Y-102285000D02*
G01*
X148881000Y-102285000D01*
X148881000Y-104292000D01*
X147759000Y-104292000D01*
X147759000Y-102285000D01*
G37*
X147759000Y-102285000D02*
X148881000Y-102285000D01*
X148881000Y-104292000D01*
X147759000Y-104292000D01*
X147759000Y-102285000D01*
G36*
X145219000Y-98729000D02*
G01*
X146341000Y-98729000D01*
X146341000Y-100736000D01*
X145219000Y-100736000D01*
X145219000Y-98729000D01*
G37*
X145219000Y-98729000D02*
X146341000Y-98729000D01*
X146341000Y-100736000D01*
X145219000Y-100736000D01*
X145219000Y-98729000D01*
G36*
X142679000Y-102285000D02*
G01*
X143801000Y-102285000D01*
X143801000Y-104292000D01*
X142679000Y-104292000D01*
X142679000Y-102285000D01*
G37*
X142679000Y-102285000D02*
X143801000Y-102285000D01*
X143801000Y-104292000D01*
X142679000Y-104292000D01*
X142679000Y-102285000D01*
G36*
X140139000Y-98729000D02*
G01*
X141261000Y-98729000D01*
X141261000Y-100736000D01*
X140139000Y-100736000D01*
X140139000Y-98729000D01*
G37*
X140139000Y-98729000D02*
X141261000Y-98729000D01*
X141261000Y-100736000D01*
X140139000Y-100736000D01*
X140139000Y-98729000D01*
G36*
X137599000Y-102285000D02*
G01*
X138721000Y-102285000D01*
X138721000Y-104292000D01*
X137599000Y-104292000D01*
X137599000Y-102285000D01*
G37*
X137599000Y-102285000D02*
X138721000Y-102285000D01*
X138721000Y-104292000D01*
X137599000Y-104292000D01*
X137599000Y-102285000D01*
G36*
X135059000Y-98729000D02*
G01*
X136181000Y-98729000D01*
X136181000Y-100736000D01*
X135059000Y-100736000D01*
X135059000Y-98729000D01*
G37*
X135059000Y-98729000D02*
X136181000Y-98729000D01*
X136181000Y-100736000D01*
X135059000Y-100736000D01*
X135059000Y-98729000D01*
G36*
X132519000Y-102285000D02*
G01*
X133641000Y-102285000D01*
X133641000Y-104292000D01*
X132519000Y-104292000D01*
X132519000Y-102285000D01*
G37*
X132519000Y-102285000D02*
X133641000Y-102285000D01*
X133641000Y-104292000D01*
X132519000Y-104292000D01*
X132519000Y-102285000D01*
G36*
X129979000Y-98729000D02*
G01*
X131101000Y-98729000D01*
X131101000Y-100736000D01*
X129979000Y-100736000D01*
X129979000Y-98729000D01*
G37*
X129979000Y-98729000D02*
X131101000Y-98729000D01*
X131101000Y-100736000D01*
X129979000Y-100736000D01*
X129979000Y-98729000D01*
G36*
X127439000Y-102285000D02*
G01*
X128561000Y-102285000D01*
X128561000Y-104292000D01*
X127439000Y-104292000D01*
X127439000Y-102285000D01*
G37*
X127439000Y-102285000D02*
X128561000Y-102285000D01*
X128561000Y-104292000D01*
X127439000Y-104292000D01*
X127439000Y-102285000D01*
G36*
X124899000Y-98729000D02*
G01*
X126021000Y-98729000D01*
X126021000Y-100736000D01*
X124899000Y-100736000D01*
X124899000Y-98729000D01*
G37*
X124899000Y-98729000D02*
X126021000Y-98729000D01*
X126021000Y-100736000D01*
X124899000Y-100736000D01*
X124899000Y-98729000D01*
G36*
X122359000Y-102285000D02*
G01*
X123481000Y-102285000D01*
X123481000Y-104292000D01*
X122359000Y-104292000D01*
X122359000Y-102285000D01*
G37*
X122359000Y-102285000D02*
X123481000Y-102285000D01*
X123481000Y-104292000D01*
X122359000Y-104292000D01*
X122359000Y-102285000D01*
G36*
X119819000Y-98729000D02*
G01*
X120941000Y-98729000D01*
X120941000Y-100736000D01*
X119819000Y-100736000D01*
X119819000Y-98729000D01*
G37*
X119819000Y-98729000D02*
X120941000Y-98729000D01*
X120941000Y-100736000D01*
X119819000Y-100736000D01*
X119819000Y-98729000D01*
G36*
X117279000Y-102285000D02*
G01*
X118401000Y-102285000D01*
X118401000Y-104292000D01*
X117279000Y-104292000D01*
X117279000Y-102285000D01*
G37*
X117279000Y-102285000D02*
X118401000Y-102285000D01*
X118401000Y-104292000D01*
X117279000Y-104292000D01*
X117279000Y-102285000D01*
G36*
X114739000Y-98729000D02*
G01*
X115861000Y-98729000D01*
X115861000Y-100736000D01*
X114739000Y-100736000D01*
X114739000Y-98729000D01*
G37*
X114739000Y-98729000D02*
X115861000Y-98729000D01*
X115861000Y-100736000D01*
X114739000Y-100736000D01*
X114739000Y-98729000D01*
G36*
X112199000Y-102285000D02*
G01*
X113321000Y-102285000D01*
X113321000Y-104292000D01*
X112199000Y-104292000D01*
X112199000Y-102285000D01*
G37*
X112199000Y-102285000D02*
X113321000Y-102285000D01*
X113321000Y-104292000D01*
X112199000Y-104292000D01*
X112199000Y-102285000D01*
G36*
X109659000Y-98729000D02*
G01*
X110781000Y-98729000D01*
X110781000Y-100736000D01*
X109659000Y-100736000D01*
X109659000Y-98729000D01*
G37*
X109659000Y-98729000D02*
X110781000Y-98729000D01*
X110781000Y-100736000D01*
X109659000Y-100736000D01*
X109659000Y-98729000D01*
G36*
X107119000Y-102285000D02*
G01*
X108241000Y-102285000D01*
X108241000Y-104292000D01*
X107119000Y-104292000D01*
X107119000Y-102285000D01*
G37*
X107119000Y-102285000D02*
X108241000Y-102285000D01*
X108241000Y-104292000D01*
X107119000Y-104292000D01*
X107119000Y-102285000D01*
G36*
X104579000Y-98729000D02*
G01*
X105701000Y-98729000D01*
X105701000Y-100736000D01*
X104579000Y-100736000D01*
X104579000Y-98729000D01*
G37*
X104579000Y-98729000D02*
X105701000Y-98729000D01*
X105701000Y-100736000D01*
X104579000Y-100736000D01*
X104579000Y-98729000D01*
G36*
X102039000Y-102285000D02*
G01*
X103161000Y-102285000D01*
X103161000Y-104292000D01*
X102039000Y-104292000D01*
X102039000Y-102285000D01*
G37*
X102039000Y-102285000D02*
X103161000Y-102285000D01*
X103161000Y-104292000D01*
X102039000Y-104292000D01*
X102039000Y-102285000D01*
D10*
G36*
X196794755Y-75380961D02*
G01*
X196804134Y-75383806D01*
X196812779Y-75388427D01*
X196820355Y-75394645D01*
X196826603Y-75402265D01*
X197326603Y-76152265D01*
X197331214Y-76160914D01*
X197334049Y-76170297D01*
X197335000Y-76180052D01*
X197334029Y-76189806D01*
X197331174Y-76199182D01*
X197326603Y-76207735D01*
X196826603Y-76957735D01*
X196820392Y-76965318D01*
X196812822Y-76971544D01*
X196804182Y-76976174D01*
X196794806Y-76979029D01*
X196785000Y-76980000D01*
X195785000Y-76980000D01*
X195775245Y-76979039D01*
X195765866Y-76976194D01*
X195757221Y-76971573D01*
X195749645Y-76965355D01*
X195743427Y-76957779D01*
X195738806Y-76949134D01*
X195735961Y-76939755D01*
X195735000Y-76930000D01*
X195735000Y-75430000D01*
X195735961Y-75420245D01*
X195738806Y-75410866D01*
X195743427Y-75402221D01*
X195749645Y-75394645D01*
X195757221Y-75388427D01*
X195765866Y-75383806D01*
X195775245Y-75380961D01*
X195785000Y-75380000D01*
X196785000Y-75380000D01*
X196794755Y-75380961D01*
G37*
G36*
X198244755Y-75380961D02*
G01*
X198254134Y-75383806D01*
X198262779Y-75388427D01*
X198270355Y-75394645D01*
X198276573Y-75402221D01*
X198281194Y-75410866D01*
X198284039Y-75420245D01*
X198285000Y-75430000D01*
X198285000Y-76930000D01*
X198284039Y-76939755D01*
X198281194Y-76949134D01*
X198276573Y-76957779D01*
X198270355Y-76965355D01*
X198262779Y-76971573D01*
X198254134Y-76976194D01*
X198244755Y-76979039D01*
X198235000Y-76980000D01*
X197085000Y-76980000D01*
X197075245Y-76979039D01*
X197065866Y-76976194D01*
X197057221Y-76971573D01*
X197049645Y-76965355D01*
X197043427Y-76957779D01*
X197038806Y-76949134D01*
X197035961Y-76939755D01*
X197035000Y-76930000D01*
X197035961Y-76920245D01*
X197038806Y-76910866D01*
X197043397Y-76902265D01*
X197524907Y-76180000D01*
X197043397Y-75457735D01*
X197038786Y-75449086D01*
X197035951Y-75439703D01*
X197035000Y-75429948D01*
X197035971Y-75420194D01*
X197038826Y-75410818D01*
X197043456Y-75402178D01*
X197049682Y-75394608D01*
X197057265Y-75388397D01*
X197065914Y-75383786D01*
X197075297Y-75380951D01*
X197085000Y-75380000D01*
X198235000Y-75380000D01*
X198244755Y-75380961D01*
G37*
G36*
X103215245Y-77009039D02*
G01*
X103205866Y-77006194D01*
X103197221Y-77001573D01*
X103189645Y-76995355D01*
X103183397Y-76987735D01*
X102683397Y-76237735D01*
X102678786Y-76229086D01*
X102675951Y-76219703D01*
X102675000Y-76209948D01*
X102675971Y-76200194D01*
X102678826Y-76190818D01*
X102683397Y-76182265D01*
X103183397Y-75432265D01*
X103189608Y-75424682D01*
X103197178Y-75418456D01*
X103205818Y-75413826D01*
X103215194Y-75410971D01*
X103225000Y-75410000D01*
X104225000Y-75410000D01*
X104234755Y-75410961D01*
X104244134Y-75413806D01*
X104252779Y-75418427D01*
X104260355Y-75424645D01*
X104266573Y-75432221D01*
X104271194Y-75440866D01*
X104274039Y-75450245D01*
X104275000Y-75460000D01*
X104275000Y-76960000D01*
X104274039Y-76969755D01*
X104271194Y-76979134D01*
X104266573Y-76987779D01*
X104260355Y-76995355D01*
X104252779Y-77001573D01*
X104244134Y-77006194D01*
X104234755Y-77009039D01*
X104225000Y-77010000D01*
X103225000Y-77010000D01*
X103215245Y-77009039D01*
G37*
G36*
X101765245Y-77009039D02*
G01*
X101755866Y-77006194D01*
X101747221Y-77001573D01*
X101739645Y-76995355D01*
X101733427Y-76987779D01*
X101728806Y-76979134D01*
X101725961Y-76969755D01*
X101725000Y-76960000D01*
X101725000Y-75460000D01*
X101725961Y-75450245D01*
X101728806Y-75440866D01*
X101733427Y-75432221D01*
X101739645Y-75424645D01*
X101747221Y-75418427D01*
X101755866Y-75413806D01*
X101765245Y-75410961D01*
X101775000Y-75410000D01*
X102925000Y-75410000D01*
X102934755Y-75410961D01*
X102944134Y-75413806D01*
X102952779Y-75418427D01*
X102960355Y-75424645D01*
X102966573Y-75432221D01*
X102971194Y-75440866D01*
X102974039Y-75450245D01*
X102975000Y-75460000D01*
X102974039Y-75469755D01*
X102971194Y-75479134D01*
X102966603Y-75487735D01*
X102485093Y-76210000D01*
X102966603Y-76932265D01*
X102971214Y-76940914D01*
X102974049Y-76950297D01*
X102975000Y-76960052D01*
X102974029Y-76969806D01*
X102971174Y-76979182D01*
X102966544Y-76987822D01*
X102960318Y-76995392D01*
X102952735Y-77001603D01*
X102944086Y-77006214D01*
X102934703Y-77009049D01*
X102925000Y-77010000D01*
X101775000Y-77010000D01*
X101765245Y-77009039D01*
G37*
G36*
X196784755Y-126200961D02*
G01*
X196794134Y-126203806D01*
X196802779Y-126208427D01*
X196810355Y-126214645D01*
X196816603Y-126222265D01*
X197316603Y-126972265D01*
X197321214Y-126980914D01*
X197324049Y-126990297D01*
X197325000Y-127000052D01*
X197324029Y-127009806D01*
X197321174Y-127019182D01*
X197316603Y-127027735D01*
X196816603Y-127777735D01*
X196810392Y-127785318D01*
X196802822Y-127791544D01*
X196794182Y-127796174D01*
X196784806Y-127799029D01*
X196775000Y-127800000D01*
X195775000Y-127800000D01*
X195765245Y-127799039D01*
X195755866Y-127796194D01*
X195747221Y-127791573D01*
X195739645Y-127785355D01*
X195733427Y-127777779D01*
X195728806Y-127769134D01*
X195725961Y-127759755D01*
X195725000Y-127750000D01*
X195725000Y-126250000D01*
X195725961Y-126240245D01*
X195728806Y-126230866D01*
X195733427Y-126222221D01*
X195739645Y-126214645D01*
X195747221Y-126208427D01*
X195755866Y-126203806D01*
X195765245Y-126200961D01*
X195775000Y-126200000D01*
X196775000Y-126200000D01*
X196784755Y-126200961D01*
G37*
G36*
X198234755Y-126200961D02*
G01*
X198244134Y-126203806D01*
X198252779Y-126208427D01*
X198260355Y-126214645D01*
X198266573Y-126222221D01*
X198271194Y-126230866D01*
X198274039Y-126240245D01*
X198275000Y-126250000D01*
X198275000Y-127750000D01*
X198274039Y-127759755D01*
X198271194Y-127769134D01*
X198266573Y-127777779D01*
X198260355Y-127785355D01*
X198252779Y-127791573D01*
X198244134Y-127796194D01*
X198234755Y-127799039D01*
X198225000Y-127800000D01*
X197075000Y-127800000D01*
X197065245Y-127799039D01*
X197055866Y-127796194D01*
X197047221Y-127791573D01*
X197039645Y-127785355D01*
X197033427Y-127777779D01*
X197028806Y-127769134D01*
X197025961Y-127759755D01*
X197025000Y-127750000D01*
X197025961Y-127740245D01*
X197028806Y-127730866D01*
X197033397Y-127722265D01*
X197514907Y-127000000D01*
X197033397Y-126277735D01*
X197028786Y-126269086D01*
X197025951Y-126259703D01*
X197025000Y-126249948D01*
X197025971Y-126240194D01*
X197028826Y-126230818D01*
X197033456Y-126222178D01*
X197039682Y-126214608D01*
X197047265Y-126208397D01*
X197055914Y-126203786D01*
X197065297Y-126200951D01*
X197075000Y-126200000D01*
X198225000Y-126200000D01*
X198234755Y-126200961D01*
G37*
G36*
X103215245Y-127799039D02*
G01*
X103205866Y-127796194D01*
X103197221Y-127791573D01*
X103189645Y-127785355D01*
X103183397Y-127777735D01*
X102683397Y-127027735D01*
X102678786Y-127019086D01*
X102675951Y-127009703D01*
X102675000Y-126999948D01*
X102675971Y-126990194D01*
X102678826Y-126980818D01*
X102683397Y-126972265D01*
X103183397Y-126222265D01*
X103189608Y-126214682D01*
X103197178Y-126208456D01*
X103205818Y-126203826D01*
X103215194Y-126200971D01*
X103225000Y-126200000D01*
X104225000Y-126200000D01*
X104234755Y-126200961D01*
X104244134Y-126203806D01*
X104252779Y-126208427D01*
X104260355Y-126214645D01*
X104266573Y-126222221D01*
X104271194Y-126230866D01*
X104274039Y-126240245D01*
X104275000Y-126250000D01*
X104275000Y-127750000D01*
X104274039Y-127759755D01*
X104271194Y-127769134D01*
X104266573Y-127777779D01*
X104260355Y-127785355D01*
X104252779Y-127791573D01*
X104244134Y-127796194D01*
X104234755Y-127799039D01*
X104225000Y-127800000D01*
X103225000Y-127800000D01*
X103215245Y-127799039D01*
G37*
G36*
X101765245Y-127799039D02*
G01*
X101755866Y-127796194D01*
X101747221Y-127791573D01*
X101739645Y-127785355D01*
X101733427Y-127777779D01*
X101728806Y-127769134D01*
X101725961Y-127759755D01*
X101725000Y-127750000D01*
X101725000Y-126250000D01*
X101725961Y-126240245D01*
X101728806Y-126230866D01*
X101733427Y-126222221D01*
X101739645Y-126214645D01*
X101747221Y-126208427D01*
X101755866Y-126203806D01*
X101765245Y-126200961D01*
X101775000Y-126200000D01*
X102925000Y-126200000D01*
X102934755Y-126200961D01*
X102944134Y-126203806D01*
X102952779Y-126208427D01*
X102960355Y-126214645D01*
X102966573Y-126222221D01*
X102971194Y-126230866D01*
X102974039Y-126240245D01*
X102975000Y-126250000D01*
X102974039Y-126259755D01*
X102971194Y-126269134D01*
X102966603Y-126277735D01*
X102485093Y-127000000D01*
X102966603Y-127722265D01*
X102971214Y-127730914D01*
X102974049Y-127740297D01*
X102975000Y-127750052D01*
X102974029Y-127759806D01*
X102971174Y-127769182D01*
X102966544Y-127777822D01*
X102960318Y-127785392D01*
X102952735Y-127791603D01*
X102944086Y-127796214D01*
X102934703Y-127799049D01*
X102925000Y-127800000D01*
X101775000Y-127800000D01*
X101765245Y-127799039D01*
G37*
D12*
X155528600Y-137880000D03*
X154143599Y-137880000D03*
X152758600Y-137880000D03*
X151373599Y-137880000D03*
X149988601Y-137880000D03*
X148603600Y-137880000D03*
X147218599Y-137880000D03*
X145833600Y-137880000D03*
X144448599Y-137880000D03*
D13*
X157941400Y-137231000D03*
X142041400Y-137231000D03*
D14*
X162491400Y-137231000D03*
X137491400Y-137231000D03*
G36*
G01*
X195121250Y-108807500D02*
X194558750Y-108807500D01*
G75*
G02*
X194315000Y-108563750I0J243750D01*
G01*
X194315000Y-108076250D01*
G75*
G02*
X194558750Y-107832500I243750J0D01*
G01*
X195121250Y-107832500D01*
G75*
G02*
X195365000Y-108076250I0J-243750D01*
G01*
X195365000Y-108563750D01*
G75*
G02*
X195121250Y-108807500I-243750J0D01*
G01*
G37*
G36*
G01*
X195121250Y-110382500D02*
X194558750Y-110382500D01*
G75*
G02*
X194315000Y-110138750I0J243750D01*
G01*
X194315000Y-109651250D01*
G75*
G02*
X194558750Y-109407500I243750J0D01*
G01*
X195121250Y-109407500D01*
G75*
G02*
X195365000Y-109651250I0J-243750D01*
G01*
X195365000Y-110138750D01*
G75*
G02*
X195121250Y-110382500I-243750J0D01*
G01*
G37*
G36*
G01*
X177841250Y-101227500D02*
X177278750Y-101227500D01*
G75*
G02*
X177035000Y-100983750I0J243750D01*
G01*
X177035000Y-100496250D01*
G75*
G02*
X177278750Y-100252500I243750J0D01*
G01*
X177841250Y-100252500D01*
G75*
G02*
X178085000Y-100496250I0J-243750D01*
G01*
X178085000Y-100983750D01*
G75*
G02*
X177841250Y-101227500I-243750J0D01*
G01*
G37*
G36*
G01*
X177841250Y-102802500D02*
X177278750Y-102802500D01*
G75*
G02*
X177035000Y-102558750I0J243750D01*
G01*
X177035000Y-102071250D01*
G75*
G02*
X177278750Y-101827500I243750J0D01*
G01*
X177841250Y-101827500D01*
G75*
G02*
X178085000Y-102071250I0J-243750D01*
G01*
X178085000Y-102558750D01*
G75*
G02*
X177841250Y-102802500I-243750J0D01*
G01*
G37*
D15*
X139125000Y-117890600D03*
X138474999Y-117890600D03*
X137825000Y-117890600D03*
X137174999Y-117890600D03*
X136525001Y-117890600D03*
X135874999Y-117890600D03*
X135225001Y-117890600D03*
X134575002Y-117890600D03*
X133925001Y-117890600D03*
X133275002Y-117890600D03*
X132625001Y-117890600D03*
X131975002Y-117890600D03*
X131325001Y-117890600D03*
X130675002Y-117890600D03*
X130675000Y-123529400D03*
X131325001Y-123529400D03*
X131975000Y-123529400D03*
X132625001Y-123529400D03*
X133274999Y-123529400D03*
X133925001Y-123529400D03*
X134574999Y-123529400D03*
X135225001Y-123529400D03*
X135874999Y-123529400D03*
X136525001Y-123529400D03*
X137174999Y-123529400D03*
X137825000Y-123529400D03*
X138474999Y-123529400D03*
X139125000Y-123529400D03*
D16*
X179460400Y-102225001D03*
X179460400Y-103755000D03*
X179460400Y-105285000D03*
X179460400Y-106814999D03*
X185759600Y-106814999D03*
X185759600Y-105285000D03*
X185759600Y-103755000D03*
X185759600Y-102225001D03*
D17*
X103870000Y-101510000D03*
X159750000Y-101510000D03*
X103870000Y-86270000D03*
X159750000Y-86270000D03*
D18*
X140339600Y-107140000D03*
X135920000Y-107140000D03*
D19*
X192670000Y-106790000D03*
X192670000Y-108010000D03*
X175450000Y-100740000D03*
X175450000Y-101960000D03*
D20*
X149010000Y-77710000D03*
X150350000Y-77710000D03*
X146350000Y-77710000D03*
X147690000Y-77710000D03*
X149010000Y-80710000D03*
X147690000Y-80710000D03*
X150350000Y-80710000D03*
X146350000Y-80710000D03*
D12*
X189660001Y-137880000D03*
X188275000Y-137880000D03*
X186890001Y-137880000D03*
X185505000Y-137880000D03*
X184120002Y-137880000D03*
X182735001Y-137880000D03*
X181350000Y-137880000D03*
X179965001Y-137880000D03*
X178580000Y-137880000D03*
D13*
X192072801Y-137231000D03*
X176172801Y-137231000D03*
D14*
X196622801Y-137231000D03*
X171622801Y-137231000D03*
D12*
X121397200Y-137880000D03*
X120012199Y-137880000D03*
X118627200Y-137880000D03*
X117242199Y-137880000D03*
X115857201Y-137880000D03*
X114472200Y-137880000D03*
X113087199Y-137880000D03*
X111702200Y-137880000D03*
X110317199Y-137880000D03*
D13*
X123810000Y-137231000D03*
X107910000Y-137231000D03*
D14*
X128360000Y-137231000D03*
X103360000Y-137231000D03*
D21*
X197760000Y-101742700D03*
X197760000Y-104021080D03*
X197760000Y-106299460D03*
X197760000Y-108577840D03*
X197760000Y-110856220D03*
X197760000Y-100223780D03*
X197760000Y-102502160D03*
X197760000Y-104780540D03*
X197760000Y-107058920D03*
X197760000Y-109337300D03*
X197760000Y-100983240D03*
X197760000Y-103261620D03*
X197760000Y-105540000D03*
X197760000Y-107818380D03*
X197760000Y-110096760D03*
D13*
X197201200Y-97805700D03*
X197201200Y-113274300D03*
D22*
X197201200Y-93043200D03*
X197201200Y-118036800D03*
D23*
X134960000Y-72560000D03*
D24*
X130035000Y-72560000D03*
X139885000Y-72560000D03*
D23*
X163830000Y-72560000D03*
D24*
X158905000Y-72560000D03*
X168755000Y-72560000D03*
D25*
X105120000Y-118090000D03*
X111320000Y-118090000D03*
X111320000Y-107090000D03*
X105120000Y-107090000D03*
D26*
X109620000Y-112590000D03*
D27*
X105120000Y-112590000D03*
D28*
X187960000Y-76200000D03*
X111760000Y-76200000D03*
X187960000Y-127000000D03*
X111760000Y-127000000D03*
D29*
X145760000Y-90410000D03*
X145760000Y-91710000D03*
X143860000Y-91060000D03*
X145760000Y-91060000D03*
X143860000Y-91710000D03*
X143860000Y-90410000D03*
G36*
G01*
X135372500Y-124978750D02*
X135372500Y-125541250D01*
G75*
G02*
X135128750Y-125785000I-243750J0D01*
G01*
X134641250Y-125785000D01*
G75*
G02*
X134397500Y-125541250I0J243750D01*
G01*
X134397500Y-124978750D01*
G75*
G02*
X134641250Y-124735000I243750J0D01*
G01*
X135128750Y-124735000D01*
G75*
G02*
X135372500Y-124978750I0J-243750D01*
G01*
G37*
G36*
G01*
X136947500Y-124978750D02*
X136947500Y-125541250D01*
G75*
G02*
X136703750Y-125785000I-243750J0D01*
G01*
X136216250Y-125785000D01*
G75*
G02*
X135972500Y-125541250I0J243750D01*
G01*
X135972500Y-124978750D01*
G75*
G02*
X136216250Y-124735000I243750J0D01*
G01*
X136703750Y-124735000D01*
G75*
G02*
X136947500Y-124978750I0J-243750D01*
G01*
G37*
G36*
G01*
X138372500Y-124988750D02*
X138372500Y-125551250D01*
G75*
G02*
X138128750Y-125795000I-243750J0D01*
G01*
X137641250Y-125795000D01*
G75*
G02*
X137397500Y-125551250I0J243750D01*
G01*
X137397500Y-124988750D01*
G75*
G02*
X137641250Y-124745000I243750J0D01*
G01*
X138128750Y-124745000D01*
G75*
G02*
X138372500Y-124988750I0J-243750D01*
G01*
G37*
G36*
G01*
X139947500Y-124988750D02*
X139947500Y-125551250D01*
G75*
G02*
X139703750Y-125795000I-243750J0D01*
G01*
X139216250Y-125795000D01*
G75*
G02*
X138972500Y-125551250I0J243750D01*
G01*
X138972500Y-124988750D01*
G75*
G02*
X139216250Y-124745000I243750J0D01*
G01*
X139703750Y-124745000D01*
G75*
G02*
X139947500Y-124988750I0J-243750D01*
G01*
G37*
G36*
G01*
X140558750Y-122997500D02*
X141121250Y-122997500D01*
G75*
G02*
X141365000Y-123241250I0J-243750D01*
G01*
X141365000Y-123728750D01*
G75*
G02*
X141121250Y-123972500I-243750J0D01*
G01*
X140558750Y-123972500D01*
G75*
G02*
X140315000Y-123728750I0J243750D01*
G01*
X140315000Y-123241250D01*
G75*
G02*
X140558750Y-122997500I243750J0D01*
G01*
G37*
G36*
G01*
X140558750Y-121422500D02*
X141121250Y-121422500D01*
G75*
G02*
X141365000Y-121666250I0J-243750D01*
G01*
X141365000Y-122153750D01*
G75*
G02*
X141121250Y-122397500I-243750J0D01*
G01*
X140558750Y-122397500D01*
G75*
G02*
X140315000Y-122153750I0J243750D01*
G01*
X140315000Y-121666250D01*
G75*
G02*
X140558750Y-121422500I243750J0D01*
G01*
G37*
G36*
G01*
X141121250Y-119397500D02*
X140558750Y-119397500D01*
G75*
G02*
X140315000Y-119153750I0J243750D01*
G01*
X140315000Y-118666250D01*
G75*
G02*
X140558750Y-118422500I243750J0D01*
G01*
X141121250Y-118422500D01*
G75*
G02*
X141365000Y-118666250I0J-243750D01*
G01*
X141365000Y-119153750D01*
G75*
G02*
X141121250Y-119397500I-243750J0D01*
G01*
G37*
G36*
G01*
X141121250Y-120972500D02*
X140558750Y-120972500D01*
G75*
G02*
X140315000Y-120728750I0J243750D01*
G01*
X140315000Y-120241250D01*
G75*
G02*
X140558750Y-119997500I243750J0D01*
G01*
X141121250Y-119997500D01*
G75*
G02*
X141365000Y-120241250I0J-243750D01*
G01*
X141365000Y-120728750D01*
G75*
G02*
X141121250Y-120972500I-243750J0D01*
G01*
G37*
G36*
G01*
X139637500Y-115878750D02*
X139637500Y-116441250D01*
G75*
G02*
X139393750Y-116685000I-243750J0D01*
G01*
X138906250Y-116685000D01*
G75*
G02*
X138662500Y-116441250I0J243750D01*
G01*
X138662500Y-115878750D01*
G75*
G02*
X138906250Y-115635000I243750J0D01*
G01*
X139393750Y-115635000D01*
G75*
G02*
X139637500Y-115878750I0J-243750D01*
G01*
G37*
G36*
G01*
X141212500Y-115878750D02*
X141212500Y-116441250D01*
G75*
G02*
X140968750Y-116685000I-243750J0D01*
G01*
X140481250Y-116685000D01*
G75*
G02*
X140237500Y-116441250I0J243750D01*
G01*
X140237500Y-115878750D01*
G75*
G02*
X140481250Y-115635000I243750J0D01*
G01*
X140968750Y-115635000D01*
G75*
G02*
X141212500Y-115878750I0J-243750D01*
G01*
G37*
G36*
G01*
X136662500Y-115878750D02*
X136662500Y-116441250D01*
G75*
G02*
X136418750Y-116685000I-243750J0D01*
G01*
X135931250Y-116685000D01*
G75*
G02*
X135687500Y-116441250I0J243750D01*
G01*
X135687500Y-115878750D01*
G75*
G02*
X135931250Y-115635000I243750J0D01*
G01*
X136418750Y-115635000D01*
G75*
G02*
X136662500Y-115878750I0J-243750D01*
G01*
G37*
G36*
G01*
X138237500Y-115878750D02*
X138237500Y-116441250D01*
G75*
G02*
X137993750Y-116685000I-243750J0D01*
G01*
X137506250Y-116685000D01*
G75*
G02*
X137262500Y-116441250I0J243750D01*
G01*
X137262500Y-115878750D01*
G75*
G02*
X137506250Y-115635000I243750J0D01*
G01*
X137993750Y-115635000D01*
G75*
G02*
X138237500Y-115878750I0J-243750D01*
G01*
G37*
D30*
X138160000Y-114060000D03*
X136940000Y-114060000D03*
D31*
X174560000Y-86700000D03*
X174560000Y-95700000D03*
M02*
