G04 #@! TF.GenerationSoftware,KiCad,Pcbnew,(5.1.6)-1*
G04 #@! TF.CreationDate,2022-01-17T18:14:53-08:00*
G04 #@! TF.ProjectId,Attenuator Controller Board,41747465-6e75-4617-946f-7220436f6e74,rev?*
G04 #@! TF.SameCoordinates,Original*
G04 #@! TF.FileFunction,Legend,Top*
G04 #@! TF.FilePolarity,Positive*
%FSLAX46Y46*%
G04 Gerber Fmt 4.6, Leading zero omitted, Abs format (unit mm)*
G04 Created by KiCad (PCBNEW (5.1.6)-1) date 2022-01-17 18:14:53*
%MOMM*%
%LPD*%
G01*
G04 APERTURE LIST*
%ADD10C,0.300000*%
%ADD11C,0.150000*%
%ADD12C,0.120000*%
%ADD13C,0.200000*%
%ADD14C,0.127000*%
%ADD15C,0.010000*%
%ADD16C,0.100000*%
G04 APERTURE END LIST*
D10*
X124045238Y-92774761D02*
X125188095Y-92774761D01*
X124616666Y-94774761D02*
X124616666Y-92774761D01*
X126616666Y-94679523D02*
X126426190Y-94774761D01*
X126045238Y-94774761D01*
X125854761Y-94679523D01*
X125759523Y-94489047D01*
X125759523Y-93727142D01*
X125854761Y-93536666D01*
X126045238Y-93441428D01*
X126426190Y-93441428D01*
X126616666Y-93536666D01*
X126711904Y-93727142D01*
X126711904Y-93917619D01*
X125759523Y-94108095D01*
X128330952Y-94679523D02*
X128140476Y-94774761D01*
X127759523Y-94774761D01*
X127569047Y-94679523D01*
X127473809Y-94489047D01*
X127473809Y-93727142D01*
X127569047Y-93536666D01*
X127759523Y-93441428D01*
X128140476Y-93441428D01*
X128330952Y-93536666D01*
X128426190Y-93727142D01*
X128426190Y-93917619D01*
X127473809Y-94108095D01*
X129283333Y-93441428D02*
X129283333Y-94774761D01*
X129283333Y-93631904D02*
X129378571Y-93536666D01*
X129569047Y-93441428D01*
X129854761Y-93441428D01*
X130045238Y-93536666D01*
X130140476Y-93727142D01*
X130140476Y-94774761D01*
X130997619Y-94679523D02*
X131188095Y-94774761D01*
X131569047Y-94774761D01*
X131759523Y-94679523D01*
X131854761Y-94489047D01*
X131854761Y-94393809D01*
X131759523Y-94203333D01*
X131569047Y-94108095D01*
X131283333Y-94108095D01*
X131092857Y-94012857D01*
X130997619Y-93822380D01*
X130997619Y-93727142D01*
X131092857Y-93536666D01*
X131283333Y-93441428D01*
X131569047Y-93441428D01*
X131759523Y-93536666D01*
X132521428Y-93441428D02*
X132997619Y-94774761D01*
X133473809Y-93441428D02*
X132997619Y-94774761D01*
X132807142Y-95250952D01*
X132711904Y-95346190D01*
X132521428Y-95441428D01*
X135569047Y-92774761D02*
X136807142Y-92774761D01*
X136140476Y-93536666D01*
X136426190Y-93536666D01*
X136616666Y-93631904D01*
X136711904Y-93727142D01*
X136807142Y-93917619D01*
X136807142Y-94393809D01*
X136711904Y-94584285D01*
X136616666Y-94679523D01*
X136426190Y-94774761D01*
X135854761Y-94774761D01*
X135664285Y-94679523D01*
X135569047Y-94584285D01*
X137664285Y-94584285D02*
X137759523Y-94679523D01*
X137664285Y-94774761D01*
X137569047Y-94679523D01*
X137664285Y-94584285D01*
X137664285Y-94774761D01*
X139569047Y-92774761D02*
X138616666Y-92774761D01*
X138521428Y-93727142D01*
X138616666Y-93631904D01*
X138807142Y-93536666D01*
X139283333Y-93536666D01*
X139473809Y-93631904D01*
X139569047Y-93727142D01*
X139664285Y-93917619D01*
X139664285Y-94393809D01*
X139569047Y-94584285D01*
X139473809Y-94679523D01*
X139283333Y-94774761D01*
X138807142Y-94774761D01*
X138616666Y-94679523D01*
X138521428Y-94584285D01*
X146438571Y-117473333D02*
X147390952Y-117473333D01*
X146248095Y-118044761D02*
X146914761Y-116044761D01*
X147581428Y-118044761D01*
X147962380Y-116711428D02*
X148724285Y-116711428D01*
X148248095Y-116044761D02*
X148248095Y-117759047D01*
X148343333Y-117949523D01*
X148533809Y-118044761D01*
X148724285Y-118044761D01*
X149105238Y-116711428D02*
X149867142Y-116711428D01*
X149390952Y-116044761D02*
X149390952Y-117759047D01*
X149486190Y-117949523D01*
X149676666Y-118044761D01*
X149867142Y-118044761D01*
X151295714Y-117949523D02*
X151105238Y-118044761D01*
X150724285Y-118044761D01*
X150533809Y-117949523D01*
X150438571Y-117759047D01*
X150438571Y-116997142D01*
X150533809Y-116806666D01*
X150724285Y-116711428D01*
X151105238Y-116711428D01*
X151295714Y-116806666D01*
X151390952Y-116997142D01*
X151390952Y-117187619D01*
X150438571Y-117378095D01*
X152248095Y-116711428D02*
X152248095Y-118044761D01*
X152248095Y-116901904D02*
X152343333Y-116806666D01*
X152533809Y-116711428D01*
X152819523Y-116711428D01*
X153010000Y-116806666D01*
X153105238Y-116997142D01*
X153105238Y-118044761D01*
X154914761Y-116711428D02*
X154914761Y-118044761D01*
X154057619Y-116711428D02*
X154057619Y-117759047D01*
X154152857Y-117949523D01*
X154343333Y-118044761D01*
X154629047Y-118044761D01*
X154819523Y-117949523D01*
X154914761Y-117854285D01*
X156724285Y-118044761D02*
X156724285Y-116997142D01*
X156629047Y-116806666D01*
X156438571Y-116711428D01*
X156057619Y-116711428D01*
X155867142Y-116806666D01*
X156724285Y-117949523D02*
X156533809Y-118044761D01*
X156057619Y-118044761D01*
X155867142Y-117949523D01*
X155771904Y-117759047D01*
X155771904Y-117568571D01*
X155867142Y-117378095D01*
X156057619Y-117282857D01*
X156533809Y-117282857D01*
X156724285Y-117187619D01*
X157390952Y-116711428D02*
X158152857Y-116711428D01*
X157676666Y-116044761D02*
X157676666Y-117759047D01*
X157771904Y-117949523D01*
X157962380Y-118044761D01*
X158152857Y-118044761D01*
X159105238Y-118044761D02*
X158914761Y-117949523D01*
X158819523Y-117854285D01*
X158724285Y-117663809D01*
X158724285Y-117092380D01*
X158819523Y-116901904D01*
X158914761Y-116806666D01*
X159105238Y-116711428D01*
X159390952Y-116711428D01*
X159581428Y-116806666D01*
X159676666Y-116901904D01*
X159771904Y-117092380D01*
X159771904Y-117663809D01*
X159676666Y-117854285D01*
X159581428Y-117949523D01*
X159390952Y-118044761D01*
X159105238Y-118044761D01*
X160629047Y-118044761D02*
X160629047Y-116711428D01*
X160629047Y-117092380D02*
X160724285Y-116901904D01*
X160819523Y-116806666D01*
X161010000Y-116711428D01*
X161200476Y-116711428D01*
X164533809Y-117854285D02*
X164438571Y-117949523D01*
X164152857Y-118044761D01*
X163962380Y-118044761D01*
X163676666Y-117949523D01*
X163486190Y-117759047D01*
X163390952Y-117568571D01*
X163295714Y-117187619D01*
X163295714Y-116901904D01*
X163390952Y-116520952D01*
X163486190Y-116330476D01*
X163676666Y-116140000D01*
X163962380Y-116044761D01*
X164152857Y-116044761D01*
X164438571Y-116140000D01*
X164533809Y-116235238D01*
X165676666Y-118044761D02*
X165486190Y-117949523D01*
X165390952Y-117854285D01*
X165295714Y-117663809D01*
X165295714Y-117092380D01*
X165390952Y-116901904D01*
X165486190Y-116806666D01*
X165676666Y-116711428D01*
X165962380Y-116711428D01*
X166152857Y-116806666D01*
X166248095Y-116901904D01*
X166343333Y-117092380D01*
X166343333Y-117663809D01*
X166248095Y-117854285D01*
X166152857Y-117949523D01*
X165962380Y-118044761D01*
X165676666Y-118044761D01*
X167200476Y-116711428D02*
X167200476Y-118044761D01*
X167200476Y-116901904D02*
X167295714Y-116806666D01*
X167486190Y-116711428D01*
X167771904Y-116711428D01*
X167962380Y-116806666D01*
X168057619Y-116997142D01*
X168057619Y-118044761D01*
X168724285Y-116711428D02*
X169486190Y-116711428D01*
X169010000Y-116044761D02*
X169010000Y-117759047D01*
X169105238Y-117949523D01*
X169295714Y-118044761D01*
X169486190Y-118044761D01*
X170152857Y-118044761D02*
X170152857Y-116711428D01*
X170152857Y-117092380D02*
X170248095Y-116901904D01*
X170343333Y-116806666D01*
X170533809Y-116711428D01*
X170724285Y-116711428D01*
X171676666Y-118044761D02*
X171486190Y-117949523D01*
X171390952Y-117854285D01*
X171295714Y-117663809D01*
X171295714Y-117092380D01*
X171390952Y-116901904D01*
X171486190Y-116806666D01*
X171676666Y-116711428D01*
X171962380Y-116711428D01*
X172152857Y-116806666D01*
X172248095Y-116901904D01*
X172343333Y-117092380D01*
X172343333Y-117663809D01*
X172248095Y-117854285D01*
X172152857Y-117949523D01*
X171962380Y-118044761D01*
X171676666Y-118044761D01*
X173486190Y-118044761D02*
X173295714Y-117949523D01*
X173200476Y-117759047D01*
X173200476Y-116044761D01*
X174533809Y-118044761D02*
X174343333Y-117949523D01*
X174248095Y-117759047D01*
X174248095Y-116044761D01*
X176057619Y-117949523D02*
X175867142Y-118044761D01*
X175486190Y-118044761D01*
X175295714Y-117949523D01*
X175200476Y-117759047D01*
X175200476Y-116997142D01*
X175295714Y-116806666D01*
X175486190Y-116711428D01*
X175867142Y-116711428D01*
X176057619Y-116806666D01*
X176152857Y-116997142D01*
X176152857Y-117187619D01*
X175200476Y-117378095D01*
X177010000Y-118044761D02*
X177010000Y-116711428D01*
X177010000Y-117092380D02*
X177105238Y-116901904D01*
X177200476Y-116806666D01*
X177390952Y-116711428D01*
X177581428Y-116711428D01*
X180438571Y-116997142D02*
X180724285Y-117092380D01*
X180819523Y-117187619D01*
X180914761Y-117378095D01*
X180914761Y-117663809D01*
X180819523Y-117854285D01*
X180724285Y-117949523D01*
X180533809Y-118044761D01*
X179771904Y-118044761D01*
X179771904Y-116044761D01*
X180438571Y-116044761D01*
X180629047Y-116140000D01*
X180724285Y-116235238D01*
X180819523Y-116425714D01*
X180819523Y-116616190D01*
X180724285Y-116806666D01*
X180629047Y-116901904D01*
X180438571Y-116997142D01*
X179771904Y-116997142D01*
X182057619Y-118044761D02*
X181867142Y-117949523D01*
X181771904Y-117854285D01*
X181676666Y-117663809D01*
X181676666Y-117092380D01*
X181771904Y-116901904D01*
X181867142Y-116806666D01*
X182057619Y-116711428D01*
X182343333Y-116711428D01*
X182533809Y-116806666D01*
X182629047Y-116901904D01*
X182724285Y-117092380D01*
X182724285Y-117663809D01*
X182629047Y-117854285D01*
X182533809Y-117949523D01*
X182343333Y-118044761D01*
X182057619Y-118044761D01*
X184438571Y-118044761D02*
X184438571Y-116997142D01*
X184343333Y-116806666D01*
X184152857Y-116711428D01*
X183771904Y-116711428D01*
X183581428Y-116806666D01*
X184438571Y-117949523D02*
X184248095Y-118044761D01*
X183771904Y-118044761D01*
X183581428Y-117949523D01*
X183486190Y-117759047D01*
X183486190Y-117568571D01*
X183581428Y-117378095D01*
X183771904Y-117282857D01*
X184248095Y-117282857D01*
X184438571Y-117187619D01*
X185390952Y-118044761D02*
X185390952Y-116711428D01*
X185390952Y-117092380D02*
X185486190Y-116901904D01*
X185581428Y-116806666D01*
X185771904Y-116711428D01*
X185962380Y-116711428D01*
X187486190Y-118044761D02*
X187486190Y-116044761D01*
X187486190Y-117949523D02*
X187295714Y-118044761D01*
X186914761Y-118044761D01*
X186724285Y-117949523D01*
X186629047Y-117854285D01*
X186533809Y-117663809D01*
X186533809Y-117092380D01*
X186629047Y-116901904D01*
X186724285Y-116806666D01*
X186914761Y-116711428D01*
X187295714Y-116711428D01*
X187486190Y-116806666D01*
X190514761Y-115627142D02*
X188514761Y-115627142D01*
X189943333Y-114960476D01*
X188514761Y-114293809D01*
X190514761Y-114293809D01*
X190514761Y-113055714D02*
X190419523Y-113246190D01*
X190324285Y-113341428D01*
X190133809Y-113436666D01*
X189562380Y-113436666D01*
X189371904Y-113341428D01*
X189276666Y-113246190D01*
X189181428Y-113055714D01*
X189181428Y-112770000D01*
X189276666Y-112579523D01*
X189371904Y-112484285D01*
X189562380Y-112389047D01*
X190133809Y-112389047D01*
X190324285Y-112484285D01*
X190419523Y-112579523D01*
X190514761Y-112770000D01*
X190514761Y-113055714D01*
X189181428Y-111817619D02*
X189181428Y-111055714D01*
X188514761Y-111531904D02*
X190229047Y-111531904D01*
X190419523Y-111436666D01*
X190514761Y-111246190D01*
X190514761Y-111055714D01*
X190514761Y-110103333D02*
X190419523Y-110293809D01*
X190324285Y-110389047D01*
X190133809Y-110484285D01*
X189562380Y-110484285D01*
X189371904Y-110389047D01*
X189276666Y-110293809D01*
X189181428Y-110103333D01*
X189181428Y-109817619D01*
X189276666Y-109627142D01*
X189371904Y-109531904D01*
X189562380Y-109436666D01*
X190133809Y-109436666D01*
X190324285Y-109531904D01*
X190419523Y-109627142D01*
X190514761Y-109817619D01*
X190514761Y-110103333D01*
X190514761Y-108579523D02*
X189181428Y-108579523D01*
X189562380Y-108579523D02*
X189371904Y-108484285D01*
X189276666Y-108389047D01*
X189181428Y-108198571D01*
X189181428Y-108008095D01*
X190324285Y-104674761D02*
X190419523Y-104770000D01*
X190514761Y-105055714D01*
X190514761Y-105246190D01*
X190419523Y-105531904D01*
X190229047Y-105722380D01*
X190038571Y-105817619D01*
X189657619Y-105912857D01*
X189371904Y-105912857D01*
X188990952Y-105817619D01*
X188800476Y-105722380D01*
X188610000Y-105531904D01*
X188514761Y-105246190D01*
X188514761Y-105055714D01*
X188610000Y-104770000D01*
X188705238Y-104674761D01*
X190514761Y-103531904D02*
X190419523Y-103722380D01*
X190324285Y-103817619D01*
X190133809Y-103912857D01*
X189562380Y-103912857D01*
X189371904Y-103817619D01*
X189276666Y-103722380D01*
X189181428Y-103531904D01*
X189181428Y-103246190D01*
X189276666Y-103055714D01*
X189371904Y-102960476D01*
X189562380Y-102865238D01*
X190133809Y-102865238D01*
X190324285Y-102960476D01*
X190419523Y-103055714D01*
X190514761Y-103246190D01*
X190514761Y-103531904D01*
X189181428Y-102008095D02*
X190514761Y-102008095D01*
X189371904Y-102008095D02*
X189276666Y-101912857D01*
X189181428Y-101722380D01*
X189181428Y-101436666D01*
X189276666Y-101246190D01*
X189467142Y-101150952D01*
X190514761Y-101150952D01*
X189181428Y-100484285D02*
X189181428Y-99722380D01*
X188514761Y-100198571D02*
X190229047Y-100198571D01*
X190419523Y-100103333D01*
X190514761Y-99912857D01*
X190514761Y-99722380D01*
X190514761Y-99055714D02*
X189181428Y-99055714D01*
X189562380Y-99055714D02*
X189371904Y-98960476D01*
X189276666Y-98865238D01*
X189181428Y-98674761D01*
X189181428Y-98484285D01*
X190514761Y-97531904D02*
X190419523Y-97722380D01*
X190324285Y-97817619D01*
X190133809Y-97912857D01*
X189562380Y-97912857D01*
X189371904Y-97817619D01*
X189276666Y-97722380D01*
X189181428Y-97531904D01*
X189181428Y-97246190D01*
X189276666Y-97055714D01*
X189371904Y-96960476D01*
X189562380Y-96865238D01*
X190133809Y-96865238D01*
X190324285Y-96960476D01*
X190419523Y-97055714D01*
X190514761Y-97246190D01*
X190514761Y-97531904D01*
X190514761Y-95722380D02*
X190419523Y-95912857D01*
X190229047Y-96008095D01*
X188514761Y-96008095D01*
X153006190Y-77053333D02*
X153958571Y-77053333D01*
X152815714Y-77624761D02*
X153482380Y-75624761D01*
X154149047Y-77624761D01*
X154815714Y-76291428D02*
X154815714Y-77624761D01*
X154815714Y-76481904D02*
X154910952Y-76386666D01*
X155101428Y-76291428D01*
X155387142Y-76291428D01*
X155577619Y-76386666D01*
X155672857Y-76577142D01*
X155672857Y-77624761D01*
X157482380Y-77624761D02*
X157482380Y-76577142D01*
X157387142Y-76386666D01*
X157196666Y-76291428D01*
X156815714Y-76291428D01*
X156625238Y-76386666D01*
X157482380Y-77529523D02*
X157291904Y-77624761D01*
X156815714Y-77624761D01*
X156625238Y-77529523D01*
X156530000Y-77339047D01*
X156530000Y-77148571D01*
X156625238Y-76958095D01*
X156815714Y-76862857D01*
X157291904Y-76862857D01*
X157482380Y-76767619D01*
X158720476Y-77624761D02*
X158530000Y-77529523D01*
X158434761Y-77339047D01*
X158434761Y-75624761D01*
X159768095Y-77624761D02*
X159577619Y-77529523D01*
X159482380Y-77434285D01*
X159387142Y-77243809D01*
X159387142Y-76672380D01*
X159482380Y-76481904D01*
X159577619Y-76386666D01*
X159768095Y-76291428D01*
X160053809Y-76291428D01*
X160244285Y-76386666D01*
X160339523Y-76481904D01*
X160434761Y-76672380D01*
X160434761Y-77243809D01*
X160339523Y-77434285D01*
X160244285Y-77529523D01*
X160053809Y-77624761D01*
X159768095Y-77624761D01*
X162149047Y-76291428D02*
X162149047Y-77910476D01*
X162053809Y-78100952D01*
X161958571Y-78196190D01*
X161768095Y-78291428D01*
X161482380Y-78291428D01*
X161291904Y-78196190D01*
X162149047Y-77529523D02*
X161958571Y-77624761D01*
X161577619Y-77624761D01*
X161387142Y-77529523D01*
X161291904Y-77434285D01*
X161196666Y-77243809D01*
X161196666Y-76672380D01*
X161291904Y-76481904D01*
X161387142Y-76386666D01*
X161577619Y-76291428D01*
X161958571Y-76291428D01*
X162149047Y-76386666D01*
X164530000Y-75529523D02*
X162815714Y-78100952D01*
X165196666Y-77624761D02*
X165196666Y-75624761D01*
X165672857Y-75624761D01*
X165958571Y-75720000D01*
X166149047Y-75910476D01*
X166244285Y-76100952D01*
X166339523Y-76481904D01*
X166339523Y-76767619D01*
X166244285Y-77148571D01*
X166149047Y-77339047D01*
X165958571Y-77529523D01*
X165672857Y-77624761D01*
X165196666Y-77624761D01*
X167196666Y-77624761D02*
X167196666Y-76291428D01*
X167196666Y-75624761D02*
X167101428Y-75720000D01*
X167196666Y-75815238D01*
X167291904Y-75720000D01*
X167196666Y-75624761D01*
X167196666Y-75815238D01*
X169006190Y-76291428D02*
X169006190Y-77910476D01*
X168910952Y-78100952D01*
X168815714Y-78196190D01*
X168625238Y-78291428D01*
X168339523Y-78291428D01*
X168149047Y-78196190D01*
X169006190Y-77529523D02*
X168815714Y-77624761D01*
X168434761Y-77624761D01*
X168244285Y-77529523D01*
X168149047Y-77434285D01*
X168053809Y-77243809D01*
X168053809Y-76672380D01*
X168149047Y-76481904D01*
X168244285Y-76386666D01*
X168434761Y-76291428D01*
X168815714Y-76291428D01*
X169006190Y-76386666D01*
X169958571Y-77624761D02*
X169958571Y-76291428D01*
X169958571Y-75624761D02*
X169863333Y-75720000D01*
X169958571Y-75815238D01*
X170053809Y-75720000D01*
X169958571Y-75624761D01*
X169958571Y-75815238D01*
X170625238Y-76291428D02*
X171387142Y-76291428D01*
X170910952Y-75624761D02*
X170910952Y-77339047D01*
X171006190Y-77529523D01*
X171196666Y-77624761D01*
X171387142Y-77624761D01*
X172910952Y-77624761D02*
X172910952Y-76577142D01*
X172815714Y-76386666D01*
X172625238Y-76291428D01*
X172244285Y-76291428D01*
X172053809Y-76386666D01*
X172910952Y-77529523D02*
X172720476Y-77624761D01*
X172244285Y-77624761D01*
X172053809Y-77529523D01*
X171958571Y-77339047D01*
X171958571Y-77148571D01*
X172053809Y-76958095D01*
X172244285Y-76862857D01*
X172720476Y-76862857D01*
X172910952Y-76767619D01*
X174149047Y-77624761D02*
X173958571Y-77529523D01*
X173863333Y-77339047D01*
X173863333Y-75624761D01*
X158530000Y-80924761D02*
X158530000Y-78924761D01*
X159482380Y-79591428D02*
X159482380Y-80924761D01*
X159482380Y-79781904D02*
X159577619Y-79686666D01*
X159768095Y-79591428D01*
X160053809Y-79591428D01*
X160244285Y-79686666D01*
X160339523Y-79877142D01*
X160339523Y-80924761D01*
X161291904Y-79591428D02*
X161291904Y-81591428D01*
X161291904Y-79686666D02*
X161482380Y-79591428D01*
X161863333Y-79591428D01*
X162053809Y-79686666D01*
X162149047Y-79781904D01*
X162244285Y-79972380D01*
X162244285Y-80543809D01*
X162149047Y-80734285D01*
X162053809Y-80829523D01*
X161863333Y-80924761D01*
X161482380Y-80924761D01*
X161291904Y-80829523D01*
X163958571Y-79591428D02*
X163958571Y-80924761D01*
X163101428Y-79591428D02*
X163101428Y-80639047D01*
X163196666Y-80829523D01*
X163387142Y-80924761D01*
X163672857Y-80924761D01*
X163863333Y-80829523D01*
X163958571Y-80734285D01*
X164625238Y-79591428D02*
X165387142Y-79591428D01*
X164910952Y-78924761D02*
X164910952Y-80639047D01*
X165006190Y-80829523D01*
X165196666Y-80924761D01*
X165387142Y-80924761D01*
X167482380Y-79115238D02*
X167577619Y-79020000D01*
X167768095Y-78924761D01*
X168244285Y-78924761D01*
X168434761Y-79020000D01*
X168530000Y-79115238D01*
X168625238Y-79305714D01*
X168625238Y-79496190D01*
X168530000Y-79781904D01*
X167387142Y-80924761D01*
X168625238Y-80924761D01*
X124196190Y-77053333D02*
X125148571Y-77053333D01*
X124005714Y-77624761D02*
X124672380Y-75624761D01*
X125339047Y-77624761D01*
X126005714Y-76291428D02*
X126005714Y-77624761D01*
X126005714Y-76481904D02*
X126100952Y-76386666D01*
X126291428Y-76291428D01*
X126577142Y-76291428D01*
X126767619Y-76386666D01*
X126862857Y-76577142D01*
X126862857Y-77624761D01*
X128672380Y-77624761D02*
X128672380Y-76577142D01*
X128577142Y-76386666D01*
X128386666Y-76291428D01*
X128005714Y-76291428D01*
X127815238Y-76386666D01*
X128672380Y-77529523D02*
X128481904Y-77624761D01*
X128005714Y-77624761D01*
X127815238Y-77529523D01*
X127720000Y-77339047D01*
X127720000Y-77148571D01*
X127815238Y-76958095D01*
X128005714Y-76862857D01*
X128481904Y-76862857D01*
X128672380Y-76767619D01*
X129910476Y-77624761D02*
X129720000Y-77529523D01*
X129624761Y-77339047D01*
X129624761Y-75624761D01*
X130958095Y-77624761D02*
X130767619Y-77529523D01*
X130672380Y-77434285D01*
X130577142Y-77243809D01*
X130577142Y-76672380D01*
X130672380Y-76481904D01*
X130767619Y-76386666D01*
X130958095Y-76291428D01*
X131243809Y-76291428D01*
X131434285Y-76386666D01*
X131529523Y-76481904D01*
X131624761Y-76672380D01*
X131624761Y-77243809D01*
X131529523Y-77434285D01*
X131434285Y-77529523D01*
X131243809Y-77624761D01*
X130958095Y-77624761D01*
X133339047Y-76291428D02*
X133339047Y-77910476D01*
X133243809Y-78100952D01*
X133148571Y-78196190D01*
X132958095Y-78291428D01*
X132672380Y-78291428D01*
X132481904Y-78196190D01*
X133339047Y-77529523D02*
X133148571Y-77624761D01*
X132767619Y-77624761D01*
X132577142Y-77529523D01*
X132481904Y-77434285D01*
X132386666Y-77243809D01*
X132386666Y-76672380D01*
X132481904Y-76481904D01*
X132577142Y-76386666D01*
X132767619Y-76291428D01*
X133148571Y-76291428D01*
X133339047Y-76386666D01*
X135720000Y-75529523D02*
X134005714Y-78100952D01*
X136386666Y-77624761D02*
X136386666Y-75624761D01*
X136862857Y-75624761D01*
X137148571Y-75720000D01*
X137339047Y-75910476D01*
X137434285Y-76100952D01*
X137529523Y-76481904D01*
X137529523Y-76767619D01*
X137434285Y-77148571D01*
X137339047Y-77339047D01*
X137148571Y-77529523D01*
X136862857Y-77624761D01*
X136386666Y-77624761D01*
X138386666Y-77624761D02*
X138386666Y-76291428D01*
X138386666Y-75624761D02*
X138291428Y-75720000D01*
X138386666Y-75815238D01*
X138481904Y-75720000D01*
X138386666Y-75624761D01*
X138386666Y-75815238D01*
X140196190Y-76291428D02*
X140196190Y-77910476D01*
X140100952Y-78100952D01*
X140005714Y-78196190D01*
X139815238Y-78291428D01*
X139529523Y-78291428D01*
X139339047Y-78196190D01*
X140196190Y-77529523D02*
X140005714Y-77624761D01*
X139624761Y-77624761D01*
X139434285Y-77529523D01*
X139339047Y-77434285D01*
X139243809Y-77243809D01*
X139243809Y-76672380D01*
X139339047Y-76481904D01*
X139434285Y-76386666D01*
X139624761Y-76291428D01*
X140005714Y-76291428D01*
X140196190Y-76386666D01*
X141148571Y-77624761D02*
X141148571Y-76291428D01*
X141148571Y-75624761D02*
X141053333Y-75720000D01*
X141148571Y-75815238D01*
X141243809Y-75720000D01*
X141148571Y-75624761D01*
X141148571Y-75815238D01*
X141815238Y-76291428D02*
X142577142Y-76291428D01*
X142100952Y-75624761D02*
X142100952Y-77339047D01*
X142196190Y-77529523D01*
X142386666Y-77624761D01*
X142577142Y-77624761D01*
X144100952Y-77624761D02*
X144100952Y-76577142D01*
X144005714Y-76386666D01*
X143815238Y-76291428D01*
X143434285Y-76291428D01*
X143243809Y-76386666D01*
X144100952Y-77529523D02*
X143910476Y-77624761D01*
X143434285Y-77624761D01*
X143243809Y-77529523D01*
X143148571Y-77339047D01*
X143148571Y-77148571D01*
X143243809Y-76958095D01*
X143434285Y-76862857D01*
X143910476Y-76862857D01*
X144100952Y-76767619D01*
X145339047Y-77624761D02*
X145148571Y-77529523D01*
X145053333Y-77339047D01*
X145053333Y-75624761D01*
X129720000Y-80924761D02*
X129720000Y-78924761D01*
X130672380Y-79591428D02*
X130672380Y-80924761D01*
X130672380Y-79781904D02*
X130767619Y-79686666D01*
X130958095Y-79591428D01*
X131243809Y-79591428D01*
X131434285Y-79686666D01*
X131529523Y-79877142D01*
X131529523Y-80924761D01*
X132481904Y-79591428D02*
X132481904Y-81591428D01*
X132481904Y-79686666D02*
X132672380Y-79591428D01*
X133053333Y-79591428D01*
X133243809Y-79686666D01*
X133339047Y-79781904D01*
X133434285Y-79972380D01*
X133434285Y-80543809D01*
X133339047Y-80734285D01*
X133243809Y-80829523D01*
X133053333Y-80924761D01*
X132672380Y-80924761D01*
X132481904Y-80829523D01*
X135148571Y-79591428D02*
X135148571Y-80924761D01*
X134291428Y-79591428D02*
X134291428Y-80639047D01*
X134386666Y-80829523D01*
X134577142Y-80924761D01*
X134862857Y-80924761D01*
X135053333Y-80829523D01*
X135148571Y-80734285D01*
X135815238Y-79591428D02*
X136577142Y-79591428D01*
X136100952Y-78924761D02*
X136100952Y-80639047D01*
X136196190Y-80829523D01*
X136386666Y-80924761D01*
X136577142Y-80924761D01*
X139815238Y-80924761D02*
X138672380Y-80924761D01*
X139243809Y-80924761D02*
X139243809Y-78924761D01*
X139053333Y-79210476D01*
X138862857Y-79400952D01*
X138672380Y-79496190D01*
X178443333Y-135339523D02*
X178729047Y-135434761D01*
X179205238Y-135434761D01*
X179395714Y-135339523D01*
X179490952Y-135244285D01*
X179586190Y-135053809D01*
X179586190Y-134863333D01*
X179490952Y-134672857D01*
X179395714Y-134577619D01*
X179205238Y-134482380D01*
X178824285Y-134387142D01*
X178633809Y-134291904D01*
X178538571Y-134196666D01*
X178443333Y-134006190D01*
X178443333Y-133815714D01*
X178538571Y-133625238D01*
X178633809Y-133530000D01*
X178824285Y-133434761D01*
X179300476Y-133434761D01*
X179586190Y-133530000D01*
X181205238Y-135339523D02*
X181014761Y-135434761D01*
X180633809Y-135434761D01*
X180443333Y-135339523D01*
X180348095Y-135149047D01*
X180348095Y-134387142D01*
X180443333Y-134196666D01*
X180633809Y-134101428D01*
X181014761Y-134101428D01*
X181205238Y-134196666D01*
X181300476Y-134387142D01*
X181300476Y-134577619D01*
X180348095Y-134768095D01*
X182157619Y-135434761D02*
X182157619Y-134101428D01*
X182157619Y-134482380D02*
X182252857Y-134291904D01*
X182348095Y-134196666D01*
X182538571Y-134101428D01*
X182729047Y-134101428D01*
X183395714Y-135434761D02*
X183395714Y-134101428D01*
X183395714Y-133434761D02*
X183300476Y-133530000D01*
X183395714Y-133625238D01*
X183490952Y-133530000D01*
X183395714Y-133434761D01*
X183395714Y-133625238D01*
X185205238Y-135434761D02*
X185205238Y-134387142D01*
X185110000Y-134196666D01*
X184919523Y-134101428D01*
X184538571Y-134101428D01*
X184348095Y-134196666D01*
X185205238Y-135339523D02*
X185014761Y-135434761D01*
X184538571Y-135434761D01*
X184348095Y-135339523D01*
X184252857Y-135149047D01*
X184252857Y-134958571D01*
X184348095Y-134768095D01*
X184538571Y-134672857D01*
X185014761Y-134672857D01*
X185205238Y-134577619D01*
X186443333Y-135434761D02*
X186252857Y-135339523D01*
X186157619Y-135149047D01*
X186157619Y-133434761D01*
X188538571Y-133434761D02*
X189776666Y-133434761D01*
X189110000Y-134196666D01*
X189395714Y-134196666D01*
X189586190Y-134291904D01*
X189681428Y-134387142D01*
X189776666Y-134577619D01*
X189776666Y-135053809D01*
X189681428Y-135244285D01*
X189586190Y-135339523D01*
X189395714Y-135434761D01*
X188824285Y-135434761D01*
X188633809Y-135339523D01*
X188538571Y-135244285D01*
X144313333Y-135339523D02*
X144599047Y-135434761D01*
X145075238Y-135434761D01*
X145265714Y-135339523D01*
X145360952Y-135244285D01*
X145456190Y-135053809D01*
X145456190Y-134863333D01*
X145360952Y-134672857D01*
X145265714Y-134577619D01*
X145075238Y-134482380D01*
X144694285Y-134387142D01*
X144503809Y-134291904D01*
X144408571Y-134196666D01*
X144313333Y-134006190D01*
X144313333Y-133815714D01*
X144408571Y-133625238D01*
X144503809Y-133530000D01*
X144694285Y-133434761D01*
X145170476Y-133434761D01*
X145456190Y-133530000D01*
X147075238Y-135339523D02*
X146884761Y-135434761D01*
X146503809Y-135434761D01*
X146313333Y-135339523D01*
X146218095Y-135149047D01*
X146218095Y-134387142D01*
X146313333Y-134196666D01*
X146503809Y-134101428D01*
X146884761Y-134101428D01*
X147075238Y-134196666D01*
X147170476Y-134387142D01*
X147170476Y-134577619D01*
X146218095Y-134768095D01*
X148027619Y-135434761D02*
X148027619Y-134101428D01*
X148027619Y-134482380D02*
X148122857Y-134291904D01*
X148218095Y-134196666D01*
X148408571Y-134101428D01*
X148599047Y-134101428D01*
X149265714Y-135434761D02*
X149265714Y-134101428D01*
X149265714Y-133434761D02*
X149170476Y-133530000D01*
X149265714Y-133625238D01*
X149360952Y-133530000D01*
X149265714Y-133434761D01*
X149265714Y-133625238D01*
X151075238Y-135434761D02*
X151075238Y-134387142D01*
X150980000Y-134196666D01*
X150789523Y-134101428D01*
X150408571Y-134101428D01*
X150218095Y-134196666D01*
X151075238Y-135339523D02*
X150884761Y-135434761D01*
X150408571Y-135434761D01*
X150218095Y-135339523D01*
X150122857Y-135149047D01*
X150122857Y-134958571D01*
X150218095Y-134768095D01*
X150408571Y-134672857D01*
X150884761Y-134672857D01*
X151075238Y-134577619D01*
X152313333Y-135434761D02*
X152122857Y-135339523D01*
X152027619Y-135149047D01*
X152027619Y-133434761D01*
X154503809Y-133625238D02*
X154599047Y-133530000D01*
X154789523Y-133434761D01*
X155265714Y-133434761D01*
X155456190Y-133530000D01*
X155551428Y-133625238D01*
X155646666Y-133815714D01*
X155646666Y-134006190D01*
X155551428Y-134291904D01*
X154408571Y-135434761D01*
X155646666Y-135434761D01*
X110183333Y-135339523D02*
X110469047Y-135434761D01*
X110945238Y-135434761D01*
X111135714Y-135339523D01*
X111230952Y-135244285D01*
X111326190Y-135053809D01*
X111326190Y-134863333D01*
X111230952Y-134672857D01*
X111135714Y-134577619D01*
X110945238Y-134482380D01*
X110564285Y-134387142D01*
X110373809Y-134291904D01*
X110278571Y-134196666D01*
X110183333Y-134006190D01*
X110183333Y-133815714D01*
X110278571Y-133625238D01*
X110373809Y-133530000D01*
X110564285Y-133434761D01*
X111040476Y-133434761D01*
X111326190Y-133530000D01*
X112945238Y-135339523D02*
X112754761Y-135434761D01*
X112373809Y-135434761D01*
X112183333Y-135339523D01*
X112088095Y-135149047D01*
X112088095Y-134387142D01*
X112183333Y-134196666D01*
X112373809Y-134101428D01*
X112754761Y-134101428D01*
X112945238Y-134196666D01*
X113040476Y-134387142D01*
X113040476Y-134577619D01*
X112088095Y-134768095D01*
X113897619Y-135434761D02*
X113897619Y-134101428D01*
X113897619Y-134482380D02*
X113992857Y-134291904D01*
X114088095Y-134196666D01*
X114278571Y-134101428D01*
X114469047Y-134101428D01*
X115135714Y-135434761D02*
X115135714Y-134101428D01*
X115135714Y-133434761D02*
X115040476Y-133530000D01*
X115135714Y-133625238D01*
X115230952Y-133530000D01*
X115135714Y-133434761D01*
X115135714Y-133625238D01*
X116945238Y-135434761D02*
X116945238Y-134387142D01*
X116850000Y-134196666D01*
X116659523Y-134101428D01*
X116278571Y-134101428D01*
X116088095Y-134196666D01*
X116945238Y-135339523D02*
X116754761Y-135434761D01*
X116278571Y-135434761D01*
X116088095Y-135339523D01*
X115992857Y-135149047D01*
X115992857Y-134958571D01*
X116088095Y-134768095D01*
X116278571Y-134672857D01*
X116754761Y-134672857D01*
X116945238Y-134577619D01*
X118183333Y-135434761D02*
X117992857Y-135339523D01*
X117897619Y-135149047D01*
X117897619Y-133434761D01*
X121516666Y-135434761D02*
X120373809Y-135434761D01*
X120945238Y-135434761D02*
X120945238Y-133434761D01*
X120754761Y-133720476D01*
X120564285Y-133910952D01*
X120373809Y-134006190D01*
D11*
X144952380Y-119772380D02*
X144952380Y-118772380D01*
X145380952Y-119772380D02*
X145380952Y-119248571D01*
X145333333Y-119153333D01*
X145238095Y-119105714D01*
X145095238Y-119105714D01*
X145000000Y-119153333D01*
X144952380Y-119200952D01*
X145714285Y-119105714D02*
X146095238Y-119105714D01*
X145857142Y-118772380D02*
X145857142Y-119629523D01*
X145904761Y-119724761D01*
X146000000Y-119772380D01*
X146095238Y-119772380D01*
X146285714Y-119105714D02*
X146666666Y-119105714D01*
X146428571Y-118772380D02*
X146428571Y-119629523D01*
X146476190Y-119724761D01*
X146571428Y-119772380D01*
X146666666Y-119772380D01*
X147000000Y-119105714D02*
X147000000Y-120105714D01*
X147000000Y-119153333D02*
X147095238Y-119105714D01*
X147285714Y-119105714D01*
X147380952Y-119153333D01*
X147428571Y-119200952D01*
X147476190Y-119296190D01*
X147476190Y-119581904D01*
X147428571Y-119677142D01*
X147380952Y-119724761D01*
X147285714Y-119772380D01*
X147095238Y-119772380D01*
X147000000Y-119724761D01*
X147857142Y-119724761D02*
X147952380Y-119772380D01*
X148142857Y-119772380D01*
X148238095Y-119724761D01*
X148285714Y-119629523D01*
X148285714Y-119581904D01*
X148238095Y-119486666D01*
X148142857Y-119439047D01*
X148000000Y-119439047D01*
X147904761Y-119391428D01*
X147857142Y-119296190D01*
X147857142Y-119248571D01*
X147904761Y-119153333D01*
X148000000Y-119105714D01*
X148142857Y-119105714D01*
X148238095Y-119153333D01*
X148714285Y-119677142D02*
X148761904Y-119724761D01*
X148714285Y-119772380D01*
X148666666Y-119724761D01*
X148714285Y-119677142D01*
X148714285Y-119772380D01*
X148714285Y-119153333D02*
X148761904Y-119200952D01*
X148714285Y-119248571D01*
X148666666Y-119200952D01*
X148714285Y-119153333D01*
X148714285Y-119248571D01*
X149904761Y-118724761D02*
X149047619Y-120010476D01*
X150952380Y-118724761D02*
X150095238Y-120010476D01*
X151714285Y-119105714D02*
X151714285Y-119915238D01*
X151666666Y-120010476D01*
X151619047Y-120058095D01*
X151523809Y-120105714D01*
X151380952Y-120105714D01*
X151285714Y-120058095D01*
X151714285Y-119724761D02*
X151619047Y-119772380D01*
X151428571Y-119772380D01*
X151333333Y-119724761D01*
X151285714Y-119677142D01*
X151238095Y-119581904D01*
X151238095Y-119296190D01*
X151285714Y-119200952D01*
X151333333Y-119153333D01*
X151428571Y-119105714D01*
X151619047Y-119105714D01*
X151714285Y-119153333D01*
X152190476Y-119772380D02*
X152190476Y-119105714D01*
X152190476Y-118772380D02*
X152142857Y-118820000D01*
X152190476Y-118867619D01*
X152238095Y-118820000D01*
X152190476Y-118772380D01*
X152190476Y-118867619D01*
X152523809Y-119105714D02*
X152904761Y-119105714D01*
X152666666Y-118772380D02*
X152666666Y-119629523D01*
X152714285Y-119724761D01*
X152809523Y-119772380D01*
X152904761Y-119772380D01*
X153238095Y-119772380D02*
X153238095Y-118772380D01*
X153666666Y-119772380D02*
X153666666Y-119248571D01*
X153619047Y-119153333D01*
X153523809Y-119105714D01*
X153380952Y-119105714D01*
X153285714Y-119153333D01*
X153238095Y-119200952D01*
X154571428Y-119105714D02*
X154571428Y-119772380D01*
X154142857Y-119105714D02*
X154142857Y-119629523D01*
X154190476Y-119724761D01*
X154285714Y-119772380D01*
X154428571Y-119772380D01*
X154523809Y-119724761D01*
X154571428Y-119677142D01*
X155047619Y-119772380D02*
X155047619Y-118772380D01*
X155047619Y-119153333D02*
X155142857Y-119105714D01*
X155333333Y-119105714D01*
X155428571Y-119153333D01*
X155476190Y-119200952D01*
X155523809Y-119296190D01*
X155523809Y-119581904D01*
X155476190Y-119677142D01*
X155428571Y-119724761D01*
X155333333Y-119772380D01*
X155142857Y-119772380D01*
X155047619Y-119724761D01*
X155952380Y-119677142D02*
X156000000Y-119724761D01*
X155952380Y-119772380D01*
X155904761Y-119724761D01*
X155952380Y-119677142D01*
X155952380Y-119772380D01*
X156857142Y-119724761D02*
X156761904Y-119772380D01*
X156571428Y-119772380D01*
X156476190Y-119724761D01*
X156428571Y-119677142D01*
X156380952Y-119581904D01*
X156380952Y-119296190D01*
X156428571Y-119200952D01*
X156476190Y-119153333D01*
X156571428Y-119105714D01*
X156761904Y-119105714D01*
X156857142Y-119153333D01*
X157428571Y-119772380D02*
X157333333Y-119724761D01*
X157285714Y-119677142D01*
X157238095Y-119581904D01*
X157238095Y-119296190D01*
X157285714Y-119200952D01*
X157333333Y-119153333D01*
X157428571Y-119105714D01*
X157571428Y-119105714D01*
X157666666Y-119153333D01*
X157714285Y-119200952D01*
X157761904Y-119296190D01*
X157761904Y-119581904D01*
X157714285Y-119677142D01*
X157666666Y-119724761D01*
X157571428Y-119772380D01*
X157428571Y-119772380D01*
X158190476Y-119772380D02*
X158190476Y-119105714D01*
X158190476Y-119200952D02*
X158238095Y-119153333D01*
X158333333Y-119105714D01*
X158476190Y-119105714D01*
X158571428Y-119153333D01*
X158619047Y-119248571D01*
X158619047Y-119772380D01*
X158619047Y-119248571D02*
X158666666Y-119153333D01*
X158761904Y-119105714D01*
X158904761Y-119105714D01*
X159000000Y-119153333D01*
X159047619Y-119248571D01*
X159047619Y-119772380D01*
X160238095Y-118724761D02*
X159380952Y-120010476D01*
X161047619Y-119772380D02*
X160571428Y-119772380D01*
X160571428Y-118772380D01*
X161523809Y-119772380D02*
X161428571Y-119724761D01*
X161380952Y-119629523D01*
X161380952Y-118772380D01*
X162333333Y-119772380D02*
X162333333Y-119248571D01*
X162285714Y-119153333D01*
X162190476Y-119105714D01*
X162000000Y-119105714D01*
X161904761Y-119153333D01*
X162333333Y-119724761D02*
X162238095Y-119772380D01*
X162000000Y-119772380D01*
X161904761Y-119724761D01*
X161857142Y-119629523D01*
X161857142Y-119534285D01*
X161904761Y-119439047D01*
X162000000Y-119391428D01*
X162238095Y-119391428D01*
X162333333Y-119343809D01*
X162809523Y-119772380D02*
X162809523Y-119105714D01*
X162809523Y-119200952D02*
X162857142Y-119153333D01*
X162952380Y-119105714D01*
X163095238Y-119105714D01*
X163190476Y-119153333D01*
X163238095Y-119248571D01*
X163238095Y-119772380D01*
X163238095Y-119248571D02*
X163285714Y-119153333D01*
X163380952Y-119105714D01*
X163523809Y-119105714D01*
X163619047Y-119153333D01*
X163666666Y-119248571D01*
X163666666Y-119772380D01*
X164523809Y-119724761D02*
X164428571Y-119772380D01*
X164238095Y-119772380D01*
X164142857Y-119724761D01*
X164095238Y-119629523D01*
X164095238Y-119248571D01*
X164142857Y-119153333D01*
X164238095Y-119105714D01*
X164428571Y-119105714D01*
X164523809Y-119153333D01*
X164571428Y-119248571D01*
X164571428Y-119343809D01*
X164095238Y-119439047D01*
X165000000Y-119772380D02*
X165000000Y-119105714D01*
X165000000Y-119296190D02*
X165047619Y-119200952D01*
X165095238Y-119153333D01*
X165190476Y-119105714D01*
X165285714Y-119105714D01*
X165761904Y-119772380D02*
X165666666Y-119724761D01*
X165619047Y-119677142D01*
X165571428Y-119581904D01*
X165571428Y-119296190D01*
X165619047Y-119200952D01*
X165666666Y-119153333D01*
X165761904Y-119105714D01*
X165904761Y-119105714D01*
X166000000Y-119153333D01*
X166047619Y-119200952D01*
X166095238Y-119296190D01*
X166095238Y-119581904D01*
X166047619Y-119677142D01*
X166000000Y-119724761D01*
X165904761Y-119772380D01*
X165761904Y-119772380D01*
X167238095Y-118724761D02*
X166380952Y-120010476D01*
X167523809Y-119486666D02*
X168000000Y-119486666D01*
X167428571Y-119772380D02*
X167761904Y-118772380D01*
X168095238Y-119772380D01*
X168285714Y-119105714D02*
X168666666Y-119105714D01*
X168428571Y-118772380D02*
X168428571Y-119629523D01*
X168476190Y-119724761D01*
X168571428Y-119772380D01*
X168666666Y-119772380D01*
X168857142Y-119105714D02*
X169238095Y-119105714D01*
X169000000Y-118772380D02*
X169000000Y-119629523D01*
X169047619Y-119724761D01*
X169142857Y-119772380D01*
X169238095Y-119772380D01*
X169952380Y-119724761D02*
X169857142Y-119772380D01*
X169666666Y-119772380D01*
X169571428Y-119724761D01*
X169523809Y-119629523D01*
X169523809Y-119248571D01*
X169571428Y-119153333D01*
X169666666Y-119105714D01*
X169857142Y-119105714D01*
X169952380Y-119153333D01*
X170000000Y-119248571D01*
X170000000Y-119343809D01*
X169523809Y-119439047D01*
X170428571Y-119105714D02*
X170428571Y-119772380D01*
X170428571Y-119200952D02*
X170476190Y-119153333D01*
X170571428Y-119105714D01*
X170714285Y-119105714D01*
X170809523Y-119153333D01*
X170857142Y-119248571D01*
X170857142Y-119772380D01*
X171761904Y-119105714D02*
X171761904Y-119772380D01*
X171333333Y-119105714D02*
X171333333Y-119629523D01*
X171380952Y-119724761D01*
X171476190Y-119772380D01*
X171619047Y-119772380D01*
X171714285Y-119724761D01*
X171761904Y-119677142D01*
X172666666Y-119772380D02*
X172666666Y-119248571D01*
X172619047Y-119153333D01*
X172523809Y-119105714D01*
X172333333Y-119105714D01*
X172238095Y-119153333D01*
X172666666Y-119724761D02*
X172571428Y-119772380D01*
X172333333Y-119772380D01*
X172238095Y-119724761D01*
X172190476Y-119629523D01*
X172190476Y-119534285D01*
X172238095Y-119439047D01*
X172333333Y-119391428D01*
X172571428Y-119391428D01*
X172666666Y-119343809D01*
X172999999Y-119105714D02*
X173380952Y-119105714D01*
X173142857Y-118772380D02*
X173142857Y-119629523D01*
X173190476Y-119724761D01*
X173285714Y-119772380D01*
X173380952Y-119772380D01*
X173857142Y-119772380D02*
X173761904Y-119724761D01*
X173714285Y-119677142D01*
X173666666Y-119581904D01*
X173666666Y-119296190D01*
X173714285Y-119200952D01*
X173761904Y-119153333D01*
X173857142Y-119105714D01*
X173999999Y-119105714D01*
X174095238Y-119153333D01*
X174142857Y-119200952D01*
X174190476Y-119296190D01*
X174190476Y-119581904D01*
X174142857Y-119677142D01*
X174095238Y-119724761D01*
X173999999Y-119772380D01*
X173857142Y-119772380D01*
X174619047Y-119772380D02*
X174619047Y-119105714D01*
X174619047Y-119296190D02*
X174666666Y-119200952D01*
X174714285Y-119153333D01*
X174809523Y-119105714D01*
X174904761Y-119105714D01*
X174999999Y-119867619D02*
X175761904Y-119867619D01*
X176571428Y-119677142D02*
X176523809Y-119724761D01*
X176380952Y-119772380D01*
X176285714Y-119772380D01*
X176142857Y-119724761D01*
X176047619Y-119629523D01*
X175999999Y-119534285D01*
X175952380Y-119343809D01*
X175952380Y-119200952D01*
X175999999Y-119010476D01*
X176047619Y-118915238D01*
X176142857Y-118820000D01*
X176285714Y-118772380D01*
X176380952Y-118772380D01*
X176523809Y-118820000D01*
X176571428Y-118867619D01*
X177142857Y-119772380D02*
X177047619Y-119724761D01*
X176999999Y-119677142D01*
X176952380Y-119581904D01*
X176952380Y-119296190D01*
X176999999Y-119200952D01*
X177047619Y-119153333D01*
X177142857Y-119105714D01*
X177285714Y-119105714D01*
X177380952Y-119153333D01*
X177428571Y-119200952D01*
X177476190Y-119296190D01*
X177476190Y-119581904D01*
X177428571Y-119677142D01*
X177380952Y-119724761D01*
X177285714Y-119772380D01*
X177142857Y-119772380D01*
X177904761Y-119105714D02*
X177904761Y-119772380D01*
X177904761Y-119200952D02*
X177952380Y-119153333D01*
X178047619Y-119105714D01*
X178190476Y-119105714D01*
X178285714Y-119153333D01*
X178333333Y-119248571D01*
X178333333Y-119772380D01*
X178666666Y-119105714D02*
X179047619Y-119105714D01*
X178809523Y-118772380D02*
X178809523Y-119629523D01*
X178857142Y-119724761D01*
X178952380Y-119772380D01*
X179047619Y-119772380D01*
X179380952Y-119772380D02*
X179380952Y-119105714D01*
X179380952Y-119296190D02*
X179428571Y-119200952D01*
X179476190Y-119153333D01*
X179571428Y-119105714D01*
X179666666Y-119105714D01*
X180142857Y-119772380D02*
X180047619Y-119724761D01*
X179999999Y-119677142D01*
X179952380Y-119581904D01*
X179952380Y-119296190D01*
X179999999Y-119200952D01*
X180047619Y-119153333D01*
X180142857Y-119105714D01*
X180285714Y-119105714D01*
X180380952Y-119153333D01*
X180428571Y-119200952D01*
X180476190Y-119296190D01*
X180476190Y-119581904D01*
X180428571Y-119677142D01*
X180380952Y-119724761D01*
X180285714Y-119772380D01*
X180142857Y-119772380D01*
X181047619Y-119772380D02*
X180952380Y-119724761D01*
X180904761Y-119629523D01*
X180904761Y-118772380D01*
X181571428Y-119772380D02*
X181476190Y-119724761D01*
X181428571Y-119629523D01*
X181428571Y-118772380D01*
X182333333Y-119724761D02*
X182238095Y-119772380D01*
X182047619Y-119772380D01*
X181952380Y-119724761D01*
X181904761Y-119629523D01*
X181904761Y-119248571D01*
X181952380Y-119153333D01*
X182047619Y-119105714D01*
X182238095Y-119105714D01*
X182333333Y-119153333D01*
X182380952Y-119248571D01*
X182380952Y-119343809D01*
X181904761Y-119439047D01*
X182809523Y-119772380D02*
X182809523Y-119105714D01*
X182809523Y-119296190D02*
X182857142Y-119200952D01*
X182904761Y-119153333D01*
X182999999Y-119105714D01*
X183095238Y-119105714D01*
X183190476Y-119867619D02*
X183952380Y-119867619D01*
X184523809Y-119248571D02*
X184666666Y-119296190D01*
X184714285Y-119343809D01*
X184761904Y-119439047D01*
X184761904Y-119581904D01*
X184714285Y-119677142D01*
X184666666Y-119724761D01*
X184571428Y-119772380D01*
X184190476Y-119772380D01*
X184190476Y-118772380D01*
X184523809Y-118772380D01*
X184619047Y-118820000D01*
X184666666Y-118867619D01*
X184714285Y-118962857D01*
X184714285Y-119058095D01*
X184666666Y-119153333D01*
X184619047Y-119200952D01*
X184523809Y-119248571D01*
X184190476Y-119248571D01*
X185333333Y-119772380D02*
X185238095Y-119724761D01*
X185190476Y-119677142D01*
X185142857Y-119581904D01*
X185142857Y-119296190D01*
X185190476Y-119200952D01*
X185238095Y-119153333D01*
X185333333Y-119105714D01*
X185476190Y-119105714D01*
X185571428Y-119153333D01*
X185619047Y-119200952D01*
X185666666Y-119296190D01*
X185666666Y-119581904D01*
X185619047Y-119677142D01*
X185571428Y-119724761D01*
X185476190Y-119772380D01*
X185333333Y-119772380D01*
X186523809Y-119772380D02*
X186523809Y-119248571D01*
X186476190Y-119153333D01*
X186380952Y-119105714D01*
X186190476Y-119105714D01*
X186095238Y-119153333D01*
X186523809Y-119724761D02*
X186428571Y-119772380D01*
X186190476Y-119772380D01*
X186095238Y-119724761D01*
X186047619Y-119629523D01*
X186047619Y-119534285D01*
X186095238Y-119439047D01*
X186190476Y-119391428D01*
X186428571Y-119391428D01*
X186523809Y-119343809D01*
X186999999Y-119772380D02*
X186999999Y-119105714D01*
X186999999Y-119296190D02*
X187047619Y-119200952D01*
X187095238Y-119153333D01*
X187190476Y-119105714D01*
X187285714Y-119105714D01*
X188047619Y-119772380D02*
X188047619Y-118772380D01*
X188047619Y-119724761D02*
X187952380Y-119772380D01*
X187761904Y-119772380D01*
X187666666Y-119724761D01*
X187619047Y-119677142D01*
X187571428Y-119581904D01*
X187571428Y-119296190D01*
X187619047Y-119200952D01*
X187666666Y-119153333D01*
X187761904Y-119105714D01*
X187952380Y-119105714D01*
X188047619Y-119153333D01*
X154547619Y-121422380D02*
X154547619Y-120422380D01*
X154785714Y-120422380D01*
X154928571Y-120470000D01*
X155023809Y-120565238D01*
X155071428Y-120660476D01*
X155119047Y-120850952D01*
X155119047Y-120993809D01*
X155071428Y-121184285D01*
X155023809Y-121279523D01*
X154928571Y-121374761D01*
X154785714Y-121422380D01*
X154547619Y-121422380D01*
X155928571Y-121374761D02*
X155833333Y-121422380D01*
X155642857Y-121422380D01*
X155547619Y-121374761D01*
X155500000Y-121279523D01*
X155500000Y-120898571D01*
X155547619Y-120803333D01*
X155642857Y-120755714D01*
X155833333Y-120755714D01*
X155928571Y-120803333D01*
X155976190Y-120898571D01*
X155976190Y-120993809D01*
X155500000Y-121089047D01*
X156357142Y-121374761D02*
X156452380Y-121422380D01*
X156642857Y-121422380D01*
X156738095Y-121374761D01*
X156785714Y-121279523D01*
X156785714Y-121231904D01*
X156738095Y-121136666D01*
X156642857Y-121089047D01*
X156500000Y-121089047D01*
X156404761Y-121041428D01*
X156357142Y-120946190D01*
X156357142Y-120898571D01*
X156404761Y-120803333D01*
X156500000Y-120755714D01*
X156642857Y-120755714D01*
X156738095Y-120803333D01*
X157214285Y-121422380D02*
X157214285Y-120755714D01*
X157214285Y-120422380D02*
X157166666Y-120470000D01*
X157214285Y-120517619D01*
X157261904Y-120470000D01*
X157214285Y-120422380D01*
X157214285Y-120517619D01*
X158119047Y-120755714D02*
X158119047Y-121565238D01*
X158071428Y-121660476D01*
X158023809Y-121708095D01*
X157928571Y-121755714D01*
X157785714Y-121755714D01*
X157690476Y-121708095D01*
X158119047Y-121374761D02*
X158023809Y-121422380D01*
X157833333Y-121422380D01*
X157738095Y-121374761D01*
X157690476Y-121327142D01*
X157642857Y-121231904D01*
X157642857Y-120946190D01*
X157690476Y-120850952D01*
X157738095Y-120803333D01*
X157833333Y-120755714D01*
X158023809Y-120755714D01*
X158119047Y-120803333D01*
X158595238Y-120755714D02*
X158595238Y-121422380D01*
X158595238Y-120850952D02*
X158642857Y-120803333D01*
X158738095Y-120755714D01*
X158880952Y-120755714D01*
X158976190Y-120803333D01*
X159023809Y-120898571D01*
X159023809Y-121422380D01*
X159880952Y-121374761D02*
X159785714Y-121422380D01*
X159595238Y-121422380D01*
X159500000Y-121374761D01*
X159452380Y-121279523D01*
X159452380Y-120898571D01*
X159500000Y-120803333D01*
X159595238Y-120755714D01*
X159785714Y-120755714D01*
X159880952Y-120803333D01*
X159928571Y-120898571D01*
X159928571Y-120993809D01*
X159452380Y-121089047D01*
X160785714Y-121422380D02*
X160785714Y-120422380D01*
X160785714Y-121374761D02*
X160690476Y-121422380D01*
X160500000Y-121422380D01*
X160404761Y-121374761D01*
X160357142Y-121327142D01*
X160309523Y-121231904D01*
X160309523Y-120946190D01*
X160357142Y-120850952D01*
X160404761Y-120803333D01*
X160500000Y-120755714D01*
X160690476Y-120755714D01*
X160785714Y-120803333D01*
X162023809Y-121422380D02*
X162023809Y-120422380D01*
X162023809Y-120803333D02*
X162119047Y-120755714D01*
X162309523Y-120755714D01*
X162404761Y-120803333D01*
X162452380Y-120850952D01*
X162500000Y-120946190D01*
X162500000Y-121231904D01*
X162452380Y-121327142D01*
X162404761Y-121374761D01*
X162309523Y-121422380D01*
X162119047Y-121422380D01*
X162023809Y-121374761D01*
X162833333Y-120755714D02*
X163071428Y-121422380D01*
X163309523Y-120755714D02*
X163071428Y-121422380D01*
X162976190Y-121660476D01*
X162928571Y-121708095D01*
X162833333Y-121755714D01*
X163690476Y-121327142D02*
X163738095Y-121374761D01*
X163690476Y-121422380D01*
X163642857Y-121374761D01*
X163690476Y-121327142D01*
X163690476Y-121422380D01*
X163690476Y-120803333D02*
X163738095Y-120850952D01*
X163690476Y-120898571D01*
X163642857Y-120850952D01*
X163690476Y-120803333D01*
X163690476Y-120898571D01*
X165261904Y-120898571D02*
X165404761Y-120946190D01*
X165452380Y-120993809D01*
X165500000Y-121089047D01*
X165500000Y-121231904D01*
X165452380Y-121327142D01*
X165404761Y-121374761D01*
X165309523Y-121422380D01*
X164928571Y-121422380D01*
X164928571Y-120422380D01*
X165261904Y-120422380D01*
X165357142Y-120470000D01*
X165404761Y-120517619D01*
X165452380Y-120612857D01*
X165452380Y-120708095D01*
X165404761Y-120803333D01*
X165357142Y-120850952D01*
X165261904Y-120898571D01*
X164928571Y-120898571D01*
X166309523Y-121374761D02*
X166214285Y-121422380D01*
X166023809Y-121422380D01*
X165928571Y-121374761D01*
X165880952Y-121279523D01*
X165880952Y-120898571D01*
X165928571Y-120803333D01*
X166023809Y-120755714D01*
X166214285Y-120755714D01*
X166309523Y-120803333D01*
X166357142Y-120898571D01*
X166357142Y-120993809D01*
X165880952Y-121089047D01*
X166785714Y-120755714D02*
X166785714Y-121422380D01*
X166785714Y-120850952D02*
X166833333Y-120803333D01*
X166928571Y-120755714D01*
X167071428Y-120755714D01*
X167166666Y-120803333D01*
X167214285Y-120898571D01*
X167214285Y-121422380D01*
X167690476Y-120755714D02*
X167690476Y-121612857D01*
X167642857Y-121708095D01*
X167547619Y-121755714D01*
X167500000Y-121755714D01*
X167690476Y-120422380D02*
X167642857Y-120470000D01*
X167690476Y-120517619D01*
X167738095Y-120470000D01*
X167690476Y-120422380D01*
X167690476Y-120517619D01*
X168595238Y-121422380D02*
X168595238Y-120898571D01*
X168547619Y-120803333D01*
X168452380Y-120755714D01*
X168261904Y-120755714D01*
X168166666Y-120803333D01*
X168595238Y-121374761D02*
X168500000Y-121422380D01*
X168261904Y-121422380D01*
X168166666Y-121374761D01*
X168119047Y-121279523D01*
X168119047Y-121184285D01*
X168166666Y-121089047D01*
X168261904Y-121041428D01*
X168500000Y-121041428D01*
X168595238Y-120993809D01*
X169071428Y-121422380D02*
X169071428Y-120755714D01*
X169071428Y-120850952D02*
X169119047Y-120803333D01*
X169214285Y-120755714D01*
X169357142Y-120755714D01*
X169452380Y-120803333D01*
X169500000Y-120898571D01*
X169500000Y-121422380D01*
X169500000Y-120898571D02*
X169547619Y-120803333D01*
X169642857Y-120755714D01*
X169785714Y-120755714D01*
X169880952Y-120803333D01*
X169928571Y-120898571D01*
X169928571Y-121422380D01*
X170404761Y-121422380D02*
X170404761Y-120755714D01*
X170404761Y-120422380D02*
X170357142Y-120470000D01*
X170404761Y-120517619D01*
X170452380Y-120470000D01*
X170404761Y-120422380D01*
X170404761Y-120517619D01*
X170880952Y-120755714D02*
X170880952Y-121422380D01*
X170880952Y-120850952D02*
X170928571Y-120803333D01*
X171023809Y-120755714D01*
X171166666Y-120755714D01*
X171261904Y-120803333D01*
X171309523Y-120898571D01*
X171309523Y-121422380D01*
X172547619Y-120898571D02*
X172880952Y-120898571D01*
X173023809Y-121422380D02*
X172547619Y-121422380D01*
X172547619Y-120422380D01*
X173023809Y-120422380D01*
X173452380Y-121327142D02*
X173500000Y-121374761D01*
X173452380Y-121422380D01*
X173404761Y-121374761D01*
X173452380Y-121327142D01*
X173452380Y-121422380D01*
X174642857Y-121374761D02*
X174785714Y-121422380D01*
X175023809Y-121422380D01*
X175119047Y-121374761D01*
X175166666Y-121327142D01*
X175214285Y-121231904D01*
X175214285Y-121136666D01*
X175166666Y-121041428D01*
X175119047Y-120993809D01*
X175023809Y-120946190D01*
X174833333Y-120898571D01*
X174738095Y-120850952D01*
X174690476Y-120803333D01*
X174642857Y-120708095D01*
X174642857Y-120612857D01*
X174690476Y-120517619D01*
X174738095Y-120470000D01*
X174833333Y-120422380D01*
X175071428Y-120422380D01*
X175214285Y-120470000D01*
X175642857Y-121422380D02*
X175642857Y-120755714D01*
X175642857Y-120850952D02*
X175690476Y-120803333D01*
X175785714Y-120755714D01*
X175928571Y-120755714D01*
X176023809Y-120803333D01*
X176071428Y-120898571D01*
X176071428Y-121422380D01*
X176071428Y-120898571D02*
X176119047Y-120803333D01*
X176214285Y-120755714D01*
X176357142Y-120755714D01*
X176452380Y-120803333D01*
X176500000Y-120898571D01*
X176500000Y-121422380D01*
X176976190Y-121422380D02*
X176976190Y-120755714D01*
X176976190Y-120422380D02*
X176928571Y-120470000D01*
X176976190Y-120517619D01*
X177023809Y-120470000D01*
X176976190Y-120422380D01*
X176976190Y-120517619D01*
X177309523Y-120755714D02*
X177690476Y-120755714D01*
X177452380Y-120422380D02*
X177452380Y-121279523D01*
X177500000Y-121374761D01*
X177595238Y-121422380D01*
X177690476Y-121422380D01*
X178023809Y-121422380D02*
X178023809Y-120422380D01*
X178452380Y-121422380D02*
X178452380Y-120898571D01*
X178404761Y-120803333D01*
X178309523Y-120755714D01*
X178166666Y-120755714D01*
X178071428Y-120803333D01*
X178023809Y-120850952D01*
X152761904Y-122548571D02*
X152428571Y-122548571D01*
X152428571Y-123072380D02*
X152428571Y-122072380D01*
X152904761Y-122072380D01*
X153714285Y-122405714D02*
X153714285Y-123072380D01*
X153285714Y-122405714D02*
X153285714Y-122929523D01*
X153333333Y-123024761D01*
X153428571Y-123072380D01*
X153571428Y-123072380D01*
X153666666Y-123024761D01*
X153714285Y-122977142D01*
X154190476Y-122405714D02*
X154190476Y-123072380D01*
X154190476Y-122500952D02*
X154238095Y-122453333D01*
X154333333Y-122405714D01*
X154476190Y-122405714D01*
X154571428Y-122453333D01*
X154619047Y-122548571D01*
X154619047Y-123072380D01*
X155523809Y-123072380D02*
X155523809Y-122072380D01*
X155523809Y-123024761D02*
X155428571Y-123072380D01*
X155238095Y-123072380D01*
X155142857Y-123024761D01*
X155095238Y-122977142D01*
X155047619Y-122881904D01*
X155047619Y-122596190D01*
X155095238Y-122500952D01*
X155142857Y-122453333D01*
X155238095Y-122405714D01*
X155428571Y-122405714D01*
X155523809Y-122453333D01*
X156380952Y-123024761D02*
X156285714Y-123072380D01*
X156095238Y-123072380D01*
X156000000Y-123024761D01*
X155952380Y-122929523D01*
X155952380Y-122548571D01*
X156000000Y-122453333D01*
X156095238Y-122405714D01*
X156285714Y-122405714D01*
X156380952Y-122453333D01*
X156428571Y-122548571D01*
X156428571Y-122643809D01*
X155952380Y-122739047D01*
X157285714Y-123072380D02*
X157285714Y-122072380D01*
X157285714Y-123024761D02*
X157190476Y-123072380D01*
X157000000Y-123072380D01*
X156904761Y-123024761D01*
X156857142Y-122977142D01*
X156809523Y-122881904D01*
X156809523Y-122596190D01*
X156857142Y-122500952D01*
X156904761Y-122453333D01*
X157000000Y-122405714D01*
X157190476Y-122405714D01*
X157285714Y-122453333D01*
X158523809Y-123072380D02*
X158523809Y-122405714D01*
X158523809Y-122072380D02*
X158476190Y-122120000D01*
X158523809Y-122167619D01*
X158571428Y-122120000D01*
X158523809Y-122072380D01*
X158523809Y-122167619D01*
X159000000Y-122405714D02*
X159000000Y-123072380D01*
X159000000Y-122500952D02*
X159047619Y-122453333D01*
X159142857Y-122405714D01*
X159285714Y-122405714D01*
X159380952Y-122453333D01*
X159428571Y-122548571D01*
X159428571Y-123072380D01*
X160666666Y-122405714D02*
X160666666Y-123405714D01*
X160666666Y-122453333D02*
X160761904Y-122405714D01*
X160952380Y-122405714D01*
X161047619Y-122453333D01*
X161095238Y-122500952D01*
X161142857Y-122596190D01*
X161142857Y-122881904D01*
X161095238Y-122977142D01*
X161047619Y-123024761D01*
X160952380Y-123072380D01*
X160761904Y-123072380D01*
X160666666Y-123024761D01*
X162000000Y-123072380D02*
X162000000Y-122548571D01*
X161952380Y-122453333D01*
X161857142Y-122405714D01*
X161666666Y-122405714D01*
X161571428Y-122453333D01*
X162000000Y-123024761D02*
X161904761Y-123072380D01*
X161666666Y-123072380D01*
X161571428Y-123024761D01*
X161523809Y-122929523D01*
X161523809Y-122834285D01*
X161571428Y-122739047D01*
X161666666Y-122691428D01*
X161904761Y-122691428D01*
X162000000Y-122643809D01*
X162476190Y-123072380D02*
X162476190Y-122405714D01*
X162476190Y-122596190D02*
X162523809Y-122500952D01*
X162571428Y-122453333D01*
X162666666Y-122405714D01*
X162761904Y-122405714D01*
X162952380Y-122405714D02*
X163333333Y-122405714D01*
X163095238Y-122072380D02*
X163095238Y-122929523D01*
X163142857Y-123024761D01*
X163238095Y-123072380D01*
X163333333Y-123072380D01*
X164428571Y-123072380D02*
X164428571Y-122072380D01*
X164428571Y-122453333D02*
X164523809Y-122405714D01*
X164714285Y-122405714D01*
X164809523Y-122453333D01*
X164857142Y-122500952D01*
X164904761Y-122596190D01*
X164904761Y-122881904D01*
X164857142Y-122977142D01*
X164809523Y-123024761D01*
X164714285Y-123072380D01*
X164523809Y-123072380D01*
X164428571Y-123024761D01*
X165238095Y-122405714D02*
X165476190Y-123072380D01*
X165714285Y-122405714D02*
X165476190Y-123072380D01*
X165380952Y-123310476D01*
X165333333Y-123358095D01*
X165238095Y-123405714D01*
X166095238Y-122977142D02*
X166142857Y-123024761D01*
X166095238Y-123072380D01*
X166047619Y-123024761D01*
X166095238Y-122977142D01*
X166095238Y-123072380D01*
X166095238Y-122453333D02*
X166142857Y-122500952D01*
X166095238Y-122548571D01*
X166047619Y-122500952D01*
X166095238Y-122453333D01*
X166095238Y-122548571D01*
X167333333Y-123072380D02*
X167333333Y-122072380D01*
X167904761Y-123072380D01*
X167904761Y-122072380D01*
X168380952Y-123072380D02*
X168380952Y-122072380D01*
X168857142Y-123072380D02*
X168857142Y-122072380D01*
X168857142Y-122548571D02*
X169428571Y-122548571D01*
X169428571Y-123072380D02*
X169428571Y-122072380D01*
X170666666Y-123072380D02*
X170666666Y-122072380D01*
X171047619Y-122072380D01*
X171142857Y-122120000D01*
X171190476Y-122167619D01*
X171238095Y-122262857D01*
X171238095Y-122405714D01*
X171190476Y-122500952D01*
X171142857Y-122548571D01*
X171047619Y-122596190D01*
X170666666Y-122596190D01*
X171571428Y-122072380D02*
X172190476Y-122072380D01*
X171857142Y-122453333D01*
X171999999Y-122453333D01*
X172095238Y-122500952D01*
X172142857Y-122548571D01*
X172190476Y-122643809D01*
X172190476Y-122881904D01*
X172142857Y-122977142D01*
X172095238Y-123024761D01*
X171999999Y-123072380D01*
X171714285Y-123072380D01*
X171619047Y-123024761D01*
X171571428Y-122977142D01*
X172809523Y-122072380D02*
X172904761Y-122072380D01*
X172999999Y-122120000D01*
X173047619Y-122167619D01*
X173095238Y-122262857D01*
X173142857Y-122453333D01*
X173142857Y-122691428D01*
X173095238Y-122881904D01*
X173047619Y-122977142D01*
X172999999Y-123024761D01*
X172904761Y-123072380D01*
X172809523Y-123072380D01*
X172714285Y-123024761D01*
X172666666Y-122977142D01*
X172619047Y-122881904D01*
X172571428Y-122691428D01*
X172571428Y-122453333D01*
X172619047Y-122262857D01*
X172666666Y-122167619D01*
X172714285Y-122120000D01*
X172809523Y-122072380D01*
X173571428Y-122548571D02*
X173904761Y-122548571D01*
X174047619Y-123072380D02*
X173571428Y-123072380D01*
X173571428Y-122072380D01*
X174047619Y-122072380D01*
X174666666Y-122596190D02*
X174666666Y-123072380D01*
X174333333Y-122072380D02*
X174666666Y-122596190D01*
X174999999Y-122072380D01*
X175523809Y-122072380D02*
X175619047Y-122072380D01*
X175714285Y-122120000D01*
X175761904Y-122167619D01*
X175809523Y-122262857D01*
X175857142Y-122453333D01*
X175857142Y-122691428D01*
X175809523Y-122881904D01*
X175761904Y-122977142D01*
X175714285Y-123024761D01*
X175619047Y-123072380D01*
X175523809Y-123072380D01*
X175428571Y-123024761D01*
X175380952Y-122977142D01*
X175333333Y-122881904D01*
X175285714Y-122691428D01*
X175285714Y-122453333D01*
X175333333Y-122262857D01*
X175380952Y-122167619D01*
X175428571Y-122120000D01*
X175523809Y-122072380D01*
X176476190Y-122072380D02*
X176571428Y-122072380D01*
X176666666Y-122120000D01*
X176714285Y-122167619D01*
X176761904Y-122262857D01*
X176809523Y-122453333D01*
X176809523Y-122691428D01*
X176761904Y-122881904D01*
X176714285Y-122977142D01*
X176666666Y-123024761D01*
X176571428Y-123072380D01*
X176476190Y-123072380D01*
X176380952Y-123024761D01*
X176333333Y-122977142D01*
X176285714Y-122881904D01*
X176238095Y-122691428D01*
X176238095Y-122453333D01*
X176285714Y-122262857D01*
X176333333Y-122167619D01*
X176380952Y-122120000D01*
X176476190Y-122072380D01*
X177142857Y-122072380D02*
X177761904Y-122072380D01*
X177428571Y-122453333D01*
X177571428Y-122453333D01*
X177666666Y-122500952D01*
X177714285Y-122548571D01*
X177761904Y-122643809D01*
X177761904Y-122881904D01*
X177714285Y-122977142D01*
X177666666Y-123024761D01*
X177571428Y-123072380D01*
X177285714Y-123072380D01*
X177190476Y-123024761D01*
X177142857Y-122977142D01*
X178714285Y-123072380D02*
X178142857Y-123072380D01*
X178428571Y-123072380D02*
X178428571Y-122072380D01*
X178333333Y-122215238D01*
X178238095Y-122310476D01*
X178142857Y-122358095D01*
X179047619Y-122072380D02*
X179714285Y-122072380D01*
X179285714Y-123072380D01*
X180523809Y-122072380D02*
X180333333Y-122072380D01*
X180238095Y-122120000D01*
X180190476Y-122167619D01*
X180095238Y-122310476D01*
X180047619Y-122500952D01*
X180047619Y-122881904D01*
X180095238Y-122977142D01*
X180142857Y-123024761D01*
X180238095Y-123072380D01*
X180428571Y-123072380D01*
X180523809Y-123024761D01*
X180571428Y-122977142D01*
X180619047Y-122881904D01*
X180619047Y-122643809D01*
X180571428Y-122548571D01*
X180523809Y-122500952D01*
X180428571Y-122453333D01*
X180238095Y-122453333D01*
X180142857Y-122500952D01*
X180095238Y-122548571D01*
X180047619Y-122643809D01*
D10*
X115987142Y-110184761D02*
X115034761Y-110184761D01*
X114939523Y-111137142D01*
X115034761Y-111041904D01*
X115225238Y-110946666D01*
X115701428Y-110946666D01*
X115891904Y-111041904D01*
X115987142Y-111137142D01*
X116082380Y-111327619D01*
X116082380Y-111803809D01*
X115987142Y-111994285D01*
X115891904Y-112089523D01*
X115701428Y-112184761D01*
X115225238Y-112184761D01*
X115034761Y-112089523D01*
X114939523Y-111994285D01*
X116653809Y-110184761D02*
X117320476Y-112184761D01*
X117987142Y-110184761D01*
X120177619Y-112184761D02*
X120177619Y-110184761D01*
X120653809Y-110184761D01*
X120939523Y-110280000D01*
X121130000Y-110470476D01*
X121225238Y-110660952D01*
X121320476Y-111041904D01*
X121320476Y-111327619D01*
X121225238Y-111708571D01*
X121130000Y-111899047D01*
X120939523Y-112089523D01*
X120653809Y-112184761D01*
X120177619Y-112184761D01*
X123320476Y-111994285D02*
X123225238Y-112089523D01*
X122939523Y-112184761D01*
X122749047Y-112184761D01*
X122463333Y-112089523D01*
X122272857Y-111899047D01*
X122177619Y-111708571D01*
X122082380Y-111327619D01*
X122082380Y-111041904D01*
X122177619Y-110660952D01*
X122272857Y-110470476D01*
X122463333Y-110280000D01*
X122749047Y-110184761D01*
X122939523Y-110184761D01*
X123225238Y-110280000D01*
X123320476Y-110375238D01*
D12*
X195610000Y-77180000D02*
X195610000Y-75180000D01*
X198410000Y-77180000D02*
X195610000Y-77180000D01*
X198410000Y-75180000D02*
X198410000Y-77180000D01*
X195610000Y-75180000D02*
X198410000Y-75180000D01*
X104400000Y-75210000D02*
X104400000Y-77210000D01*
X101600000Y-75210000D02*
X104400000Y-75210000D01*
X101600000Y-77210000D02*
X101600000Y-75210000D01*
X104400000Y-77210000D02*
X101600000Y-77210000D01*
X195600000Y-128000000D02*
X195600000Y-126000000D01*
X198400000Y-128000000D02*
X195600000Y-128000000D01*
X198400000Y-126000000D02*
X198400000Y-128000000D01*
X195600000Y-126000000D02*
X198400000Y-126000000D01*
X104400000Y-126000000D02*
X104400000Y-128000000D01*
X101600000Y-126000000D02*
X104400000Y-126000000D01*
X101600000Y-128000000D02*
X101600000Y-126000000D01*
X104400000Y-128000000D02*
X101600000Y-128000000D01*
X138942657Y-139531000D02*
X143715859Y-139531000D01*
X164063257Y-139531000D02*
X165587000Y-139531000D01*
X143715859Y-139531000D02*
X141406200Y-139531000D01*
X156261340Y-139531000D02*
X161040143Y-139531000D01*
X158576600Y-145627000D02*
X158576600Y-139531000D01*
X141406200Y-145627000D02*
X158576600Y-145627000D01*
X141406200Y-139531000D02*
X141406200Y-145627000D01*
X158576600Y-139531000D02*
X156261340Y-139531000D01*
X165587000Y-139531000D02*
X165587000Y-135619400D01*
X134395800Y-139531000D02*
X135919543Y-139531000D01*
X134395800Y-135619400D02*
X134395800Y-139531000D01*
X155112065Y-139962329D02*
X155531400Y-140801000D01*
X155950904Y-139961992D02*
X155531400Y-140801000D01*
X194330000Y-109270279D02*
X194330000Y-108944721D01*
X195350000Y-109270279D02*
X195350000Y-108944721D01*
X177050000Y-101690279D02*
X177050000Y-101364721D01*
X178070000Y-101690279D02*
X178070000Y-101364721D01*
X139635540Y-123084900D02*
X139929200Y-123084900D01*
X130164462Y-118335100D02*
X129870800Y-118335100D01*
X139929200Y-118335100D02*
X139635540Y-118335100D01*
X139929200Y-123084900D02*
X139929200Y-118335100D01*
X129870800Y-123084900D02*
X130164460Y-123084900D01*
X129870800Y-118335100D02*
X129870800Y-123084900D01*
X184591200Y-101655553D02*
X184591200Y-101040200D01*
X184591200Y-103185553D02*
X184591200Y-102794448D01*
X184591200Y-104715552D02*
X184591200Y-104324448D01*
X184591200Y-106245552D02*
X184591200Y-105854447D01*
X180628800Y-107384447D02*
X180628800Y-107999800D01*
X180628800Y-105854447D02*
X180628800Y-106245552D01*
X180628800Y-104324448D02*
X180628800Y-104715552D01*
X180628800Y-102794448D02*
X180628800Y-103185553D01*
X180628800Y-101040200D02*
X180628800Y-101655553D01*
X184591200Y-101040200D02*
X180628800Y-101040200D01*
X184591200Y-107999800D02*
X184591200Y-107384447D01*
X180628800Y-107999800D02*
X184591200Y-107999800D01*
D13*
X162740000Y-89452000D02*
X162740000Y-83088000D01*
X100880000Y-83088000D02*
X100880000Y-89452000D01*
X162740000Y-83088000D02*
X100880000Y-83088000D01*
X100880000Y-89452000D02*
X162740000Y-89452000D01*
D11*
X161060000Y-93870000D02*
X162330000Y-93870000D01*
X100100000Y-97680000D02*
X100100000Y-90060000D01*
X161060000Y-97680000D02*
X162330000Y-97680000D01*
X161060000Y-96410000D02*
X162330000Y-96410000D01*
X162330000Y-84980000D02*
X162330000Y-98300000D01*
X161060000Y-92600000D02*
X162330000Y-92600000D01*
X161060000Y-91330000D02*
X162330000Y-91330000D01*
X161060000Y-90060000D02*
X162330000Y-90060000D01*
X161060000Y-95140000D02*
X162330000Y-95140000D01*
X161060000Y-88790000D02*
X162330000Y-87520000D01*
X161060000Y-88790000D02*
X162330000Y-88790000D01*
D13*
X162740000Y-98328000D02*
X100880000Y-98328000D01*
X162740000Y-100620000D02*
X162740000Y-98328000D01*
X100880000Y-104692000D02*
X160780000Y-104680000D01*
X100880000Y-98328000D02*
X100880000Y-104692000D01*
D12*
X161060000Y-88760000D02*
X161060000Y-98330000D01*
X141529800Y-105040000D02*
X140529800Y-105040000D01*
X141529800Y-109230000D02*
X141529800Y-105040000D01*
X140542800Y-109235500D02*
X141529800Y-109230000D01*
X135716800Y-109235500D02*
X140542800Y-109235500D01*
X140542800Y-105044500D02*
X135716800Y-105044500D01*
D14*
X191270000Y-106700000D02*
X191270000Y-108100000D01*
X194070000Y-108100000D02*
X194070000Y-106700000D01*
X174050000Y-100650000D02*
X174050000Y-102050000D01*
X176850000Y-102050000D02*
X176850000Y-100650000D01*
D12*
X151020000Y-78160000D02*
X151020000Y-80260000D01*
X145680000Y-78160000D02*
X145680000Y-80260000D01*
D15*
G36*
X157189744Y-128769918D02*
G01*
X157245201Y-128797568D01*
X157294148Y-128848480D01*
X157307629Y-128867338D01*
X157322314Y-128892015D01*
X157331842Y-128918816D01*
X157337293Y-128954587D01*
X157339747Y-129006169D01*
X157340286Y-129074267D01*
X157337852Y-129167588D01*
X157329394Y-129237657D01*
X157313174Y-129289931D01*
X157287454Y-129329869D01*
X157250497Y-129362929D01*
X157247782Y-129364886D01*
X157211360Y-129384908D01*
X157167502Y-129394815D01*
X157111724Y-129397257D01*
X157021048Y-129397257D01*
X157021010Y-129485283D01*
X157020166Y-129534308D01*
X157015024Y-129563065D01*
X157001587Y-129580311D01*
X156975858Y-129594808D01*
X156969679Y-129597769D01*
X156940764Y-129611648D01*
X156918376Y-129620414D01*
X156901729Y-129621171D01*
X156890036Y-129611023D01*
X156882510Y-129587073D01*
X156878366Y-129546426D01*
X156876815Y-129486186D01*
X156877071Y-129403455D01*
X156878349Y-129295339D01*
X156878748Y-129263000D01*
X156880185Y-129151524D01*
X156881472Y-129078603D01*
X157020971Y-129078603D01*
X157021755Y-129140499D01*
X157025240Y-129180997D01*
X157033124Y-129207708D01*
X157047105Y-129228244D01*
X157056597Y-129238260D01*
X157095404Y-129267567D01*
X157129763Y-129269952D01*
X157165216Y-129245750D01*
X157166114Y-129244857D01*
X157180539Y-129226153D01*
X157189313Y-129200732D01*
X157193739Y-129161584D01*
X157195118Y-129101697D01*
X157195143Y-129088430D01*
X157191812Y-129005901D01*
X157180969Y-128948691D01*
X157161340Y-128913766D01*
X157131650Y-128898094D01*
X157114491Y-128896514D01*
X157073766Y-128903926D01*
X157045832Y-128928330D01*
X157029017Y-128972980D01*
X157021650Y-129041130D01*
X157020971Y-129078603D01*
X156881472Y-129078603D01*
X156881708Y-129065245D01*
X156883677Y-129000333D01*
X156886450Y-128952958D01*
X156890388Y-128919290D01*
X156895849Y-128895498D01*
X156903192Y-128877753D01*
X156912777Y-128862224D01*
X156916887Y-128856381D01*
X156971405Y-128801185D01*
X157040336Y-128769890D01*
X157120072Y-128761165D01*
X157189744Y-128769918D01*
G37*
X157189744Y-128769918D02*
X157245201Y-128797568D01*
X157294148Y-128848480D01*
X157307629Y-128867338D01*
X157322314Y-128892015D01*
X157331842Y-128918816D01*
X157337293Y-128954587D01*
X157339747Y-129006169D01*
X157340286Y-129074267D01*
X157337852Y-129167588D01*
X157329394Y-129237657D01*
X157313174Y-129289931D01*
X157287454Y-129329869D01*
X157250497Y-129362929D01*
X157247782Y-129364886D01*
X157211360Y-129384908D01*
X157167502Y-129394815D01*
X157111724Y-129397257D01*
X157021048Y-129397257D01*
X157021010Y-129485283D01*
X157020166Y-129534308D01*
X157015024Y-129563065D01*
X157001587Y-129580311D01*
X156975858Y-129594808D01*
X156969679Y-129597769D01*
X156940764Y-129611648D01*
X156918376Y-129620414D01*
X156901729Y-129621171D01*
X156890036Y-129611023D01*
X156882510Y-129587073D01*
X156878366Y-129546426D01*
X156876815Y-129486186D01*
X156877071Y-129403455D01*
X156878349Y-129295339D01*
X156878748Y-129263000D01*
X156880185Y-129151524D01*
X156881472Y-129078603D01*
X157020971Y-129078603D01*
X157021755Y-129140499D01*
X157025240Y-129180997D01*
X157033124Y-129207708D01*
X157047105Y-129228244D01*
X157056597Y-129238260D01*
X157095404Y-129267567D01*
X157129763Y-129269952D01*
X157165216Y-129245750D01*
X157166114Y-129244857D01*
X157180539Y-129226153D01*
X157189313Y-129200732D01*
X157193739Y-129161584D01*
X157195118Y-129101697D01*
X157195143Y-129088430D01*
X157191812Y-129005901D01*
X157180969Y-128948691D01*
X157161340Y-128913766D01*
X157131650Y-128898094D01*
X157114491Y-128896514D01*
X157073766Y-128903926D01*
X157045832Y-128928330D01*
X157029017Y-128972980D01*
X157021650Y-129041130D01*
X157020971Y-129078603D01*
X156881472Y-129078603D01*
X156881708Y-129065245D01*
X156883677Y-129000333D01*
X156886450Y-128952958D01*
X156890388Y-128919290D01*
X156895849Y-128895498D01*
X156903192Y-128877753D01*
X156912777Y-128862224D01*
X156916887Y-128856381D01*
X156971405Y-128801185D01*
X157040336Y-128769890D01*
X157120072Y-128761165D01*
X157189744Y-128769918D01*
G36*
X158306093Y-128777780D02*
G01*
X158352672Y-128804723D01*
X158385057Y-128831466D01*
X158408742Y-128859484D01*
X158425059Y-128893748D01*
X158435339Y-128939227D01*
X158440914Y-129000892D01*
X158443116Y-129083711D01*
X158443371Y-129143246D01*
X158443371Y-129362391D01*
X158381686Y-129390044D01*
X158320000Y-129417697D01*
X158312743Y-129177670D01*
X158309744Y-129088028D01*
X158306598Y-129022962D01*
X158302701Y-128978026D01*
X158297447Y-128948770D01*
X158290231Y-128930748D01*
X158280450Y-128919511D01*
X158277312Y-128917079D01*
X158229761Y-128898083D01*
X158181697Y-128905600D01*
X158153086Y-128925543D01*
X158141447Y-128939675D01*
X158133391Y-128958220D01*
X158128271Y-128986334D01*
X158125441Y-129029173D01*
X158124256Y-129091895D01*
X158124057Y-129157261D01*
X158124018Y-129239268D01*
X158122614Y-129297316D01*
X158117914Y-129336465D01*
X158107987Y-129361780D01*
X158090903Y-129378323D01*
X158064732Y-129391156D01*
X158029775Y-129404491D01*
X157991596Y-129419007D01*
X157996141Y-129161389D01*
X157997971Y-129068519D01*
X158000112Y-128999889D01*
X158003181Y-128950711D01*
X158007794Y-128916198D01*
X158014568Y-128891562D01*
X158024119Y-128872016D01*
X158035634Y-128854770D01*
X158091190Y-128799680D01*
X158158980Y-128767822D01*
X158232713Y-128760191D01*
X158306093Y-128777780D01*
G37*
X158306093Y-128777780D02*
X158352672Y-128804723D01*
X158385057Y-128831466D01*
X158408742Y-128859484D01*
X158425059Y-128893748D01*
X158435339Y-128939227D01*
X158440914Y-129000892D01*
X158443116Y-129083711D01*
X158443371Y-129143246D01*
X158443371Y-129362391D01*
X158381686Y-129390044D01*
X158320000Y-129417697D01*
X158312743Y-129177670D01*
X158309744Y-129088028D01*
X158306598Y-129022962D01*
X158302701Y-128978026D01*
X158297447Y-128948770D01*
X158290231Y-128930748D01*
X158280450Y-128919511D01*
X158277312Y-128917079D01*
X158229761Y-128898083D01*
X158181697Y-128905600D01*
X158153086Y-128925543D01*
X158141447Y-128939675D01*
X158133391Y-128958220D01*
X158128271Y-128986334D01*
X158125441Y-129029173D01*
X158124256Y-129091895D01*
X158124057Y-129157261D01*
X158124018Y-129239268D01*
X158122614Y-129297316D01*
X158117914Y-129336465D01*
X158107987Y-129361780D01*
X158090903Y-129378323D01*
X158064732Y-129391156D01*
X158029775Y-129404491D01*
X157991596Y-129419007D01*
X157996141Y-129161389D01*
X157997971Y-129068519D01*
X158000112Y-128999889D01*
X158003181Y-128950711D01*
X158007794Y-128916198D01*
X158014568Y-128891562D01*
X158024119Y-128872016D01*
X158035634Y-128854770D01*
X158091190Y-128799680D01*
X158158980Y-128767822D01*
X158232713Y-128760191D01*
X158306093Y-128777780D01*
G36*
X156631115Y-128771962D02*
G01*
X156699145Y-128807733D01*
X156749351Y-128865301D01*
X156767185Y-128902312D01*
X156781063Y-128957882D01*
X156788167Y-129028096D01*
X156788840Y-129104727D01*
X156783427Y-129179552D01*
X156772270Y-129244342D01*
X156755714Y-129290873D01*
X156750626Y-129298887D01*
X156690355Y-129358707D01*
X156618769Y-129394535D01*
X156541092Y-129405020D01*
X156462548Y-129388810D01*
X156440689Y-129379092D01*
X156398122Y-129349143D01*
X156360763Y-129309433D01*
X156357232Y-129304397D01*
X156342881Y-129280124D01*
X156333394Y-129254178D01*
X156327790Y-129220022D01*
X156325086Y-129171119D01*
X156324299Y-129100935D01*
X156324286Y-129085200D01*
X156324322Y-129080192D01*
X156469429Y-129080192D01*
X156470273Y-129146430D01*
X156473596Y-129190386D01*
X156480583Y-129218779D01*
X156492416Y-129238325D01*
X156498457Y-129244857D01*
X156533186Y-129269680D01*
X156566903Y-129268548D01*
X156600995Y-129247016D01*
X156621329Y-129224029D01*
X156633371Y-129190478D01*
X156640134Y-129137569D01*
X156640598Y-129131399D01*
X156641752Y-129035513D01*
X156629688Y-128964299D01*
X156604570Y-128918194D01*
X156566560Y-128897635D01*
X156552992Y-128896514D01*
X156517364Y-128902152D01*
X156492994Y-128921686D01*
X156478093Y-128959042D01*
X156470875Y-129018150D01*
X156469429Y-129080192D01*
X156324322Y-129080192D01*
X156324826Y-129010413D01*
X156327096Y-128958159D01*
X156332068Y-128921949D01*
X156340713Y-128895299D01*
X156354005Y-128871722D01*
X156356943Y-128867338D01*
X156406313Y-128808249D01*
X156460109Y-128773947D01*
X156525602Y-128760331D01*
X156547842Y-128759665D01*
X156631115Y-128771962D01*
G37*
X156631115Y-128771962D02*
X156699145Y-128807733D01*
X156749351Y-128865301D01*
X156767185Y-128902312D01*
X156781063Y-128957882D01*
X156788167Y-129028096D01*
X156788840Y-129104727D01*
X156783427Y-129179552D01*
X156772270Y-129244342D01*
X156755714Y-129290873D01*
X156750626Y-129298887D01*
X156690355Y-129358707D01*
X156618769Y-129394535D01*
X156541092Y-129405020D01*
X156462548Y-129388810D01*
X156440689Y-129379092D01*
X156398122Y-129349143D01*
X156360763Y-129309433D01*
X156357232Y-129304397D01*
X156342881Y-129280124D01*
X156333394Y-129254178D01*
X156327790Y-129220022D01*
X156325086Y-129171119D01*
X156324299Y-129100935D01*
X156324286Y-129085200D01*
X156324322Y-129080192D01*
X156469429Y-129080192D01*
X156470273Y-129146430D01*
X156473596Y-129190386D01*
X156480583Y-129218779D01*
X156492416Y-129238325D01*
X156498457Y-129244857D01*
X156533186Y-129269680D01*
X156566903Y-129268548D01*
X156600995Y-129247016D01*
X156621329Y-129224029D01*
X156633371Y-129190478D01*
X156640134Y-129137569D01*
X156640598Y-129131399D01*
X156641752Y-129035513D01*
X156629688Y-128964299D01*
X156604570Y-128918194D01*
X156566560Y-128897635D01*
X156552992Y-128896514D01*
X156517364Y-128902152D01*
X156492994Y-128921686D01*
X156478093Y-128959042D01*
X156470875Y-129018150D01*
X156469429Y-129080192D01*
X156324322Y-129080192D01*
X156324826Y-129010413D01*
X156327096Y-128958159D01*
X156332068Y-128921949D01*
X156340713Y-128895299D01*
X156354005Y-128871722D01*
X156356943Y-128867338D01*
X156406313Y-128808249D01*
X156460109Y-128773947D01*
X156525602Y-128760331D01*
X156547842Y-128759665D01*
X156631115Y-128771962D01*
G36*
X157758303Y-128781239D02*
G01*
X157815527Y-128819735D01*
X157859749Y-128875335D01*
X157886167Y-128946086D01*
X157891510Y-128998162D01*
X157890903Y-129019893D01*
X157885822Y-129036531D01*
X157871855Y-129051437D01*
X157844589Y-129067973D01*
X157799612Y-129089498D01*
X157732511Y-129119374D01*
X157732171Y-129119524D01*
X157670407Y-129147813D01*
X157619759Y-129172933D01*
X157585404Y-129192179D01*
X157572518Y-129202848D01*
X157572514Y-129202934D01*
X157583872Y-129226166D01*
X157610431Y-129251774D01*
X157640923Y-129270221D01*
X157656370Y-129273886D01*
X157698515Y-129261212D01*
X157734808Y-129229471D01*
X157752517Y-129194572D01*
X157769552Y-129168845D01*
X157802922Y-129139546D01*
X157842149Y-129114235D01*
X157876756Y-129100471D01*
X157883993Y-129099714D01*
X157892139Y-129112160D01*
X157892630Y-129143972D01*
X157886643Y-129186866D01*
X157875357Y-129232558D01*
X157859950Y-129272761D01*
X157859171Y-129274322D01*
X157812804Y-129339062D01*
X157752711Y-129383097D01*
X157684465Y-129404711D01*
X157613638Y-129402185D01*
X157545804Y-129373804D01*
X157542788Y-129371808D01*
X157489427Y-129323448D01*
X157454340Y-129260352D01*
X157434922Y-129177387D01*
X157432316Y-129154078D01*
X157427701Y-129044055D01*
X157433233Y-128992748D01*
X157572514Y-128992748D01*
X157574324Y-129024753D01*
X157584222Y-129034093D01*
X157608898Y-129027105D01*
X157647795Y-129010587D01*
X157691275Y-128989881D01*
X157692356Y-128989333D01*
X157729209Y-128969949D01*
X157744000Y-128957013D01*
X157740353Y-128943451D01*
X157724995Y-128925632D01*
X157685923Y-128899845D01*
X157643846Y-128897950D01*
X157606103Y-128916717D01*
X157580034Y-128952915D01*
X157572514Y-128992748D01*
X157433233Y-128992748D01*
X157437194Y-128956027D01*
X157461550Y-128886212D01*
X157495456Y-128837302D01*
X157556653Y-128787878D01*
X157624063Y-128763359D01*
X157692880Y-128761797D01*
X157758303Y-128781239D01*
G37*
X157758303Y-128781239D02*
X157815527Y-128819735D01*
X157859749Y-128875335D01*
X157886167Y-128946086D01*
X157891510Y-128998162D01*
X157890903Y-129019893D01*
X157885822Y-129036531D01*
X157871855Y-129051437D01*
X157844589Y-129067973D01*
X157799612Y-129089498D01*
X157732511Y-129119374D01*
X157732171Y-129119524D01*
X157670407Y-129147813D01*
X157619759Y-129172933D01*
X157585404Y-129192179D01*
X157572518Y-129202848D01*
X157572514Y-129202934D01*
X157583872Y-129226166D01*
X157610431Y-129251774D01*
X157640923Y-129270221D01*
X157656370Y-129273886D01*
X157698515Y-129261212D01*
X157734808Y-129229471D01*
X157752517Y-129194572D01*
X157769552Y-129168845D01*
X157802922Y-129139546D01*
X157842149Y-129114235D01*
X157876756Y-129100471D01*
X157883993Y-129099714D01*
X157892139Y-129112160D01*
X157892630Y-129143972D01*
X157886643Y-129186866D01*
X157875357Y-129232558D01*
X157859950Y-129272761D01*
X157859171Y-129274322D01*
X157812804Y-129339062D01*
X157752711Y-129383097D01*
X157684465Y-129404711D01*
X157613638Y-129402185D01*
X157545804Y-129373804D01*
X157542788Y-129371808D01*
X157489427Y-129323448D01*
X157454340Y-129260352D01*
X157434922Y-129177387D01*
X157432316Y-129154078D01*
X157427701Y-129044055D01*
X157433233Y-128992748D01*
X157572514Y-128992748D01*
X157574324Y-129024753D01*
X157584222Y-129034093D01*
X157608898Y-129027105D01*
X157647795Y-129010587D01*
X157691275Y-128989881D01*
X157692356Y-128989333D01*
X157729209Y-128969949D01*
X157744000Y-128957013D01*
X157740353Y-128943451D01*
X157724995Y-128925632D01*
X157685923Y-128899845D01*
X157643846Y-128897950D01*
X157606103Y-128916717D01*
X157580034Y-128952915D01*
X157572514Y-128992748D01*
X157433233Y-128992748D01*
X157437194Y-128956027D01*
X157461550Y-128886212D01*
X157495456Y-128837302D01*
X157556653Y-128787878D01*
X157624063Y-128763359D01*
X157692880Y-128761797D01*
X157758303Y-128781239D01*
G36*
X158965886Y-128701289D02*
G01*
X158970139Y-128760613D01*
X158975025Y-128795572D01*
X158981795Y-128810820D01*
X158991702Y-128811015D01*
X158994914Y-128809195D01*
X159037644Y-128796015D01*
X159093227Y-128796785D01*
X159149737Y-128810333D01*
X159185082Y-128827861D01*
X159221321Y-128855861D01*
X159247813Y-128887549D01*
X159265999Y-128927813D01*
X159277322Y-128981543D01*
X159283222Y-129053626D01*
X159285143Y-129148951D01*
X159285177Y-129167237D01*
X159285200Y-129372646D01*
X159239491Y-129388580D01*
X159207027Y-129399420D01*
X159189215Y-129404468D01*
X159188691Y-129404514D01*
X159186937Y-129390828D01*
X159185444Y-129353076D01*
X159184326Y-129296224D01*
X159183697Y-129225234D01*
X159183600Y-129182073D01*
X159183398Y-129096973D01*
X159182358Y-129035981D01*
X159179831Y-128994177D01*
X159175164Y-128966642D01*
X159167707Y-128948456D01*
X159156811Y-128934698D01*
X159150007Y-128928073D01*
X159103272Y-128901375D01*
X159052272Y-128899375D01*
X159006001Y-128921955D01*
X158997444Y-128930107D01*
X158984893Y-128945436D01*
X158976188Y-128963618D01*
X158970631Y-128989909D01*
X158967526Y-129029562D01*
X158966176Y-129087832D01*
X158965886Y-129168173D01*
X158965886Y-129372646D01*
X158920177Y-129388580D01*
X158887713Y-129399420D01*
X158869901Y-129404468D01*
X158869377Y-129404514D01*
X158868037Y-129390623D01*
X158866828Y-129351439D01*
X158865801Y-129290700D01*
X158865002Y-129212141D01*
X158864481Y-129119498D01*
X158864286Y-129016509D01*
X158864286Y-128619342D01*
X158911457Y-128599444D01*
X158958629Y-128579547D01*
X158965886Y-128701289D01*
G37*
X158965886Y-128701289D02*
X158970139Y-128760613D01*
X158975025Y-128795572D01*
X158981795Y-128810820D01*
X158991702Y-128811015D01*
X158994914Y-128809195D01*
X159037644Y-128796015D01*
X159093227Y-128796785D01*
X159149737Y-128810333D01*
X159185082Y-128827861D01*
X159221321Y-128855861D01*
X159247813Y-128887549D01*
X159265999Y-128927813D01*
X159277322Y-128981543D01*
X159283222Y-129053626D01*
X159285143Y-129148951D01*
X159285177Y-129167237D01*
X159285200Y-129372646D01*
X159239491Y-129388580D01*
X159207027Y-129399420D01*
X159189215Y-129404468D01*
X159188691Y-129404514D01*
X159186937Y-129390828D01*
X159185444Y-129353076D01*
X159184326Y-129296224D01*
X159183697Y-129225234D01*
X159183600Y-129182073D01*
X159183398Y-129096973D01*
X159182358Y-129035981D01*
X159179831Y-128994177D01*
X159175164Y-128966642D01*
X159167707Y-128948456D01*
X159156811Y-128934698D01*
X159150007Y-128928073D01*
X159103272Y-128901375D01*
X159052272Y-128899375D01*
X159006001Y-128921955D01*
X158997444Y-128930107D01*
X158984893Y-128945436D01*
X158976188Y-128963618D01*
X158970631Y-128989909D01*
X158967526Y-129029562D01*
X158966176Y-129087832D01*
X158965886Y-129168173D01*
X158965886Y-129372646D01*
X158920177Y-129388580D01*
X158887713Y-129399420D01*
X158869901Y-129404468D01*
X158869377Y-129404514D01*
X158868037Y-129390623D01*
X158866828Y-129351439D01*
X158865801Y-129290700D01*
X158865002Y-129212141D01*
X158864481Y-129119498D01*
X158864286Y-129016509D01*
X158864286Y-128619342D01*
X158911457Y-128599444D01*
X158958629Y-128579547D01*
X158965886Y-128701289D01*
G36*
X159629744Y-128800968D02*
G01*
X159686616Y-128822087D01*
X159687267Y-128822493D01*
X159722440Y-128848380D01*
X159748407Y-128878633D01*
X159766670Y-128918058D01*
X159778732Y-128971462D01*
X159786096Y-129043651D01*
X159790264Y-129139432D01*
X159790629Y-129153078D01*
X159795876Y-129358842D01*
X159751716Y-129381678D01*
X159719763Y-129397110D01*
X159700470Y-129404423D01*
X159699578Y-129404514D01*
X159696239Y-129391022D01*
X159693587Y-129354626D01*
X159691956Y-129301452D01*
X159691600Y-129258393D01*
X159691592Y-129188641D01*
X159688403Y-129144837D01*
X159677288Y-129123944D01*
X159653501Y-129122925D01*
X159612296Y-129138741D01*
X159550086Y-129167815D01*
X159504341Y-129191963D01*
X159480813Y-129212913D01*
X159473896Y-129235747D01*
X159473886Y-129236877D01*
X159485299Y-129276212D01*
X159519092Y-129297462D01*
X159570809Y-129300539D01*
X159608061Y-129300006D01*
X159627703Y-129310735D01*
X159639952Y-129336505D01*
X159647002Y-129369337D01*
X159636842Y-129387966D01*
X159633017Y-129390632D01*
X159597001Y-129401340D01*
X159546566Y-129402856D01*
X159494626Y-129395759D01*
X159457822Y-129382788D01*
X159406938Y-129339585D01*
X159378014Y-129279446D01*
X159372286Y-129232462D01*
X159376657Y-129190082D01*
X159392475Y-129155488D01*
X159423797Y-129124763D01*
X159474678Y-129093990D01*
X159549176Y-129059252D01*
X159553714Y-129057288D01*
X159620821Y-129026287D01*
X159662232Y-129000862D01*
X159679981Y-128978014D01*
X159676107Y-128954745D01*
X159652643Y-128928056D01*
X159645627Y-128921914D01*
X159598630Y-128898100D01*
X159549933Y-128899103D01*
X159507522Y-128922451D01*
X159479384Y-128965675D01*
X159476769Y-128974160D01*
X159451308Y-129015308D01*
X159419001Y-129035128D01*
X159372286Y-129054770D01*
X159372286Y-129003950D01*
X159386496Y-128930082D01*
X159428675Y-128862327D01*
X159450624Y-128839661D01*
X159500517Y-128810569D01*
X159563967Y-128797400D01*
X159629744Y-128800968D01*
G37*
X159629744Y-128800968D02*
X159686616Y-128822087D01*
X159687267Y-128822493D01*
X159722440Y-128848380D01*
X159748407Y-128878633D01*
X159766670Y-128918058D01*
X159778732Y-128971462D01*
X159786096Y-129043651D01*
X159790264Y-129139432D01*
X159790629Y-129153078D01*
X159795876Y-129358842D01*
X159751716Y-129381678D01*
X159719763Y-129397110D01*
X159700470Y-129404423D01*
X159699578Y-129404514D01*
X159696239Y-129391022D01*
X159693587Y-129354626D01*
X159691956Y-129301452D01*
X159691600Y-129258393D01*
X159691592Y-129188641D01*
X159688403Y-129144837D01*
X159677288Y-129123944D01*
X159653501Y-129122925D01*
X159612296Y-129138741D01*
X159550086Y-129167815D01*
X159504341Y-129191963D01*
X159480813Y-129212913D01*
X159473896Y-129235747D01*
X159473886Y-129236877D01*
X159485299Y-129276212D01*
X159519092Y-129297462D01*
X159570809Y-129300539D01*
X159608061Y-129300006D01*
X159627703Y-129310735D01*
X159639952Y-129336505D01*
X159647002Y-129369337D01*
X159636842Y-129387966D01*
X159633017Y-129390632D01*
X159597001Y-129401340D01*
X159546566Y-129402856D01*
X159494626Y-129395759D01*
X159457822Y-129382788D01*
X159406938Y-129339585D01*
X159378014Y-129279446D01*
X159372286Y-129232462D01*
X159376657Y-129190082D01*
X159392475Y-129155488D01*
X159423797Y-129124763D01*
X159474678Y-129093990D01*
X159549176Y-129059252D01*
X159553714Y-129057288D01*
X159620821Y-129026287D01*
X159662232Y-129000862D01*
X159679981Y-128978014D01*
X159676107Y-128954745D01*
X159652643Y-128928056D01*
X159645627Y-128921914D01*
X159598630Y-128898100D01*
X159549933Y-128899103D01*
X159507522Y-128922451D01*
X159479384Y-128965675D01*
X159476769Y-128974160D01*
X159451308Y-129015308D01*
X159419001Y-129035128D01*
X159372286Y-129054770D01*
X159372286Y-129003950D01*
X159386496Y-128930082D01*
X159428675Y-128862327D01*
X159450624Y-128839661D01*
X159500517Y-128810569D01*
X159563967Y-128797400D01*
X159629744Y-128800968D01*
G36*
X160119926Y-128799755D02*
G01*
X160185858Y-128824084D01*
X160239273Y-128867117D01*
X160260164Y-128897409D01*
X160282939Y-128952994D01*
X160282466Y-128993186D01*
X160258562Y-129020217D01*
X160249717Y-129024813D01*
X160211530Y-129039144D01*
X160192028Y-129035472D01*
X160185422Y-129011407D01*
X160185086Y-128998114D01*
X160172992Y-128949210D01*
X160141471Y-128914999D01*
X160097659Y-128898476D01*
X160048695Y-128902634D01*
X160008894Y-128924227D01*
X159995450Y-128936544D01*
X159985921Y-128951487D01*
X159979485Y-128974075D01*
X159975317Y-129009328D01*
X159972597Y-129062266D01*
X159970502Y-129137907D01*
X159969960Y-129161857D01*
X159967981Y-129243790D01*
X159965731Y-129301455D01*
X159962357Y-129339608D01*
X159957006Y-129363004D01*
X159948824Y-129376398D01*
X159936959Y-129384545D01*
X159929362Y-129388144D01*
X159897102Y-129400452D01*
X159878111Y-129404514D01*
X159871836Y-129390948D01*
X159868006Y-129349934D01*
X159866600Y-129280999D01*
X159867598Y-129183669D01*
X159867908Y-129168657D01*
X159870101Y-129079859D01*
X159872693Y-129015019D01*
X159876382Y-128969067D01*
X159881864Y-128936935D01*
X159889835Y-128913553D01*
X159900993Y-128893852D01*
X159906830Y-128885410D01*
X159940296Y-128848057D01*
X159977727Y-128819003D01*
X159982309Y-128816467D01*
X160049426Y-128796443D01*
X160119926Y-128799755D01*
G37*
X160119926Y-128799755D02*
X160185858Y-128824084D01*
X160239273Y-128867117D01*
X160260164Y-128897409D01*
X160282939Y-128952994D01*
X160282466Y-128993186D01*
X160258562Y-129020217D01*
X160249717Y-129024813D01*
X160211530Y-129039144D01*
X160192028Y-129035472D01*
X160185422Y-129011407D01*
X160185086Y-128998114D01*
X160172992Y-128949210D01*
X160141471Y-128914999D01*
X160097659Y-128898476D01*
X160048695Y-128902634D01*
X160008894Y-128924227D01*
X159995450Y-128936544D01*
X159985921Y-128951487D01*
X159979485Y-128974075D01*
X159975317Y-129009328D01*
X159972597Y-129062266D01*
X159970502Y-129137907D01*
X159969960Y-129161857D01*
X159967981Y-129243790D01*
X159965731Y-129301455D01*
X159962357Y-129339608D01*
X159957006Y-129363004D01*
X159948824Y-129376398D01*
X159936959Y-129384545D01*
X159929362Y-129388144D01*
X159897102Y-129400452D01*
X159878111Y-129404514D01*
X159871836Y-129390948D01*
X159868006Y-129349934D01*
X159866600Y-129280999D01*
X159867598Y-129183669D01*
X159867908Y-129168657D01*
X159870101Y-129079859D01*
X159872693Y-129015019D01*
X159876382Y-128969067D01*
X159881864Y-128936935D01*
X159889835Y-128913553D01*
X159900993Y-128893852D01*
X159906830Y-128885410D01*
X159940296Y-128848057D01*
X159977727Y-128819003D01*
X159982309Y-128816467D01*
X160049426Y-128796443D01*
X160119926Y-128799755D01*
G36*
X160780117Y-128915358D02*
G01*
X160779933Y-129023837D01*
X160779219Y-129107287D01*
X160777675Y-129169704D01*
X160775001Y-129215085D01*
X160770894Y-129247429D01*
X160765055Y-129270733D01*
X160757182Y-129288995D01*
X160751221Y-129299418D01*
X160701855Y-129355945D01*
X160639264Y-129391377D01*
X160570013Y-129404090D01*
X160500668Y-129392463D01*
X160459375Y-129371568D01*
X160416025Y-129335422D01*
X160386481Y-129291276D01*
X160368655Y-129233462D01*
X160360463Y-129156313D01*
X160359302Y-129099714D01*
X160359458Y-129095647D01*
X160460857Y-129095647D01*
X160461476Y-129160550D01*
X160464314Y-129203514D01*
X160470840Y-129231622D01*
X160482523Y-129251953D01*
X160496483Y-129267288D01*
X160543365Y-129296890D01*
X160593701Y-129299419D01*
X160641276Y-129274705D01*
X160644979Y-129271356D01*
X160660783Y-129253935D01*
X160670693Y-129233209D01*
X160676058Y-129202362D01*
X160678228Y-129154577D01*
X160678571Y-129101748D01*
X160677827Y-129035381D01*
X160674748Y-128991106D01*
X160668061Y-128962009D01*
X160656496Y-128941173D01*
X160647013Y-128930107D01*
X160602960Y-128902198D01*
X160552224Y-128898843D01*
X160503796Y-128920159D01*
X160494450Y-128928073D01*
X160478540Y-128945647D01*
X160468610Y-128966587D01*
X160463278Y-128997782D01*
X160461163Y-129046122D01*
X160460857Y-129095647D01*
X160359458Y-129095647D01*
X160362810Y-129008568D01*
X160374726Y-128940086D01*
X160397135Y-128888600D01*
X160432124Y-128848443D01*
X160459375Y-128827861D01*
X160508907Y-128805625D01*
X160566316Y-128795304D01*
X160619682Y-128798067D01*
X160649543Y-128809212D01*
X160661261Y-128812383D01*
X160669037Y-128800557D01*
X160674465Y-128768866D01*
X160678571Y-128720593D01*
X160683067Y-128666829D01*
X160689313Y-128634482D01*
X160700676Y-128615985D01*
X160720528Y-128603770D01*
X160733000Y-128598362D01*
X160780171Y-128578601D01*
X160780117Y-128915358D01*
G37*
X160780117Y-128915358D02*
X160779933Y-129023837D01*
X160779219Y-129107287D01*
X160777675Y-129169704D01*
X160775001Y-129215085D01*
X160770894Y-129247429D01*
X160765055Y-129270733D01*
X160757182Y-129288995D01*
X160751221Y-129299418D01*
X160701855Y-129355945D01*
X160639264Y-129391377D01*
X160570013Y-129404090D01*
X160500668Y-129392463D01*
X160459375Y-129371568D01*
X160416025Y-129335422D01*
X160386481Y-129291276D01*
X160368655Y-129233462D01*
X160360463Y-129156313D01*
X160359302Y-129099714D01*
X160359458Y-129095647D01*
X160460857Y-129095647D01*
X160461476Y-129160550D01*
X160464314Y-129203514D01*
X160470840Y-129231622D01*
X160482523Y-129251953D01*
X160496483Y-129267288D01*
X160543365Y-129296890D01*
X160593701Y-129299419D01*
X160641276Y-129274705D01*
X160644979Y-129271356D01*
X160660783Y-129253935D01*
X160670693Y-129233209D01*
X160676058Y-129202362D01*
X160678228Y-129154577D01*
X160678571Y-129101748D01*
X160677827Y-129035381D01*
X160674748Y-128991106D01*
X160668061Y-128962009D01*
X160656496Y-128941173D01*
X160647013Y-128930107D01*
X160602960Y-128902198D01*
X160552224Y-128898843D01*
X160503796Y-128920159D01*
X160494450Y-128928073D01*
X160478540Y-128945647D01*
X160468610Y-128966587D01*
X160463278Y-128997782D01*
X160461163Y-129046122D01*
X160460857Y-129095647D01*
X160359458Y-129095647D01*
X160362810Y-129008568D01*
X160374726Y-128940086D01*
X160397135Y-128888600D01*
X160432124Y-128848443D01*
X160459375Y-128827861D01*
X160508907Y-128805625D01*
X160566316Y-128795304D01*
X160619682Y-128798067D01*
X160649543Y-128809212D01*
X160661261Y-128812383D01*
X160669037Y-128800557D01*
X160674465Y-128768866D01*
X160678571Y-128720593D01*
X160683067Y-128666829D01*
X160689313Y-128634482D01*
X160700676Y-128615985D01*
X160720528Y-128603770D01*
X160733000Y-128598362D01*
X160780171Y-128578601D01*
X160780117Y-128915358D01*
G36*
X161369833Y-128808663D02*
G01*
X161372048Y-128846850D01*
X161373784Y-128904886D01*
X161374899Y-128978180D01*
X161375257Y-129055055D01*
X161375257Y-129315196D01*
X161329326Y-129361127D01*
X161297675Y-129389429D01*
X161269890Y-129400893D01*
X161231915Y-129400168D01*
X161216840Y-129398321D01*
X161169726Y-129392948D01*
X161130756Y-129389869D01*
X161121257Y-129389585D01*
X161089233Y-129391445D01*
X161043432Y-129396114D01*
X161025674Y-129398321D01*
X160982057Y-129401735D01*
X160952745Y-129394320D01*
X160923680Y-129371427D01*
X160913188Y-129361127D01*
X160867257Y-129315196D01*
X160867257Y-128828602D01*
X160904226Y-128811758D01*
X160936059Y-128799282D01*
X160954683Y-128794914D01*
X160959458Y-128808718D01*
X160963921Y-128847286D01*
X160967775Y-128906356D01*
X160970722Y-128981663D01*
X160972143Y-129045286D01*
X160976114Y-129295657D01*
X161010759Y-129300556D01*
X161042268Y-129297131D01*
X161057708Y-129286041D01*
X161062023Y-129265308D01*
X161065708Y-129221145D01*
X161068469Y-129159146D01*
X161070012Y-129084909D01*
X161070235Y-129046706D01*
X161070457Y-128826783D01*
X161116166Y-128810849D01*
X161148518Y-128800015D01*
X161166115Y-128794962D01*
X161166623Y-128794914D01*
X161168388Y-128808648D01*
X161170329Y-128846730D01*
X161172282Y-128904482D01*
X161174084Y-128977227D01*
X161175343Y-129045286D01*
X161179314Y-129295657D01*
X161266400Y-129295657D01*
X161270396Y-129067240D01*
X161274392Y-128838822D01*
X161316847Y-128816868D01*
X161348192Y-128801793D01*
X161366744Y-128794951D01*
X161367279Y-128794914D01*
X161369833Y-128808663D01*
G37*
X161369833Y-128808663D02*
X161372048Y-128846850D01*
X161373784Y-128904886D01*
X161374899Y-128978180D01*
X161375257Y-129055055D01*
X161375257Y-129315196D01*
X161329326Y-129361127D01*
X161297675Y-129389429D01*
X161269890Y-129400893D01*
X161231915Y-129400168D01*
X161216840Y-129398321D01*
X161169726Y-129392948D01*
X161130756Y-129389869D01*
X161121257Y-129389585D01*
X161089233Y-129391445D01*
X161043432Y-129396114D01*
X161025674Y-129398321D01*
X160982057Y-129401735D01*
X160952745Y-129394320D01*
X160923680Y-129371427D01*
X160913188Y-129361127D01*
X160867257Y-129315196D01*
X160867257Y-128828602D01*
X160904226Y-128811758D01*
X160936059Y-128799282D01*
X160954683Y-128794914D01*
X160959458Y-128808718D01*
X160963921Y-128847286D01*
X160967775Y-128906356D01*
X160970722Y-128981663D01*
X160972143Y-129045286D01*
X160976114Y-129295657D01*
X161010759Y-129300556D01*
X161042268Y-129297131D01*
X161057708Y-129286041D01*
X161062023Y-129265308D01*
X161065708Y-129221145D01*
X161068469Y-129159146D01*
X161070012Y-129084909D01*
X161070235Y-129046706D01*
X161070457Y-128826783D01*
X161116166Y-128810849D01*
X161148518Y-128800015D01*
X161166115Y-128794962D01*
X161166623Y-128794914D01*
X161168388Y-128808648D01*
X161170329Y-128846730D01*
X161172282Y-128904482D01*
X161174084Y-128977227D01*
X161175343Y-129045286D01*
X161179314Y-129295657D01*
X161266400Y-129295657D01*
X161270396Y-129067240D01*
X161274392Y-128838822D01*
X161316847Y-128816868D01*
X161348192Y-128801793D01*
X161366744Y-128794951D01*
X161367279Y-128794914D01*
X161369833Y-128808663D01*
G36*
X161734876Y-128806335D02*
G01*
X161776667Y-128825344D01*
X161809469Y-128848378D01*
X161833503Y-128874133D01*
X161850097Y-128907358D01*
X161860577Y-128952800D01*
X161866271Y-129015207D01*
X161868507Y-129099327D01*
X161868743Y-129154721D01*
X161868743Y-129370826D01*
X161831774Y-129387670D01*
X161802656Y-129399981D01*
X161788231Y-129404514D01*
X161785472Y-129391025D01*
X161783282Y-129354653D01*
X161781942Y-129301542D01*
X161781657Y-129259372D01*
X161780434Y-129198447D01*
X161777136Y-129150115D01*
X161772321Y-129120518D01*
X161768496Y-129114229D01*
X161742783Y-129120652D01*
X161702418Y-129137125D01*
X161655679Y-129159458D01*
X161610845Y-129183457D01*
X161576193Y-129204930D01*
X161560002Y-129219685D01*
X161559938Y-129219845D01*
X161561330Y-129247152D01*
X161573818Y-129273219D01*
X161595743Y-129294392D01*
X161627743Y-129301474D01*
X161655092Y-129300649D01*
X161693826Y-129300042D01*
X161714158Y-129309116D01*
X161726369Y-129333092D01*
X161727909Y-129337613D01*
X161733203Y-129371806D01*
X161719047Y-129392568D01*
X161682148Y-129402462D01*
X161642289Y-129404292D01*
X161570562Y-129390727D01*
X161533432Y-129371355D01*
X161487576Y-129325845D01*
X161463256Y-129269983D01*
X161461073Y-129210957D01*
X161481629Y-129155953D01*
X161512549Y-129121486D01*
X161543420Y-129102189D01*
X161591942Y-129077759D01*
X161648485Y-129052985D01*
X161657910Y-129049199D01*
X161720019Y-129021791D01*
X161755822Y-128997634D01*
X161767337Y-128973619D01*
X161756580Y-128946635D01*
X161738114Y-128925543D01*
X161694469Y-128899572D01*
X161646446Y-128897624D01*
X161602406Y-128917637D01*
X161570709Y-128957551D01*
X161566549Y-128967848D01*
X161542327Y-129005724D01*
X161506965Y-129033842D01*
X161462343Y-129056917D01*
X161462343Y-128991485D01*
X161464969Y-128951506D01*
X161476230Y-128919997D01*
X161501199Y-128886378D01*
X161525169Y-128860484D01*
X161562441Y-128823817D01*
X161591401Y-128804121D01*
X161622505Y-128796220D01*
X161657713Y-128794914D01*
X161734876Y-128806335D01*
G37*
X161734876Y-128806335D02*
X161776667Y-128825344D01*
X161809469Y-128848378D01*
X161833503Y-128874133D01*
X161850097Y-128907358D01*
X161860577Y-128952800D01*
X161866271Y-129015207D01*
X161868507Y-129099327D01*
X161868743Y-129154721D01*
X161868743Y-129370826D01*
X161831774Y-129387670D01*
X161802656Y-129399981D01*
X161788231Y-129404514D01*
X161785472Y-129391025D01*
X161783282Y-129354653D01*
X161781942Y-129301542D01*
X161781657Y-129259372D01*
X161780434Y-129198447D01*
X161777136Y-129150115D01*
X161772321Y-129120518D01*
X161768496Y-129114229D01*
X161742783Y-129120652D01*
X161702418Y-129137125D01*
X161655679Y-129159458D01*
X161610845Y-129183457D01*
X161576193Y-129204930D01*
X161560002Y-129219685D01*
X161559938Y-129219845D01*
X161561330Y-129247152D01*
X161573818Y-129273219D01*
X161595743Y-129294392D01*
X161627743Y-129301474D01*
X161655092Y-129300649D01*
X161693826Y-129300042D01*
X161714158Y-129309116D01*
X161726369Y-129333092D01*
X161727909Y-129337613D01*
X161733203Y-129371806D01*
X161719047Y-129392568D01*
X161682148Y-129402462D01*
X161642289Y-129404292D01*
X161570562Y-129390727D01*
X161533432Y-129371355D01*
X161487576Y-129325845D01*
X161463256Y-129269983D01*
X161461073Y-129210957D01*
X161481629Y-129155953D01*
X161512549Y-129121486D01*
X161543420Y-129102189D01*
X161591942Y-129077759D01*
X161648485Y-129052985D01*
X161657910Y-129049199D01*
X161720019Y-129021791D01*
X161755822Y-128997634D01*
X161767337Y-128973619D01*
X161756580Y-128946635D01*
X161738114Y-128925543D01*
X161694469Y-128899572D01*
X161646446Y-128897624D01*
X161602406Y-128917637D01*
X161570709Y-128957551D01*
X161566549Y-128967848D01*
X161542327Y-129005724D01*
X161506965Y-129033842D01*
X161462343Y-129056917D01*
X161462343Y-128991485D01*
X161464969Y-128951506D01*
X161476230Y-128919997D01*
X161501199Y-128886378D01*
X161525169Y-128860484D01*
X161562441Y-128823817D01*
X161591401Y-128804121D01*
X161622505Y-128796220D01*
X161657713Y-128794914D01*
X161734876Y-128806335D01*
G36*
X162242600Y-128808752D02*
G01*
X162259948Y-128816334D01*
X162301356Y-128849128D01*
X162336765Y-128896547D01*
X162358664Y-128947151D01*
X162362229Y-128972098D01*
X162350279Y-129006927D01*
X162324067Y-129025357D01*
X162295964Y-129036516D01*
X162283095Y-129038572D01*
X162276829Y-129023649D01*
X162264456Y-128991175D01*
X162259028Y-128976502D01*
X162228590Y-128925744D01*
X162184520Y-128900427D01*
X162128010Y-128901206D01*
X162123825Y-128902203D01*
X162093655Y-128916507D01*
X162071476Y-128944393D01*
X162056327Y-128989287D01*
X162047250Y-129054615D01*
X162043286Y-129143804D01*
X162042914Y-129191261D01*
X162042730Y-129266071D01*
X162041522Y-129317069D01*
X162038309Y-129349471D01*
X162032109Y-129368495D01*
X162021940Y-129379356D01*
X162006819Y-129387272D01*
X162005946Y-129387670D01*
X161976828Y-129399981D01*
X161962403Y-129404514D01*
X161960186Y-129390809D01*
X161958289Y-129352925D01*
X161956847Y-129295715D01*
X161955998Y-129224027D01*
X161955829Y-129171565D01*
X161956692Y-129070047D01*
X161960070Y-128993032D01*
X161967142Y-128936023D01*
X161979088Y-128894526D01*
X161997090Y-128864043D01*
X162022327Y-128840080D01*
X162047247Y-128823355D01*
X162107171Y-128801097D01*
X162176911Y-128796076D01*
X162242600Y-128808752D01*
G37*
X162242600Y-128808752D02*
X162259948Y-128816334D01*
X162301356Y-128849128D01*
X162336765Y-128896547D01*
X162358664Y-128947151D01*
X162362229Y-128972098D01*
X162350279Y-129006927D01*
X162324067Y-129025357D01*
X162295964Y-129036516D01*
X162283095Y-129038572D01*
X162276829Y-129023649D01*
X162264456Y-128991175D01*
X162259028Y-128976502D01*
X162228590Y-128925744D01*
X162184520Y-128900427D01*
X162128010Y-128901206D01*
X162123825Y-128902203D01*
X162093655Y-128916507D01*
X162071476Y-128944393D01*
X162056327Y-128989287D01*
X162047250Y-129054615D01*
X162043286Y-129143804D01*
X162042914Y-129191261D01*
X162042730Y-129266071D01*
X162041522Y-129317069D01*
X162038309Y-129349471D01*
X162032109Y-129368495D01*
X162021940Y-129379356D01*
X162006819Y-129387272D01*
X162005946Y-129387670D01*
X161976828Y-129399981D01*
X161962403Y-129404514D01*
X161960186Y-129390809D01*
X161958289Y-129352925D01*
X161956847Y-129295715D01*
X161955998Y-129224027D01*
X161955829Y-129171565D01*
X161956692Y-129070047D01*
X161960070Y-128993032D01*
X161967142Y-128936023D01*
X161979088Y-128894526D01*
X161997090Y-128864043D01*
X162022327Y-128840080D01*
X162047247Y-128823355D01*
X162107171Y-128801097D01*
X162176911Y-128796076D01*
X162242600Y-128808752D01*
G36*
X162743595Y-128816966D02*
G01*
X162801021Y-128854497D01*
X162828719Y-128888096D01*
X162850662Y-128949064D01*
X162852405Y-128997308D01*
X162848457Y-129061816D01*
X162699686Y-129126934D01*
X162627349Y-129160202D01*
X162580084Y-129186964D01*
X162555507Y-129210144D01*
X162551237Y-129232667D01*
X162564889Y-129257455D01*
X162579943Y-129273886D01*
X162623746Y-129300235D01*
X162671389Y-129302081D01*
X162715145Y-129281546D01*
X162747289Y-129240752D01*
X162753038Y-129226347D01*
X162780576Y-129181356D01*
X162812258Y-129162182D01*
X162855714Y-129145779D01*
X162855714Y-129207966D01*
X162851872Y-129250283D01*
X162836823Y-129285969D01*
X162805280Y-129326943D01*
X162800592Y-129332267D01*
X162765506Y-129368720D01*
X162735347Y-129388283D01*
X162697615Y-129397283D01*
X162666335Y-129400230D01*
X162610385Y-129400965D01*
X162570555Y-129391660D01*
X162545708Y-129377846D01*
X162506656Y-129347467D01*
X162479625Y-129314613D01*
X162462517Y-129273294D01*
X162453238Y-129217521D01*
X162449693Y-129141305D01*
X162449410Y-129102622D01*
X162450372Y-129056247D01*
X162538007Y-129056247D01*
X162539023Y-129081126D01*
X162541556Y-129085200D01*
X162558274Y-129079665D01*
X162594249Y-129065017D01*
X162642331Y-129044190D01*
X162652386Y-129039714D01*
X162713152Y-129008814D01*
X162746632Y-128981657D01*
X162753990Y-128956220D01*
X162736391Y-128930481D01*
X162721856Y-128919109D01*
X162669410Y-128896364D01*
X162620322Y-128900122D01*
X162579227Y-128927884D01*
X162550758Y-128977152D01*
X162541631Y-129016257D01*
X162538007Y-129056247D01*
X162450372Y-129056247D01*
X162451285Y-129012249D01*
X162458196Y-128945384D01*
X162471884Y-128896695D01*
X162494096Y-128860849D01*
X162526574Y-128832513D01*
X162540733Y-128823355D01*
X162605053Y-128799507D01*
X162675473Y-128798006D01*
X162743595Y-128816966D01*
G37*
X162743595Y-128816966D02*
X162801021Y-128854497D01*
X162828719Y-128888096D01*
X162850662Y-128949064D01*
X162852405Y-128997308D01*
X162848457Y-129061816D01*
X162699686Y-129126934D01*
X162627349Y-129160202D01*
X162580084Y-129186964D01*
X162555507Y-129210144D01*
X162551237Y-129232667D01*
X162564889Y-129257455D01*
X162579943Y-129273886D01*
X162623746Y-129300235D01*
X162671389Y-129302081D01*
X162715145Y-129281546D01*
X162747289Y-129240752D01*
X162753038Y-129226347D01*
X162780576Y-129181356D01*
X162812258Y-129162182D01*
X162855714Y-129145779D01*
X162855714Y-129207966D01*
X162851872Y-129250283D01*
X162836823Y-129285969D01*
X162805280Y-129326943D01*
X162800592Y-129332267D01*
X162765506Y-129368720D01*
X162735347Y-129388283D01*
X162697615Y-129397283D01*
X162666335Y-129400230D01*
X162610385Y-129400965D01*
X162570555Y-129391660D01*
X162545708Y-129377846D01*
X162506656Y-129347467D01*
X162479625Y-129314613D01*
X162462517Y-129273294D01*
X162453238Y-129217521D01*
X162449693Y-129141305D01*
X162449410Y-129102622D01*
X162450372Y-129056247D01*
X162538007Y-129056247D01*
X162539023Y-129081126D01*
X162541556Y-129085200D01*
X162558274Y-129079665D01*
X162594249Y-129065017D01*
X162642331Y-129044190D01*
X162652386Y-129039714D01*
X162713152Y-129008814D01*
X162746632Y-128981657D01*
X162753990Y-128956220D01*
X162736391Y-128930481D01*
X162721856Y-128919109D01*
X162669410Y-128896364D01*
X162620322Y-128900122D01*
X162579227Y-128927884D01*
X162550758Y-128977152D01*
X162541631Y-129016257D01*
X162538007Y-129056247D01*
X162450372Y-129056247D01*
X162451285Y-129012249D01*
X162458196Y-128945384D01*
X162471884Y-128896695D01*
X162494096Y-128860849D01*
X162526574Y-128832513D01*
X162540733Y-128823355D01*
X162605053Y-128799507D01*
X162675473Y-128798006D01*
X162743595Y-128816966D01*
G36*
X159693910Y-124092348D02*
G01*
X159772454Y-124092778D01*
X159829298Y-124093942D01*
X159868105Y-124096207D01*
X159892538Y-124099940D01*
X159906262Y-124105506D01*
X159912940Y-124113273D01*
X159916236Y-124123605D01*
X159916556Y-124124943D01*
X159921562Y-124149079D01*
X159930829Y-124196701D01*
X159943392Y-124262741D01*
X159958287Y-124342128D01*
X159974551Y-124429796D01*
X159975119Y-124432875D01*
X159991410Y-124518789D01*
X160006652Y-124594696D01*
X160019861Y-124656045D01*
X160030054Y-124698282D01*
X160036248Y-124716855D01*
X160036543Y-124717184D01*
X160054788Y-124726253D01*
X160092405Y-124741367D01*
X160141271Y-124759262D01*
X160141543Y-124759358D01*
X160203093Y-124782493D01*
X160275657Y-124811965D01*
X160344057Y-124841597D01*
X160347294Y-124843062D01*
X160458702Y-124893626D01*
X160705399Y-124725160D01*
X160781077Y-124673803D01*
X160849631Y-124627889D01*
X160907088Y-124590030D01*
X160949476Y-124562837D01*
X160972825Y-124548921D01*
X160975042Y-124547889D01*
X160992010Y-124552484D01*
X161023701Y-124574655D01*
X161071352Y-124615447D01*
X161136198Y-124675905D01*
X161202397Y-124740227D01*
X161266214Y-124803612D01*
X161323329Y-124861451D01*
X161370305Y-124910175D01*
X161403703Y-124946210D01*
X161420085Y-124965984D01*
X161420694Y-124967002D01*
X161422505Y-124980572D01*
X161415683Y-125002733D01*
X161398540Y-125036478D01*
X161369393Y-125084800D01*
X161326555Y-125150692D01*
X161269448Y-125235517D01*
X161218766Y-125310177D01*
X161173461Y-125377140D01*
X161136150Y-125432516D01*
X161109452Y-125472420D01*
X161095985Y-125492962D01*
X161095137Y-125494356D01*
X161096781Y-125514038D01*
X161109245Y-125552293D01*
X161130048Y-125601889D01*
X161137462Y-125617728D01*
X161169814Y-125688290D01*
X161204328Y-125768353D01*
X161232365Y-125837629D01*
X161252568Y-125889045D01*
X161268615Y-125928119D01*
X161277888Y-125948541D01*
X161279041Y-125950114D01*
X161296096Y-125952721D01*
X161336298Y-125959863D01*
X161394302Y-125970523D01*
X161464763Y-125983685D01*
X161542335Y-125998333D01*
X161621672Y-126013449D01*
X161697431Y-126028018D01*
X161764264Y-126041022D01*
X161816828Y-126051445D01*
X161849776Y-126058270D01*
X161857857Y-126060199D01*
X161866205Y-126064962D01*
X161872506Y-126075718D01*
X161877045Y-126096098D01*
X161880104Y-126129734D01*
X161881967Y-126180255D01*
X161882918Y-126251292D01*
X161883240Y-126346476D01*
X161883257Y-126385492D01*
X161883257Y-126702799D01*
X161807057Y-126717839D01*
X161764663Y-126725995D01*
X161701400Y-126737899D01*
X161624962Y-126752116D01*
X161543043Y-126767210D01*
X161520400Y-126771355D01*
X161444806Y-126786053D01*
X161378953Y-126800505D01*
X161328366Y-126813375D01*
X161298574Y-126823322D01*
X161293612Y-126826287D01*
X161281426Y-126847283D01*
X161263953Y-126887967D01*
X161244577Y-126940322D01*
X161240734Y-126951600D01*
X161215339Y-127021523D01*
X161183817Y-127100418D01*
X161152969Y-127171266D01*
X161152817Y-127171595D01*
X161101447Y-127282733D01*
X161270399Y-127531253D01*
X161439352Y-127779772D01*
X161222429Y-127997058D01*
X161156819Y-128061726D01*
X161096979Y-128118733D01*
X161046267Y-128165033D01*
X161008046Y-128197584D01*
X160985675Y-128213343D01*
X160982466Y-128214343D01*
X160963626Y-128206469D01*
X160925180Y-128184578D01*
X160871330Y-128151267D01*
X160806276Y-128109131D01*
X160735940Y-128061943D01*
X160664555Y-128013810D01*
X160600908Y-127971928D01*
X160549041Y-127938871D01*
X160512995Y-127917218D01*
X160496867Y-127909543D01*
X160477189Y-127916037D01*
X160439875Y-127933150D01*
X160392621Y-127957326D01*
X160387612Y-127960013D01*
X160323977Y-127991927D01*
X160280341Y-128007579D01*
X160253202Y-128007745D01*
X160239057Y-127993204D01*
X160238975Y-127993000D01*
X160231905Y-127975779D01*
X160215042Y-127934899D01*
X160189695Y-127873525D01*
X160157171Y-127794819D01*
X160118778Y-127701947D01*
X160075822Y-127598072D01*
X160034222Y-127497502D01*
X159988504Y-127386516D01*
X159946526Y-127283703D01*
X159909548Y-127192215D01*
X159878827Y-127115201D01*
X159855622Y-127055815D01*
X159841190Y-127017209D01*
X159836743Y-127002800D01*
X159847896Y-126986272D01*
X159877069Y-126959930D01*
X159915971Y-126930887D01*
X160026757Y-126839039D01*
X160113351Y-126733759D01*
X160174716Y-126617266D01*
X160209815Y-126491776D01*
X160217608Y-126359507D01*
X160211943Y-126298457D01*
X160181078Y-126171795D01*
X160127920Y-126059941D01*
X160055767Y-125964001D01*
X159967917Y-125885076D01*
X159867665Y-125824270D01*
X159758310Y-125782687D01*
X159643147Y-125761428D01*
X159525475Y-125761599D01*
X159408590Y-125784301D01*
X159295789Y-125830638D01*
X159190369Y-125901713D01*
X159146368Y-125941911D01*
X159061979Y-126045129D01*
X159003222Y-126157925D01*
X158969704Y-126277010D01*
X158961035Y-126399095D01*
X158976823Y-126520893D01*
X159016678Y-126639116D01*
X159080207Y-126750475D01*
X159167021Y-126851684D01*
X159264029Y-126930887D01*
X159304437Y-126961162D01*
X159332982Y-126987219D01*
X159343257Y-127002825D01*
X159337877Y-127019843D01*
X159322575Y-127060500D01*
X159298612Y-127121642D01*
X159267244Y-127200119D01*
X159229732Y-127292780D01*
X159187333Y-127396472D01*
X159145663Y-127497526D01*
X159099690Y-127608607D01*
X159057107Y-127711541D01*
X159019221Y-127803165D01*
X158987340Y-127880316D01*
X158962771Y-127939831D01*
X158946820Y-127978544D01*
X158940910Y-127993000D01*
X158926948Y-128007685D01*
X158899940Y-128007642D01*
X158856413Y-127992099D01*
X158792890Y-127960284D01*
X158792388Y-127960013D01*
X158744560Y-127935323D01*
X158705897Y-127917338D01*
X158684095Y-127909614D01*
X158683133Y-127909543D01*
X158666721Y-127917378D01*
X158630487Y-127939165D01*
X158578474Y-127972328D01*
X158514725Y-128014291D01*
X158444060Y-128061943D01*
X158372116Y-128110191D01*
X158307274Y-128152151D01*
X158253735Y-128185227D01*
X158215697Y-128206821D01*
X158197533Y-128214343D01*
X158180808Y-128204457D01*
X158147180Y-128176826D01*
X158100010Y-128134495D01*
X158042658Y-128080505D01*
X157978484Y-128017899D01*
X157957497Y-127996983D01*
X157740499Y-127779623D01*
X157905668Y-127537220D01*
X157955864Y-127462781D01*
X157999919Y-127395972D01*
X158035362Y-127340665D01*
X158059719Y-127300729D01*
X158070522Y-127280036D01*
X158070838Y-127278563D01*
X158065143Y-127259058D01*
X158049826Y-127219822D01*
X158027537Y-127167430D01*
X158011893Y-127132355D01*
X157982641Y-127065201D01*
X157955094Y-126997358D01*
X157933737Y-126940034D01*
X157927935Y-126922572D01*
X157911452Y-126875938D01*
X157895340Y-126839905D01*
X157886490Y-126826287D01*
X157866960Y-126817952D01*
X157824334Y-126806137D01*
X157764145Y-126792181D01*
X157691922Y-126777422D01*
X157659600Y-126771355D01*
X157577522Y-126756273D01*
X157498795Y-126741669D01*
X157431109Y-126728980D01*
X157382160Y-126719642D01*
X157372943Y-126717839D01*
X157296743Y-126702799D01*
X157296743Y-126385492D01*
X157296914Y-126281154D01*
X157297616Y-126202213D01*
X157299134Y-126145038D01*
X157301749Y-126105999D01*
X157305746Y-126081465D01*
X157311409Y-126067805D01*
X157319020Y-126061389D01*
X157322143Y-126060199D01*
X157340978Y-126055980D01*
X157382588Y-126047562D01*
X157441630Y-126035961D01*
X157512757Y-126022195D01*
X157590625Y-126007280D01*
X157669887Y-125992232D01*
X157745198Y-125978069D01*
X157811213Y-125965806D01*
X157862587Y-125956461D01*
X157893975Y-125951050D01*
X157900959Y-125950114D01*
X157907285Y-125937596D01*
X157921290Y-125904246D01*
X157940355Y-125856377D01*
X157947634Y-125837629D01*
X157976996Y-125765195D01*
X158011571Y-125685170D01*
X158042537Y-125617728D01*
X158065323Y-125566159D01*
X158080482Y-125523785D01*
X158085542Y-125497834D01*
X158084736Y-125494356D01*
X158074041Y-125477936D01*
X158049620Y-125441417D01*
X158014095Y-125388687D01*
X157970087Y-125323635D01*
X157920217Y-125250151D01*
X157910356Y-125235645D01*
X157852492Y-125149704D01*
X157809956Y-125084261D01*
X157781054Y-125036304D01*
X157764090Y-125002820D01*
X157757367Y-124980795D01*
X157759190Y-124967217D01*
X157759236Y-124967131D01*
X157773586Y-124949297D01*
X157805323Y-124914817D01*
X157851010Y-124867268D01*
X157907204Y-124810222D01*
X157970468Y-124747255D01*
X157977602Y-124740227D01*
X158057330Y-124663020D01*
X158118857Y-124606330D01*
X158163421Y-124569110D01*
X158192257Y-124550315D01*
X158204958Y-124547889D01*
X158223494Y-124558471D01*
X158261961Y-124582916D01*
X158316386Y-124618612D01*
X158382798Y-124662947D01*
X158457225Y-124713311D01*
X158474601Y-124725160D01*
X158721297Y-124893626D01*
X158832706Y-124843062D01*
X158900457Y-124813595D01*
X158973183Y-124783959D01*
X159035703Y-124760330D01*
X159038457Y-124759358D01*
X159087360Y-124741457D01*
X159125057Y-124726320D01*
X159143425Y-124717210D01*
X159143456Y-124717184D01*
X159149285Y-124700717D01*
X159159192Y-124660219D01*
X159172195Y-124600242D01*
X159187309Y-124525340D01*
X159203552Y-124440064D01*
X159204881Y-124432875D01*
X159221175Y-124345014D01*
X159236133Y-124265260D01*
X159248791Y-124198681D01*
X159258186Y-124150347D01*
X159263354Y-124125325D01*
X159263444Y-124124943D01*
X159266589Y-124114299D01*
X159272704Y-124106262D01*
X159285453Y-124100467D01*
X159308500Y-124096547D01*
X159345509Y-124094135D01*
X159400144Y-124092865D01*
X159476067Y-124092371D01*
X159576944Y-124092286D01*
X159590000Y-124092286D01*
X159693910Y-124092348D01*
G37*
X159693910Y-124092348D02*
X159772454Y-124092778D01*
X159829298Y-124093942D01*
X159868105Y-124096207D01*
X159892538Y-124099940D01*
X159906262Y-124105506D01*
X159912940Y-124113273D01*
X159916236Y-124123605D01*
X159916556Y-124124943D01*
X159921562Y-124149079D01*
X159930829Y-124196701D01*
X159943392Y-124262741D01*
X159958287Y-124342128D01*
X159974551Y-124429796D01*
X159975119Y-124432875D01*
X159991410Y-124518789D01*
X160006652Y-124594696D01*
X160019861Y-124656045D01*
X160030054Y-124698282D01*
X160036248Y-124716855D01*
X160036543Y-124717184D01*
X160054788Y-124726253D01*
X160092405Y-124741367D01*
X160141271Y-124759262D01*
X160141543Y-124759358D01*
X160203093Y-124782493D01*
X160275657Y-124811965D01*
X160344057Y-124841597D01*
X160347294Y-124843062D01*
X160458702Y-124893626D01*
X160705399Y-124725160D01*
X160781077Y-124673803D01*
X160849631Y-124627889D01*
X160907088Y-124590030D01*
X160949476Y-124562837D01*
X160972825Y-124548921D01*
X160975042Y-124547889D01*
X160992010Y-124552484D01*
X161023701Y-124574655D01*
X161071352Y-124615447D01*
X161136198Y-124675905D01*
X161202397Y-124740227D01*
X161266214Y-124803612D01*
X161323329Y-124861451D01*
X161370305Y-124910175D01*
X161403703Y-124946210D01*
X161420085Y-124965984D01*
X161420694Y-124967002D01*
X161422505Y-124980572D01*
X161415683Y-125002733D01*
X161398540Y-125036478D01*
X161369393Y-125084800D01*
X161326555Y-125150692D01*
X161269448Y-125235517D01*
X161218766Y-125310177D01*
X161173461Y-125377140D01*
X161136150Y-125432516D01*
X161109452Y-125472420D01*
X161095985Y-125492962D01*
X161095137Y-125494356D01*
X161096781Y-125514038D01*
X161109245Y-125552293D01*
X161130048Y-125601889D01*
X161137462Y-125617728D01*
X161169814Y-125688290D01*
X161204328Y-125768353D01*
X161232365Y-125837629D01*
X161252568Y-125889045D01*
X161268615Y-125928119D01*
X161277888Y-125948541D01*
X161279041Y-125950114D01*
X161296096Y-125952721D01*
X161336298Y-125959863D01*
X161394302Y-125970523D01*
X161464763Y-125983685D01*
X161542335Y-125998333D01*
X161621672Y-126013449D01*
X161697431Y-126028018D01*
X161764264Y-126041022D01*
X161816828Y-126051445D01*
X161849776Y-126058270D01*
X161857857Y-126060199D01*
X161866205Y-126064962D01*
X161872506Y-126075718D01*
X161877045Y-126096098D01*
X161880104Y-126129734D01*
X161881967Y-126180255D01*
X161882918Y-126251292D01*
X161883240Y-126346476D01*
X161883257Y-126385492D01*
X161883257Y-126702799D01*
X161807057Y-126717839D01*
X161764663Y-126725995D01*
X161701400Y-126737899D01*
X161624962Y-126752116D01*
X161543043Y-126767210D01*
X161520400Y-126771355D01*
X161444806Y-126786053D01*
X161378953Y-126800505D01*
X161328366Y-126813375D01*
X161298574Y-126823322D01*
X161293612Y-126826287D01*
X161281426Y-126847283D01*
X161263953Y-126887967D01*
X161244577Y-126940322D01*
X161240734Y-126951600D01*
X161215339Y-127021523D01*
X161183817Y-127100418D01*
X161152969Y-127171266D01*
X161152817Y-127171595D01*
X161101447Y-127282733D01*
X161270399Y-127531253D01*
X161439352Y-127779772D01*
X161222429Y-127997058D01*
X161156819Y-128061726D01*
X161096979Y-128118733D01*
X161046267Y-128165033D01*
X161008046Y-128197584D01*
X160985675Y-128213343D01*
X160982466Y-128214343D01*
X160963626Y-128206469D01*
X160925180Y-128184578D01*
X160871330Y-128151267D01*
X160806276Y-128109131D01*
X160735940Y-128061943D01*
X160664555Y-128013810D01*
X160600908Y-127971928D01*
X160549041Y-127938871D01*
X160512995Y-127917218D01*
X160496867Y-127909543D01*
X160477189Y-127916037D01*
X160439875Y-127933150D01*
X160392621Y-127957326D01*
X160387612Y-127960013D01*
X160323977Y-127991927D01*
X160280341Y-128007579D01*
X160253202Y-128007745D01*
X160239057Y-127993204D01*
X160238975Y-127993000D01*
X160231905Y-127975779D01*
X160215042Y-127934899D01*
X160189695Y-127873525D01*
X160157171Y-127794819D01*
X160118778Y-127701947D01*
X160075822Y-127598072D01*
X160034222Y-127497502D01*
X159988504Y-127386516D01*
X159946526Y-127283703D01*
X159909548Y-127192215D01*
X159878827Y-127115201D01*
X159855622Y-127055815D01*
X159841190Y-127017209D01*
X159836743Y-127002800D01*
X159847896Y-126986272D01*
X159877069Y-126959930D01*
X159915971Y-126930887D01*
X160026757Y-126839039D01*
X160113351Y-126733759D01*
X160174716Y-126617266D01*
X160209815Y-126491776D01*
X160217608Y-126359507D01*
X160211943Y-126298457D01*
X160181078Y-126171795D01*
X160127920Y-126059941D01*
X160055767Y-125964001D01*
X159967917Y-125885076D01*
X159867665Y-125824270D01*
X159758310Y-125782687D01*
X159643147Y-125761428D01*
X159525475Y-125761599D01*
X159408590Y-125784301D01*
X159295789Y-125830638D01*
X159190369Y-125901713D01*
X159146368Y-125941911D01*
X159061979Y-126045129D01*
X159003222Y-126157925D01*
X158969704Y-126277010D01*
X158961035Y-126399095D01*
X158976823Y-126520893D01*
X159016678Y-126639116D01*
X159080207Y-126750475D01*
X159167021Y-126851684D01*
X159264029Y-126930887D01*
X159304437Y-126961162D01*
X159332982Y-126987219D01*
X159343257Y-127002825D01*
X159337877Y-127019843D01*
X159322575Y-127060500D01*
X159298612Y-127121642D01*
X159267244Y-127200119D01*
X159229732Y-127292780D01*
X159187333Y-127396472D01*
X159145663Y-127497526D01*
X159099690Y-127608607D01*
X159057107Y-127711541D01*
X159019221Y-127803165D01*
X158987340Y-127880316D01*
X158962771Y-127939831D01*
X158946820Y-127978544D01*
X158940910Y-127993000D01*
X158926948Y-128007685D01*
X158899940Y-128007642D01*
X158856413Y-127992099D01*
X158792890Y-127960284D01*
X158792388Y-127960013D01*
X158744560Y-127935323D01*
X158705897Y-127917338D01*
X158684095Y-127909614D01*
X158683133Y-127909543D01*
X158666721Y-127917378D01*
X158630487Y-127939165D01*
X158578474Y-127972328D01*
X158514725Y-128014291D01*
X158444060Y-128061943D01*
X158372116Y-128110191D01*
X158307274Y-128152151D01*
X158253735Y-128185227D01*
X158215697Y-128206821D01*
X158197533Y-128214343D01*
X158180808Y-128204457D01*
X158147180Y-128176826D01*
X158100010Y-128134495D01*
X158042658Y-128080505D01*
X157978484Y-128017899D01*
X157957497Y-127996983D01*
X157740499Y-127779623D01*
X157905668Y-127537220D01*
X157955864Y-127462781D01*
X157999919Y-127395972D01*
X158035362Y-127340665D01*
X158059719Y-127300729D01*
X158070522Y-127280036D01*
X158070838Y-127278563D01*
X158065143Y-127259058D01*
X158049826Y-127219822D01*
X158027537Y-127167430D01*
X158011893Y-127132355D01*
X157982641Y-127065201D01*
X157955094Y-126997358D01*
X157933737Y-126940034D01*
X157927935Y-126922572D01*
X157911452Y-126875938D01*
X157895340Y-126839905D01*
X157886490Y-126826287D01*
X157866960Y-126817952D01*
X157824334Y-126806137D01*
X157764145Y-126792181D01*
X157691922Y-126777422D01*
X157659600Y-126771355D01*
X157577522Y-126756273D01*
X157498795Y-126741669D01*
X157431109Y-126728980D01*
X157382160Y-126719642D01*
X157372943Y-126717839D01*
X157296743Y-126702799D01*
X157296743Y-126385492D01*
X157296914Y-126281154D01*
X157297616Y-126202213D01*
X157299134Y-126145038D01*
X157301749Y-126105999D01*
X157305746Y-126081465D01*
X157311409Y-126067805D01*
X157319020Y-126061389D01*
X157322143Y-126060199D01*
X157340978Y-126055980D01*
X157382588Y-126047562D01*
X157441630Y-126035961D01*
X157512757Y-126022195D01*
X157590625Y-126007280D01*
X157669887Y-125992232D01*
X157745198Y-125978069D01*
X157811213Y-125965806D01*
X157862587Y-125956461D01*
X157893975Y-125951050D01*
X157900959Y-125950114D01*
X157907285Y-125937596D01*
X157921290Y-125904246D01*
X157940355Y-125856377D01*
X157947634Y-125837629D01*
X157976996Y-125765195D01*
X158011571Y-125685170D01*
X158042537Y-125617728D01*
X158065323Y-125566159D01*
X158080482Y-125523785D01*
X158085542Y-125497834D01*
X158084736Y-125494356D01*
X158074041Y-125477936D01*
X158049620Y-125441417D01*
X158014095Y-125388687D01*
X157970087Y-125323635D01*
X157920217Y-125250151D01*
X157910356Y-125235645D01*
X157852492Y-125149704D01*
X157809956Y-125084261D01*
X157781054Y-125036304D01*
X157764090Y-125002820D01*
X157757367Y-124980795D01*
X157759190Y-124967217D01*
X157759236Y-124967131D01*
X157773586Y-124949297D01*
X157805323Y-124914817D01*
X157851010Y-124867268D01*
X157907204Y-124810222D01*
X157970468Y-124747255D01*
X157977602Y-124740227D01*
X158057330Y-124663020D01*
X158118857Y-124606330D01*
X158163421Y-124569110D01*
X158192257Y-124550315D01*
X158204958Y-124547889D01*
X158223494Y-124558471D01*
X158261961Y-124582916D01*
X158316386Y-124618612D01*
X158382798Y-124662947D01*
X158457225Y-124713311D01*
X158474601Y-124725160D01*
X158721297Y-124893626D01*
X158832706Y-124843062D01*
X158900457Y-124813595D01*
X158973183Y-124783959D01*
X159035703Y-124760330D01*
X159038457Y-124759358D01*
X159087360Y-124741457D01*
X159125057Y-124726320D01*
X159143425Y-124717210D01*
X159143456Y-124717184D01*
X159149285Y-124700717D01*
X159159192Y-124660219D01*
X159172195Y-124600242D01*
X159187309Y-124525340D01*
X159203552Y-124440064D01*
X159204881Y-124432875D01*
X159221175Y-124345014D01*
X159236133Y-124265260D01*
X159248791Y-124198681D01*
X159258186Y-124150347D01*
X159263354Y-124125325D01*
X159263444Y-124124943D01*
X159266589Y-124114299D01*
X159272704Y-124106262D01*
X159285453Y-124100467D01*
X159308500Y-124096547D01*
X159345509Y-124094135D01*
X159400144Y-124092865D01*
X159476067Y-124092371D01*
X159576944Y-124092286D01*
X159590000Y-124092286D01*
X159693910Y-124092348D01*
D12*
X119838590Y-114708590D02*
G75*
G02*
X119940000Y-113410000I-708590J708590D01*
G01*
X117130000Y-114000000D02*
G75*
G03*
X117130000Y-114000000I-1000000J0D01*
G01*
X123130000Y-114000000D02*
G75*
G03*
X123130000Y-114000000I-1000000J0D01*
G01*
X117130000Y-114000000D02*
X118130000Y-114000000D01*
X119130000Y-114000000D02*
X121130000Y-114000000D01*
X119630000Y-114000000D02*
G75*
G03*
X119630000Y-114000000I-500000J0D01*
G01*
X119380000Y-114000000D02*
G75*
G03*
X119380000Y-114000000I-250000J0D01*
G01*
X119530000Y-114000000D02*
G75*
G03*
X119530000Y-114000000I-400000J0D01*
G01*
X119230000Y-114000000D02*
G75*
G03*
X119230000Y-114000000I-100000J0D01*
G01*
X119440644Y-114000000D02*
G75*
G03*
X119440644Y-114000000I-310644J0D01*
G01*
X119271421Y-114000000D02*
G75*
G03*
X119271421Y-114000000I-141421J0D01*
G01*
X171705753Y-126421936D02*
G75*
G02*
X171930000Y-126860000I524247J-8064D01*
G01*
X168780000Y-126450000D02*
G75*
G03*
X168780000Y-126450000I-1000000J0D01*
G01*
X171030000Y-126450000D02*
G75*
G03*
X171030000Y-126450000I-1000000J0D01*
G01*
X173210000Y-126460000D02*
G75*
G03*
X173210000Y-126460000I-1000000J0D01*
G01*
X170110000Y-125890000D02*
G75*
G03*
X170110000Y-125890000I-100000J0D01*
G01*
D16*
G36*
X170280000Y-126710000D02*
G01*
X169750000Y-126710000D01*
X169750000Y-126120000D01*
X170280000Y-126120000D01*
X170280000Y-126710000D01*
G37*
X170280000Y-126710000D02*
X169750000Y-126710000D01*
X169750000Y-126120000D01*
X170280000Y-126120000D01*
X170280000Y-126710000D01*
G36*
X170160000Y-127110000D02*
G01*
X169910000Y-127110000D01*
X169910000Y-126750000D01*
X170160000Y-126740000D01*
X170160000Y-127110000D01*
G37*
X170160000Y-127110000D02*
X169910000Y-127110000D01*
X169910000Y-126750000D01*
X170160000Y-126740000D01*
X170160000Y-127110000D01*
D12*
X170050000Y-125890000D02*
G75*
G03*
X170050000Y-125890000I-50000J0D01*
G01*
D16*
G36*
X171690000Y-126700000D02*
G01*
X171480000Y-126430000D01*
X171910000Y-126430000D01*
X171690000Y-126700000D01*
G37*
X171690000Y-126700000D02*
X171480000Y-126430000D01*
X171910000Y-126430000D01*
X171690000Y-126700000D01*
D12*
X173074058Y-139531000D02*
X177847260Y-139531000D01*
X198194658Y-139531000D02*
X199718401Y-139531000D01*
X177847260Y-139531000D02*
X175537601Y-139531000D01*
X190392741Y-139531000D02*
X195171544Y-139531000D01*
X192708001Y-145627000D02*
X192708001Y-139531000D01*
X175537601Y-145627000D02*
X192708001Y-145627000D01*
X175537601Y-139531000D02*
X175537601Y-145627000D01*
X192708001Y-139531000D02*
X190392741Y-139531000D01*
X199718401Y-139531000D02*
X199718401Y-135619400D01*
X168527201Y-139531000D02*
X170050944Y-139531000D01*
X168527201Y-135619400D02*
X168527201Y-139531000D01*
X189243466Y-139962329D02*
X189662801Y-140801000D01*
X190082305Y-139961992D02*
X189662801Y-140801000D01*
X104811257Y-139531000D02*
X109584459Y-139531000D01*
X129931857Y-139531000D02*
X131455600Y-139531000D01*
X109584459Y-139531000D02*
X107274800Y-139531000D01*
X122129940Y-139531000D02*
X126908743Y-139531000D01*
X124445200Y-145627000D02*
X124445200Y-139531000D01*
X107274800Y-145627000D02*
X124445200Y-145627000D01*
X107274800Y-139531000D02*
X107274800Y-145627000D01*
X124445200Y-139531000D02*
X122129940Y-139531000D01*
X131455600Y-139531000D02*
X131455600Y-135619400D01*
X100264400Y-139531000D02*
X101788143Y-139531000D01*
X100264400Y-135619400D02*
X100264400Y-139531000D01*
X120980665Y-139962329D02*
X121400000Y-140801000D01*
X121819504Y-139961992D02*
X121400000Y-140801000D01*
X196159800Y-111341360D02*
X196159800Y-112437348D01*
X196159800Y-98642652D02*
X196159800Y-99738640D01*
X196159800Y-114111252D02*
X196159800Y-116200851D01*
X196159800Y-94879149D02*
X196159800Y-96968748D01*
X196159800Y-119872749D02*
X196159800Y-121262600D01*
X196159800Y-89817400D02*
X196159800Y-91207251D01*
X196159800Y-121262600D02*
X200731800Y-121262600D01*
X200731800Y-121262600D02*
X200731800Y-89817400D01*
X200731800Y-89817400D02*
X196159800Y-89817400D01*
X200477800Y-97119900D02*
X200477800Y-113960100D01*
X200477800Y-113960100D02*
X206523000Y-113960100D01*
X206523000Y-113960100D02*
X206523000Y-97119900D01*
X206523000Y-97119900D02*
X200477800Y-97119900D01*
X100120000Y-116590000D02*
X112620000Y-116590000D01*
X100120000Y-108590000D02*
X100120000Y-116590000D01*
X112620000Y-108590000D02*
X100120000Y-108590000D01*
X144110000Y-92220000D02*
X145510000Y-92220000D01*
X145510000Y-89900000D02*
X143610000Y-89900000D01*
X135835279Y-125770000D02*
X135509721Y-125770000D01*
X135835279Y-124750000D02*
X135509721Y-124750000D01*
X138835279Y-125780000D02*
X138509721Y-125780000D01*
X138835279Y-124760000D02*
X138509721Y-124760000D01*
X141350000Y-122534721D02*
X141350000Y-122860279D01*
X140330000Y-122534721D02*
X140330000Y-122860279D01*
X140330000Y-119860279D02*
X140330000Y-119534721D01*
X141350000Y-119860279D02*
X141350000Y-119534721D01*
X140100279Y-116670000D02*
X139774721Y-116670000D01*
X140100279Y-115650000D02*
X139774721Y-115650000D01*
X137125279Y-116670000D02*
X136799721Y-116670000D01*
X137125279Y-115650000D02*
X136799721Y-115650000D01*
D14*
X138250000Y-112660000D02*
X136850000Y-112660000D01*
X136850000Y-115460000D02*
X138250000Y-115460000D01*
D12*
X169960000Y-95800000D02*
X169960000Y-86600000D01*
X179160000Y-95800000D02*
X179160000Y-86600000D01*
X169960000Y-95800000D02*
X172660000Y-95800000D01*
X169960000Y-86600000D02*
X172660000Y-86600000D01*
X179160000Y-86600000D02*
X176460000Y-86600000D01*
X179160000Y-95800000D02*
X176460000Y-95800000D01*
D11*
X196176666Y-73832380D02*
X196176666Y-74546666D01*
X196129047Y-74689523D01*
X196033809Y-74784761D01*
X195890952Y-74832380D01*
X195795714Y-74832380D01*
X196652857Y-74832380D02*
X196652857Y-73832380D01*
X197033809Y-73832380D01*
X197129047Y-73880000D01*
X197176666Y-73927619D01*
X197224285Y-74022857D01*
X197224285Y-74165714D01*
X197176666Y-74260952D01*
X197129047Y-74308571D01*
X197033809Y-74356190D01*
X196652857Y-74356190D01*
X197605238Y-73927619D02*
X197652857Y-73880000D01*
X197748095Y-73832380D01*
X197986190Y-73832380D01*
X198081428Y-73880000D01*
X198129047Y-73927619D01*
X198176666Y-74022857D01*
X198176666Y-74118095D01*
X198129047Y-74260952D01*
X197557619Y-74832380D01*
X198176666Y-74832380D01*
X102156666Y-73882380D02*
X102156666Y-74596666D01*
X102109047Y-74739523D01*
X102013809Y-74834761D01*
X101870952Y-74882380D01*
X101775714Y-74882380D01*
X102632857Y-74882380D02*
X102632857Y-73882380D01*
X103013809Y-73882380D01*
X103109047Y-73930000D01*
X103156666Y-73977619D01*
X103204285Y-74072857D01*
X103204285Y-74215714D01*
X103156666Y-74310952D01*
X103109047Y-74358571D01*
X103013809Y-74406190D01*
X102632857Y-74406190D01*
X104156666Y-74882380D02*
X103585238Y-74882380D01*
X103870952Y-74882380D02*
X103870952Y-73882380D01*
X103775714Y-74025238D01*
X103680476Y-74120476D01*
X103585238Y-74168095D01*
X196166666Y-124652380D02*
X196166666Y-125366666D01*
X196119047Y-125509523D01*
X196023809Y-125604761D01*
X195880952Y-125652380D01*
X195785714Y-125652380D01*
X196642857Y-125652380D02*
X196642857Y-124652380D01*
X197023809Y-124652380D01*
X197119047Y-124700000D01*
X197166666Y-124747619D01*
X197214285Y-124842857D01*
X197214285Y-124985714D01*
X197166666Y-125080952D01*
X197119047Y-125128571D01*
X197023809Y-125176190D01*
X196642857Y-125176190D01*
X198071428Y-124985714D02*
X198071428Y-125652380D01*
X197833333Y-124604761D02*
X197595238Y-125319047D01*
X198214285Y-125319047D01*
X102186666Y-124672380D02*
X102186666Y-125386666D01*
X102139047Y-125529523D01*
X102043809Y-125624761D01*
X101900952Y-125672380D01*
X101805714Y-125672380D01*
X102662857Y-125672380D02*
X102662857Y-124672380D01*
X103043809Y-124672380D01*
X103139047Y-124720000D01*
X103186666Y-124767619D01*
X103234285Y-124862857D01*
X103234285Y-125005714D01*
X103186666Y-125100952D01*
X103139047Y-125148571D01*
X103043809Y-125196190D01*
X102662857Y-125196190D01*
X103567619Y-124672380D02*
X104186666Y-124672380D01*
X103853333Y-125053333D01*
X103996190Y-125053333D01*
X104091428Y-125100952D01*
X104139047Y-125148571D01*
X104186666Y-125243809D01*
X104186666Y-125481904D01*
X104139047Y-125577142D01*
X104091428Y-125624761D01*
X103996190Y-125672380D01*
X103710476Y-125672380D01*
X103615238Y-125624761D01*
X103567619Y-125577142D01*
X159206666Y-138212380D02*
X159206666Y-138926666D01*
X159159047Y-139069523D01*
X159063809Y-139164761D01*
X158920952Y-139212380D01*
X158825714Y-139212380D01*
X159587619Y-138212380D02*
X160254285Y-138212380D01*
X159825714Y-139212380D01*
X143531400Y-138193380D02*
X143531400Y-138431476D01*
X143293304Y-138336238D02*
X143531400Y-138431476D01*
X143769495Y-138336238D01*
X143388542Y-138621952D02*
X143531400Y-138431476D01*
X143674257Y-138621952D01*
X193797142Y-111617142D02*
X193749523Y-111664761D01*
X193606666Y-111712380D01*
X193511428Y-111712380D01*
X193368571Y-111664761D01*
X193273333Y-111569523D01*
X193225714Y-111474285D01*
X193178095Y-111283809D01*
X193178095Y-111140952D01*
X193225714Y-110950476D01*
X193273333Y-110855238D01*
X193368571Y-110760000D01*
X193511428Y-110712380D01*
X193606666Y-110712380D01*
X193749523Y-110760000D01*
X193797142Y-110807619D01*
X194749523Y-111712380D02*
X194178095Y-111712380D01*
X194463809Y-111712380D02*
X194463809Y-110712380D01*
X194368571Y-110855238D01*
X194273333Y-110950476D01*
X194178095Y-110998095D01*
X195701904Y-111712380D02*
X195130476Y-111712380D01*
X195416190Y-111712380D02*
X195416190Y-110712380D01*
X195320952Y-110855238D01*
X195225714Y-110950476D01*
X195130476Y-110998095D01*
X178023333Y-99697142D02*
X177975714Y-99744761D01*
X177832857Y-99792380D01*
X177737619Y-99792380D01*
X177594761Y-99744761D01*
X177499523Y-99649523D01*
X177451904Y-99554285D01*
X177404285Y-99363809D01*
X177404285Y-99220952D01*
X177451904Y-99030476D01*
X177499523Y-98935238D01*
X177594761Y-98840000D01*
X177737619Y-98792380D01*
X177832857Y-98792380D01*
X177975714Y-98840000D01*
X178023333Y-98887619D01*
X178499523Y-99792380D02*
X178690000Y-99792380D01*
X178785238Y-99744761D01*
X178832857Y-99697142D01*
X178928095Y-99554285D01*
X178975714Y-99363809D01*
X178975714Y-98982857D01*
X178928095Y-98887619D01*
X178880476Y-98840000D01*
X178785238Y-98792380D01*
X178594761Y-98792380D01*
X178499523Y-98840000D01*
X178451904Y-98887619D01*
X178404285Y-98982857D01*
X178404285Y-99220952D01*
X178451904Y-99316190D01*
X178499523Y-99363809D01*
X178594761Y-99411428D01*
X178785238Y-99411428D01*
X178880476Y-99363809D01*
X178928095Y-99316190D01*
X178975714Y-99220952D01*
X127948095Y-120142380D02*
X127948095Y-120951904D01*
X127995714Y-121047142D01*
X128043333Y-121094761D01*
X128138571Y-121142380D01*
X128329047Y-121142380D01*
X128424285Y-121094761D01*
X128471904Y-121047142D01*
X128519523Y-120951904D01*
X128519523Y-120142380D01*
X129519523Y-121142380D02*
X128948095Y-121142380D01*
X129233809Y-121142380D02*
X129233809Y-120142380D01*
X129138571Y-120285238D01*
X129043333Y-120380476D01*
X128948095Y-120428095D01*
X139782380Y-117270000D02*
X140020476Y-117270000D01*
X139925238Y-117508095D02*
X140020476Y-117270000D01*
X139925238Y-117031904D01*
X140210952Y-117412857D02*
X140020476Y-117270000D01*
X140210952Y-117127142D01*
X181898095Y-99732380D02*
X181898095Y-100541904D01*
X181945714Y-100637142D01*
X181993333Y-100684761D01*
X182088571Y-100732380D01*
X182279047Y-100732380D01*
X182374285Y-100684761D01*
X182421904Y-100637142D01*
X182469523Y-100541904D01*
X182469523Y-99732380D01*
X182898095Y-99827619D02*
X182945714Y-99780000D01*
X183040952Y-99732380D01*
X183279047Y-99732380D01*
X183374285Y-99780000D01*
X183421904Y-99827619D01*
X183469523Y-99922857D01*
X183469523Y-100018095D01*
X183421904Y-100160952D01*
X182850476Y-100732380D01*
X183469523Y-100732380D01*
X179640000Y-100802380D02*
X179640000Y-101040476D01*
X179401904Y-100945238D02*
X179640000Y-101040476D01*
X179878095Y-100945238D01*
X179497142Y-101230952D02*
X179640000Y-101040476D01*
X179782857Y-101230952D01*
X130918095Y-90172380D02*
X130918095Y-90981904D01*
X130965714Y-91077142D01*
X131013333Y-91124761D01*
X131108571Y-91172380D01*
X131299047Y-91172380D01*
X131394285Y-91124761D01*
X131441904Y-91077142D01*
X131489523Y-90981904D01*
X131489523Y-90172380D01*
X131870476Y-90172380D02*
X132489523Y-90172380D01*
X132156190Y-90553333D01*
X132299047Y-90553333D01*
X132394285Y-90600952D01*
X132441904Y-90648571D01*
X132489523Y-90743809D01*
X132489523Y-90981904D01*
X132441904Y-91077142D01*
X132394285Y-91124761D01*
X132299047Y-91172380D01*
X132013333Y-91172380D01*
X131918095Y-91124761D01*
X131870476Y-91077142D01*
X163862380Y-96857142D02*
X162862380Y-96857142D01*
X163576666Y-96523809D01*
X162862380Y-96190476D01*
X163862380Y-96190476D01*
X163862380Y-95714285D02*
X163195714Y-95714285D01*
X162862380Y-95714285D02*
X162910000Y-95761904D01*
X162957619Y-95714285D01*
X162910000Y-95666666D01*
X162862380Y-95714285D01*
X162957619Y-95714285D01*
X163814761Y-94809523D02*
X163862380Y-94904761D01*
X163862380Y-95095238D01*
X163814761Y-95190476D01*
X163767142Y-95238095D01*
X163671904Y-95285714D01*
X163386190Y-95285714D01*
X163290952Y-95238095D01*
X163243333Y-95190476D01*
X163195714Y-95095238D01*
X163195714Y-94904761D01*
X163243333Y-94809523D01*
X163862380Y-94380952D02*
X163195714Y-94380952D01*
X163386190Y-94380952D02*
X163290952Y-94333333D01*
X163243333Y-94285714D01*
X163195714Y-94190476D01*
X163195714Y-94095238D01*
X163862380Y-93619047D02*
X163814761Y-93714285D01*
X163767142Y-93761904D01*
X163671904Y-93809523D01*
X163386190Y-93809523D01*
X163290952Y-93761904D01*
X163243333Y-93714285D01*
X163195714Y-93619047D01*
X163195714Y-93476190D01*
X163243333Y-93380952D01*
X163290952Y-93333333D01*
X163386190Y-93285714D01*
X163671904Y-93285714D01*
X163767142Y-93333333D01*
X163814761Y-93380952D01*
X163862380Y-93476190D01*
X163862380Y-93619047D01*
X163481428Y-92857142D02*
X163481428Y-92095238D01*
X163814761Y-91666666D02*
X163862380Y-91523809D01*
X163862380Y-91285714D01*
X163814761Y-91190476D01*
X163767142Y-91142857D01*
X163671904Y-91095238D01*
X163576666Y-91095238D01*
X163481428Y-91142857D01*
X163433809Y-91190476D01*
X163386190Y-91285714D01*
X163338571Y-91476190D01*
X163290952Y-91571428D01*
X163243333Y-91619047D01*
X163148095Y-91666666D01*
X163052857Y-91666666D01*
X162957619Y-91619047D01*
X162910000Y-91571428D01*
X162862380Y-91476190D01*
X162862380Y-91238095D01*
X162910000Y-91095238D01*
X163862380Y-90666666D02*
X162862380Y-90666666D01*
X162862380Y-90428571D01*
X162910000Y-90285714D01*
X163005238Y-90190476D01*
X163100476Y-90142857D01*
X163290952Y-90095238D01*
X163433809Y-90095238D01*
X163624285Y-90142857D01*
X163719523Y-90190476D01*
X163814761Y-90285714D01*
X163862380Y-90428571D01*
X163862380Y-90666666D01*
X101962380Y-97640952D02*
X100962380Y-97640952D01*
X101676666Y-97307619D01*
X100962380Y-96974285D01*
X101962380Y-96974285D01*
X101962380Y-96498095D02*
X101295714Y-96498095D01*
X100962380Y-96498095D02*
X101010000Y-96545714D01*
X101057619Y-96498095D01*
X101010000Y-96450476D01*
X100962380Y-96498095D01*
X101057619Y-96498095D01*
X101914761Y-95593333D02*
X101962380Y-95688571D01*
X101962380Y-95879047D01*
X101914761Y-95974285D01*
X101867142Y-96021904D01*
X101771904Y-96069523D01*
X101486190Y-96069523D01*
X101390952Y-96021904D01*
X101343333Y-95974285D01*
X101295714Y-95879047D01*
X101295714Y-95688571D01*
X101343333Y-95593333D01*
X101962380Y-95164761D02*
X101295714Y-95164761D01*
X101486190Y-95164761D02*
X101390952Y-95117142D01*
X101343333Y-95069523D01*
X101295714Y-94974285D01*
X101295714Y-94879047D01*
X101962380Y-94402857D02*
X101914761Y-94498095D01*
X101867142Y-94545714D01*
X101771904Y-94593333D01*
X101486190Y-94593333D01*
X101390952Y-94545714D01*
X101343333Y-94498095D01*
X101295714Y-94402857D01*
X101295714Y-94260000D01*
X101343333Y-94164761D01*
X101390952Y-94117142D01*
X101486190Y-94069523D01*
X101771904Y-94069523D01*
X101867142Y-94117142D01*
X101914761Y-94164761D01*
X101962380Y-94260000D01*
X101962380Y-94402857D01*
X101581428Y-93640952D02*
X101581428Y-92879047D01*
X100962380Y-92402857D02*
X101771904Y-92402857D01*
X101867142Y-92355238D01*
X101914761Y-92307619D01*
X101962380Y-92212380D01*
X101962380Y-92021904D01*
X101914761Y-91926666D01*
X101867142Y-91879047D01*
X101771904Y-91831428D01*
X100962380Y-91831428D01*
X101914761Y-91402857D02*
X101962380Y-91260000D01*
X101962380Y-91021904D01*
X101914761Y-90926666D01*
X101867142Y-90879047D01*
X101771904Y-90831428D01*
X101676666Y-90831428D01*
X101581428Y-90879047D01*
X101533809Y-90926666D01*
X101486190Y-91021904D01*
X101438571Y-91212380D01*
X101390952Y-91307619D01*
X101343333Y-91355238D01*
X101248095Y-91402857D01*
X101152857Y-91402857D01*
X101057619Y-91355238D01*
X101010000Y-91307619D01*
X100962380Y-91212380D01*
X100962380Y-90974285D01*
X101010000Y-90831428D01*
X101438571Y-90069523D02*
X101486190Y-89926666D01*
X101533809Y-89879047D01*
X101629047Y-89831428D01*
X101771904Y-89831428D01*
X101867142Y-89879047D01*
X101914761Y-89926666D01*
X101962380Y-90021904D01*
X101962380Y-90402857D01*
X100962380Y-90402857D01*
X100962380Y-90069523D01*
X101010000Y-89974285D01*
X101057619Y-89926666D01*
X101152857Y-89879047D01*
X101248095Y-89879047D01*
X101343333Y-89926666D01*
X101390952Y-89974285D01*
X101438571Y-90069523D01*
X101438571Y-90402857D01*
X141861904Y-107572380D02*
X141861904Y-106572380D01*
X142100000Y-106572380D01*
X142242857Y-106620000D01*
X142338095Y-106715238D01*
X142385714Y-106810476D01*
X142433333Y-107000952D01*
X142433333Y-107143809D01*
X142385714Y-107334285D01*
X142338095Y-107429523D01*
X142242857Y-107524761D01*
X142100000Y-107572380D01*
X141861904Y-107572380D01*
X142814285Y-106667619D02*
X142861904Y-106620000D01*
X142957142Y-106572380D01*
X143195238Y-106572380D01*
X143290476Y-106620000D01*
X143338095Y-106667619D01*
X143385714Y-106762857D01*
X143385714Y-106858095D01*
X143338095Y-107000952D01*
X142766666Y-107572380D01*
X143385714Y-107572380D01*
X191927142Y-109887142D02*
X191879523Y-109934761D01*
X191736666Y-109982380D01*
X191641428Y-109982380D01*
X191498571Y-109934761D01*
X191403333Y-109839523D01*
X191355714Y-109744285D01*
X191308095Y-109553809D01*
X191308095Y-109410952D01*
X191355714Y-109220476D01*
X191403333Y-109125238D01*
X191498571Y-109030000D01*
X191641428Y-108982380D01*
X191736666Y-108982380D01*
X191879523Y-109030000D01*
X191927142Y-109077619D01*
X192879523Y-109982380D02*
X192308095Y-109982380D01*
X192593809Y-109982380D02*
X192593809Y-108982380D01*
X192498571Y-109125238D01*
X192403333Y-109220476D01*
X192308095Y-109268095D01*
X193498571Y-108982380D02*
X193593809Y-108982380D01*
X193689047Y-109030000D01*
X193736666Y-109077619D01*
X193784285Y-109172857D01*
X193831904Y-109363333D01*
X193831904Y-109601428D01*
X193784285Y-109791904D01*
X193736666Y-109887142D01*
X193689047Y-109934761D01*
X193593809Y-109982380D01*
X193498571Y-109982380D01*
X193403333Y-109934761D01*
X193355714Y-109887142D01*
X193308095Y-109791904D01*
X193260476Y-109601428D01*
X193260476Y-109363333D01*
X193308095Y-109172857D01*
X193355714Y-109077619D01*
X193403333Y-109030000D01*
X193498571Y-108982380D01*
X175243333Y-99727142D02*
X175195714Y-99774761D01*
X175052857Y-99822380D01*
X174957619Y-99822380D01*
X174814761Y-99774761D01*
X174719523Y-99679523D01*
X174671904Y-99584285D01*
X174624285Y-99393809D01*
X174624285Y-99250952D01*
X174671904Y-99060476D01*
X174719523Y-98965238D01*
X174814761Y-98870000D01*
X174957619Y-98822380D01*
X175052857Y-98822380D01*
X175195714Y-98870000D01*
X175243333Y-98917619D01*
X175814761Y-99250952D02*
X175719523Y-99203333D01*
X175671904Y-99155714D01*
X175624285Y-99060476D01*
X175624285Y-99012857D01*
X175671904Y-98917619D01*
X175719523Y-98870000D01*
X175814761Y-98822380D01*
X176005238Y-98822380D01*
X176100476Y-98870000D01*
X176148095Y-98917619D01*
X176195714Y-99012857D01*
X176195714Y-99060476D01*
X176148095Y-99155714D01*
X176100476Y-99203333D01*
X176005238Y-99250952D01*
X175814761Y-99250952D01*
X175719523Y-99298571D01*
X175671904Y-99346190D01*
X175624285Y-99441428D01*
X175624285Y-99631904D01*
X175671904Y-99727142D01*
X175719523Y-99774761D01*
X175814761Y-99822380D01*
X176005238Y-99822380D01*
X176100476Y-99774761D01*
X176148095Y-99727142D01*
X176195714Y-99631904D01*
X176195714Y-99441428D01*
X176148095Y-99346190D01*
X176100476Y-99298571D01*
X176005238Y-99250952D01*
X147699523Y-82632380D02*
X147366190Y-82156190D01*
X147128095Y-82632380D02*
X147128095Y-81632380D01*
X147509047Y-81632380D01*
X147604285Y-81680000D01*
X147651904Y-81727619D01*
X147699523Y-81822857D01*
X147699523Y-81965714D01*
X147651904Y-82060952D01*
X147604285Y-82108571D01*
X147509047Y-82156190D01*
X147128095Y-82156190D01*
X148128095Y-82632380D02*
X148128095Y-81632380D01*
X148699523Y-82632380D01*
X148699523Y-81632380D01*
X149699523Y-82632380D02*
X149128095Y-82632380D01*
X149413809Y-82632380D02*
X149413809Y-81632380D01*
X149318571Y-81775238D01*
X149223333Y-81870476D01*
X149128095Y-81918095D01*
X121749047Y-114071428D02*
X122510952Y-114071428D01*
X122130000Y-114452380D02*
X122130000Y-113690476D01*
X115749047Y-114071428D02*
X116510952Y-114071428D01*
X167589523Y-126724761D02*
X167494285Y-126772380D01*
X167303809Y-126772380D01*
X167208571Y-126724761D01*
X167160952Y-126677142D01*
X167113333Y-126581904D01*
X167113333Y-126296190D01*
X167160952Y-126200952D01*
X167208571Y-126153333D01*
X167303809Y-126105714D01*
X167494285Y-126105714D01*
X167589523Y-126153333D01*
X168446666Y-126724761D02*
X168351428Y-126772380D01*
X168160952Y-126772380D01*
X168065714Y-126724761D01*
X168018095Y-126677142D01*
X167970476Y-126581904D01*
X167970476Y-126296190D01*
X168018095Y-126200952D01*
X168065714Y-126153333D01*
X168160952Y-126105714D01*
X168351428Y-126105714D01*
X168446666Y-126153333D01*
X101616666Y-83542380D02*
X101616666Y-84256666D01*
X101569047Y-84399523D01*
X101473809Y-84494761D01*
X101330952Y-84542380D01*
X101235714Y-84542380D01*
X102521428Y-83875714D02*
X102521428Y-84542380D01*
X102283333Y-83494761D02*
X102045238Y-84209047D01*
X102664285Y-84209047D01*
X193526666Y-138192380D02*
X193526666Y-138906666D01*
X193479047Y-139049523D01*
X193383809Y-139144761D01*
X193240952Y-139192380D01*
X193145714Y-139192380D01*
X194145714Y-138620952D02*
X194050476Y-138573333D01*
X194002857Y-138525714D01*
X193955238Y-138430476D01*
X193955238Y-138382857D01*
X194002857Y-138287619D01*
X194050476Y-138240000D01*
X194145714Y-138192380D01*
X194336190Y-138192380D01*
X194431428Y-138240000D01*
X194479047Y-138287619D01*
X194526666Y-138382857D01*
X194526666Y-138430476D01*
X194479047Y-138525714D01*
X194431428Y-138573333D01*
X194336190Y-138620952D01*
X194145714Y-138620952D01*
X194050476Y-138668571D01*
X194002857Y-138716190D01*
X193955238Y-138811428D01*
X193955238Y-139001904D01*
X194002857Y-139097142D01*
X194050476Y-139144761D01*
X194145714Y-139192380D01*
X194336190Y-139192380D01*
X194431428Y-139144761D01*
X194479047Y-139097142D01*
X194526666Y-139001904D01*
X194526666Y-138811428D01*
X194479047Y-138716190D01*
X194431428Y-138668571D01*
X194336190Y-138620952D01*
X177662801Y-138193380D02*
X177662801Y-138431476D01*
X177424705Y-138336238D02*
X177662801Y-138431476D01*
X177900896Y-138336238D01*
X177519943Y-138621952D02*
X177662801Y-138431476D01*
X177805658Y-138621952D01*
X125256666Y-138252380D02*
X125256666Y-138966666D01*
X125209047Y-139109523D01*
X125113809Y-139204761D01*
X124970952Y-139252380D01*
X124875714Y-139252380D01*
X126161428Y-138252380D02*
X125970952Y-138252380D01*
X125875714Y-138300000D01*
X125828095Y-138347619D01*
X125732857Y-138490476D01*
X125685238Y-138680952D01*
X125685238Y-139061904D01*
X125732857Y-139157142D01*
X125780476Y-139204761D01*
X125875714Y-139252380D01*
X126066190Y-139252380D01*
X126161428Y-139204761D01*
X126209047Y-139157142D01*
X126256666Y-139061904D01*
X126256666Y-138823809D01*
X126209047Y-138728571D01*
X126161428Y-138680952D01*
X126066190Y-138633333D01*
X125875714Y-138633333D01*
X125780476Y-138680952D01*
X125732857Y-138728571D01*
X125685238Y-138823809D01*
X109400000Y-138193380D02*
X109400000Y-138431476D01*
X109161904Y-138336238D02*
X109400000Y-138431476D01*
X109638095Y-138336238D01*
X109257142Y-138621952D02*
X109400000Y-138431476D01*
X109542857Y-138621952D01*
X198276666Y-95292380D02*
X198276666Y-96006666D01*
X198229047Y-96149523D01*
X198133809Y-96244761D01*
X197990952Y-96292380D01*
X197895714Y-96292380D01*
X198800476Y-96292380D02*
X198990952Y-96292380D01*
X199086190Y-96244761D01*
X199133809Y-96197142D01*
X199229047Y-96054285D01*
X199276666Y-95863809D01*
X199276666Y-95482857D01*
X199229047Y-95387619D01*
X199181428Y-95340000D01*
X199086190Y-95292380D01*
X198895714Y-95292380D01*
X198800476Y-95340000D01*
X198752857Y-95387619D01*
X198705238Y-95482857D01*
X198705238Y-95720952D01*
X198752857Y-95816190D01*
X198800476Y-95863809D01*
X198895714Y-95911428D01*
X199086190Y-95911428D01*
X199181428Y-95863809D01*
X199229047Y-95816190D01*
X199276666Y-95720952D01*
X197212380Y-99202700D02*
X197450476Y-99202700D01*
X197355238Y-99440795D02*
X197450476Y-99202700D01*
X197355238Y-98964604D01*
X197640952Y-99345557D02*
X197450476Y-99202700D01*
X197640952Y-99059842D01*
X101746666Y-99022380D02*
X101746666Y-99736666D01*
X101699047Y-99879523D01*
X101603809Y-99974761D01*
X101460952Y-100022380D01*
X101365714Y-100022380D01*
X102699047Y-99022380D02*
X102222857Y-99022380D01*
X102175238Y-99498571D01*
X102222857Y-99450952D01*
X102318095Y-99403333D01*
X102556190Y-99403333D01*
X102651428Y-99450952D01*
X102699047Y-99498571D01*
X102746666Y-99593809D01*
X102746666Y-99831904D01*
X102699047Y-99927142D01*
X102651428Y-99974761D01*
X102556190Y-100022380D01*
X102318095Y-100022380D01*
X102222857Y-99974761D01*
X102175238Y-99927142D01*
X136786666Y-72392380D02*
X136786666Y-73106666D01*
X136739047Y-73249523D01*
X136643809Y-73344761D01*
X136500952Y-73392380D01*
X136405714Y-73392380D01*
X137215238Y-72487619D02*
X137262857Y-72440000D01*
X137358095Y-72392380D01*
X137596190Y-72392380D01*
X137691428Y-72440000D01*
X137739047Y-72487619D01*
X137786666Y-72582857D01*
X137786666Y-72678095D01*
X137739047Y-72820952D01*
X137167619Y-73392380D01*
X137786666Y-73392380D01*
X161076666Y-72242380D02*
X161076666Y-72956666D01*
X161029047Y-73099523D01*
X160933809Y-73194761D01*
X160790952Y-73242380D01*
X160695714Y-73242380D01*
X161457619Y-72242380D02*
X162076666Y-72242380D01*
X161743333Y-72623333D01*
X161886190Y-72623333D01*
X161981428Y-72670952D01*
X162029047Y-72718571D01*
X162076666Y-72813809D01*
X162076666Y-73051904D01*
X162029047Y-73147142D01*
X161981428Y-73194761D01*
X161886190Y-73242380D01*
X161600476Y-73242380D01*
X161505238Y-73194761D01*
X161457619Y-73147142D01*
X107916666Y-106402380D02*
X107916666Y-107116666D01*
X107869047Y-107259523D01*
X107773809Y-107354761D01*
X107630952Y-107402380D01*
X107535714Y-107402380D01*
X108916666Y-107402380D02*
X108345238Y-107402380D01*
X108630952Y-107402380D02*
X108630952Y-106402380D01*
X108535714Y-106545238D01*
X108440476Y-106640476D01*
X108345238Y-106688095D01*
X187268095Y-82052380D02*
X187268095Y-81052380D01*
X187268095Y-81528571D02*
X187839523Y-81528571D01*
X187839523Y-82052380D02*
X187839523Y-81052380D01*
X188268095Y-81147619D02*
X188315714Y-81100000D01*
X188410952Y-81052380D01*
X188649047Y-81052380D01*
X188744285Y-81100000D01*
X188791904Y-81147619D01*
X188839523Y-81242857D01*
X188839523Y-81338095D01*
X188791904Y-81480952D01*
X188220476Y-82052380D01*
X188839523Y-82052380D01*
X111108095Y-82152380D02*
X111108095Y-81152380D01*
X111108095Y-81628571D02*
X111679523Y-81628571D01*
X111679523Y-82152380D02*
X111679523Y-81152380D01*
X112679523Y-82152380D02*
X112108095Y-82152380D01*
X112393809Y-82152380D02*
X112393809Y-81152380D01*
X112298571Y-81295238D01*
X112203333Y-81390476D01*
X112108095Y-81438095D01*
X187228095Y-122012380D02*
X187228095Y-121012380D01*
X187228095Y-121488571D02*
X187799523Y-121488571D01*
X187799523Y-122012380D02*
X187799523Y-121012380D01*
X188704285Y-121345714D02*
X188704285Y-122012380D01*
X188466190Y-120964761D02*
X188228095Y-121679047D01*
X188847142Y-121679047D01*
X111218095Y-122062380D02*
X111218095Y-121062380D01*
X111218095Y-121538571D02*
X111789523Y-121538571D01*
X111789523Y-122062380D02*
X111789523Y-121062380D01*
X112170476Y-121062380D02*
X112789523Y-121062380D01*
X112456190Y-121443333D01*
X112599047Y-121443333D01*
X112694285Y-121490952D01*
X112741904Y-121538571D01*
X112789523Y-121633809D01*
X112789523Y-121871904D01*
X112741904Y-121967142D01*
X112694285Y-122014761D01*
X112599047Y-122062380D01*
X112313333Y-122062380D01*
X112218095Y-122014761D01*
X112170476Y-121967142D01*
X146701904Y-91512380D02*
X146701904Y-90512380D01*
X146940000Y-90512380D01*
X147082857Y-90560000D01*
X147178095Y-90655238D01*
X147225714Y-90750476D01*
X147273333Y-90940952D01*
X147273333Y-91083809D01*
X147225714Y-91274285D01*
X147178095Y-91369523D01*
X147082857Y-91464761D01*
X146940000Y-91512380D01*
X146701904Y-91512380D01*
X148225714Y-91512380D02*
X147654285Y-91512380D01*
X147940000Y-91512380D02*
X147940000Y-90512380D01*
X147844761Y-90655238D01*
X147749523Y-90750476D01*
X147654285Y-90798095D01*
X142990000Y-90052380D02*
X142990000Y-90290476D01*
X142751904Y-90195238D02*
X142990000Y-90290476D01*
X143228095Y-90195238D01*
X142847142Y-90480952D02*
X142990000Y-90290476D01*
X143132857Y-90480952D01*
X135505833Y-127047142D02*
X135458214Y-127094761D01*
X135315357Y-127142380D01*
X135220119Y-127142380D01*
X135077261Y-127094761D01*
X134982023Y-126999523D01*
X134934404Y-126904285D01*
X134886785Y-126713809D01*
X134886785Y-126570952D01*
X134934404Y-126380476D01*
X134982023Y-126285238D01*
X135077261Y-126190000D01*
X135220119Y-126142380D01*
X135315357Y-126142380D01*
X135458214Y-126190000D01*
X135505833Y-126237619D01*
X135839166Y-126142380D02*
X136505833Y-126142380D01*
X136077261Y-127142380D01*
X138505833Y-127057142D02*
X138458214Y-127104761D01*
X138315357Y-127152380D01*
X138220119Y-127152380D01*
X138077261Y-127104761D01*
X137982023Y-127009523D01*
X137934404Y-126914285D01*
X137886785Y-126723809D01*
X137886785Y-126580952D01*
X137934404Y-126390476D01*
X137982023Y-126295238D01*
X138077261Y-126200000D01*
X138220119Y-126152380D01*
X138315357Y-126152380D01*
X138458214Y-126200000D01*
X138505833Y-126247619D01*
X139362976Y-126152380D02*
X139172500Y-126152380D01*
X139077261Y-126200000D01*
X139029642Y-126247619D01*
X138934404Y-126390476D01*
X138886785Y-126580952D01*
X138886785Y-126961904D01*
X138934404Y-127057142D01*
X138982023Y-127104761D01*
X139077261Y-127152380D01*
X139267738Y-127152380D01*
X139362976Y-127104761D01*
X139410595Y-127057142D01*
X139458214Y-126961904D01*
X139458214Y-126723809D01*
X139410595Y-126628571D01*
X139362976Y-126580952D01*
X139267738Y-126533333D01*
X139077261Y-126533333D01*
X138982023Y-126580952D01*
X138934404Y-126628571D01*
X138886785Y-126723809D01*
X142333333Y-123067142D02*
X142285714Y-123114761D01*
X142142857Y-123162380D01*
X142047619Y-123162380D01*
X141904761Y-123114761D01*
X141809523Y-123019523D01*
X141761904Y-122924285D01*
X141714285Y-122733809D01*
X141714285Y-122590952D01*
X141761904Y-122400476D01*
X141809523Y-122305238D01*
X141904761Y-122210000D01*
X142047619Y-122162380D01*
X142142857Y-122162380D01*
X142285714Y-122210000D01*
X142333333Y-122257619D01*
X143238095Y-122162380D02*
X142761904Y-122162380D01*
X142714285Y-122638571D01*
X142761904Y-122590952D01*
X142857142Y-122543333D01*
X143095238Y-122543333D01*
X143190476Y-122590952D01*
X143238095Y-122638571D01*
X143285714Y-122733809D01*
X143285714Y-122971904D01*
X143238095Y-123067142D01*
X143190476Y-123114761D01*
X143095238Y-123162380D01*
X142857142Y-123162380D01*
X142761904Y-123114761D01*
X142714285Y-123067142D01*
X142453333Y-120127142D02*
X142405714Y-120174761D01*
X142262857Y-120222380D01*
X142167619Y-120222380D01*
X142024761Y-120174761D01*
X141929523Y-120079523D01*
X141881904Y-119984285D01*
X141834285Y-119793809D01*
X141834285Y-119650952D01*
X141881904Y-119460476D01*
X141929523Y-119365238D01*
X142024761Y-119270000D01*
X142167619Y-119222380D01*
X142262857Y-119222380D01*
X142405714Y-119270000D01*
X142453333Y-119317619D01*
X143310476Y-119555714D02*
X143310476Y-120222380D01*
X143072380Y-119174761D02*
X142834285Y-119889047D01*
X143453333Y-119889047D01*
X142293333Y-116527142D02*
X142245714Y-116574761D01*
X142102857Y-116622380D01*
X142007619Y-116622380D01*
X141864761Y-116574761D01*
X141769523Y-116479523D01*
X141721904Y-116384285D01*
X141674285Y-116193809D01*
X141674285Y-116050952D01*
X141721904Y-115860476D01*
X141769523Y-115765238D01*
X141864761Y-115670000D01*
X142007619Y-115622380D01*
X142102857Y-115622380D01*
X142245714Y-115670000D01*
X142293333Y-115717619D01*
X142626666Y-115622380D02*
X143245714Y-115622380D01*
X142912380Y-116003333D01*
X143055238Y-116003333D01*
X143150476Y-116050952D01*
X143198095Y-116098571D01*
X143245714Y-116193809D01*
X143245714Y-116431904D01*
X143198095Y-116527142D01*
X143150476Y-116574761D01*
X143055238Y-116622380D01*
X142769523Y-116622380D01*
X142674285Y-116574761D01*
X142626666Y-116527142D01*
X134313333Y-116537142D02*
X134265714Y-116584761D01*
X134122857Y-116632380D01*
X134027619Y-116632380D01*
X133884761Y-116584761D01*
X133789523Y-116489523D01*
X133741904Y-116394285D01*
X133694285Y-116203809D01*
X133694285Y-116060952D01*
X133741904Y-115870476D01*
X133789523Y-115775238D01*
X133884761Y-115680000D01*
X134027619Y-115632380D01*
X134122857Y-115632380D01*
X134265714Y-115680000D01*
X134313333Y-115727619D01*
X134694285Y-115727619D02*
X134741904Y-115680000D01*
X134837142Y-115632380D01*
X135075238Y-115632380D01*
X135170476Y-115680000D01*
X135218095Y-115727619D01*
X135265714Y-115822857D01*
X135265714Y-115918095D01*
X135218095Y-116060952D01*
X134646666Y-116632380D01*
X135265714Y-116632380D01*
X139653333Y-114487142D02*
X139605714Y-114534761D01*
X139462857Y-114582380D01*
X139367619Y-114582380D01*
X139224761Y-114534761D01*
X139129523Y-114439523D01*
X139081904Y-114344285D01*
X139034285Y-114153809D01*
X139034285Y-114010952D01*
X139081904Y-113820476D01*
X139129523Y-113725238D01*
X139224761Y-113630000D01*
X139367619Y-113582380D01*
X139462857Y-113582380D01*
X139605714Y-113630000D01*
X139653333Y-113677619D01*
X140605714Y-114582380D02*
X140034285Y-114582380D01*
X140320000Y-114582380D02*
X140320000Y-113582380D01*
X140224761Y-113725238D01*
X140129523Y-113820476D01*
X140034285Y-113868095D01*
X179919047Y-91188571D02*
X180061904Y-91236190D01*
X180109523Y-91283809D01*
X180157142Y-91379047D01*
X180157142Y-91521904D01*
X180109523Y-91617142D01*
X180061904Y-91664761D01*
X179966666Y-91712380D01*
X179585714Y-91712380D01*
X179585714Y-90712380D01*
X179919047Y-90712380D01*
X180014285Y-90760000D01*
X180061904Y-90807619D01*
X180109523Y-90902857D01*
X180109523Y-90998095D01*
X180061904Y-91093333D01*
X180014285Y-91140952D01*
X179919047Y-91188571D01*
X179585714Y-91188571D01*
X180490476Y-90712380D02*
X181157142Y-90712380D01*
X180490476Y-91712380D01*
X181157142Y-91712380D01*
X182061904Y-91712380D02*
X181490476Y-91712380D01*
X181776190Y-91712380D02*
X181776190Y-90712380D01*
X181680952Y-90855238D01*
X181585714Y-90950476D01*
X181490476Y-90998095D01*
M02*
