M48
INCH,TZ
T1C0.0157
T2C0.1200
T3C0.1201
T4C0.2598
%
G90
G05
T1
X40079Y-31972
X40390Y-50646
X40480Y-28846
X40575Y-46480
X40854Y-37965
X41390Y-47291
X41398Y-45689
X41404Y-34907
X41587Y-39917
X41894Y-39268
X42213Y-46492
X42346Y-36768
X42909Y-39823
X43051Y-46492
X43429Y-40461
X43839Y-45685
X43850Y-47327
X44161Y-53106
X44272Y-38169
X44520Y-39831
X44606Y-36358
X44638Y-46496
X45157Y-53067
X45593Y-51825
X45850Y-40445
X46307Y-53130
X46335Y-41319
X46435Y-52474
X46563Y-43909
X46594Y-28449
X46630Y-37378
X46850Y-39031
X46929Y-39839
X47425Y-40465
X47453Y-48878
X47516Y-41452
X48199Y-51825
X48256Y-31020
X48268Y-53205
X48472Y-38673
X48492Y-41602
X48729Y-42665
X49175Y-44339
X49181Y-36244
X49219Y-46568
X49327Y-40472
X49484Y-41740
X49685Y-53177
X49697Y-52409
X49732Y-42870
X49744Y-45201
X49835Y-40053
X49961Y-29461
X49972Y-27811
X49976Y-41272
X50079Y-48756
X50079Y-51039
X50169Y-46701
X50339Y-44638
X50343Y-42591
X50547Y-41311
X50689Y-50614
X50744Y-46421
X50795Y-39024
X50909Y-52287
X50913Y-51193
X50940Y-42493
X50941Y-44087
X51003Y-47537
X51098Y-49618
X51101Y-45919
X51136Y-50053
X51138Y-50646
X51272Y-38260
X51272Y-38260
X51321Y-41053
X51480Y-36646
X51512Y-42362
X51531Y-45000
X51756Y-50689
X51772Y-51173
X51848Y-45841
X51850Y-34650
X51885Y-47537
X51913Y-40642
X51961Y-50091
X52213Y-39476
X52228Y-50709
X52283Y-42014
X52297Y-43520
X52297Y-45213
X52425Y-51610
X52429Y-50091
X52465Y-47024
X52474Y-52608
X52661Y-50715
X52677Y-27827
X52677Y-29508
X52819Y-31925
X52868Y-41945
X52953Y-43591
X52953Y-45421
X53030Y-47541
X53122Y-32587
X53350Y-34626
X53364Y-50537
X53398Y-51657
X53484Y-47996
X53512Y-52307
X53528Y-43839
X53531Y-44906
X53583Y-27803
X53650Y-36402
X53740Y-47205
X53772Y-29433
X53902Y-38843
X53913Y-43102
X54014Y-50376
X54130Y-30697
X54290Y-47810
X54382Y-33835
X54402Y-41850
X54417Y-35787
X54535Y-39528
X54663Y-50358
X54921Y-47559
X54929Y-52957
X54961Y-41287
X55075Y-51008
X55256Y-46358
X55346Y-43067
X55362Y-30220
X55402Y-52484
X55441Y-49173
X55453Y-51657
X55488Y-34681
X55732Y-38417
X55933Y-46492
X56055Y-27827
X56146Y-49461
X56146Y-30921
X56189Y-35760
X56197Y-48528
X56264Y-50358
X56268Y-36453
X56339Y-47390
X56555Y-39185
X56913Y-33571
X56976Y-52539
X57008Y-35209
X57055Y-31969
X57406Y-53189
X57438Y-38503
X57480Y-30110
X57496Y-44268
X57567Y-40366
X57579Y-49472
X57654Y-31189
X57740Y-37126
X57752Y-32453
X57760Y-35244
X57886Y-33610
X58122Y-51890
X58154Y-41701
X58182Y-51031
X58220Y-38579
X58314Y-46369
X58428Y-50358
X58500Y-53209
X58504Y-32382
X58606Y-29346
X58697Y-31220
X58748Y-40000
X58828Y-46773
X58892Y-48159
X58909Y-29937
X59161Y-48808
X59461Y-53228
X59476Y-38205
X59559Y-52296
X59583Y-34327
X59587Y-37205
X59716Y-51646
X59823Y-31197
X60091Y-38567
X60240Y-36197
X60413Y-33217
X60571Y-41346
X60610Y-29945
X60632Y-44081
X60871Y-44730
X60894Y-29323
X61039Y-53256
X61386Y-38563
X61461Y-41063
X61598Y-27835
X61610Y-29421
X61622Y-30945
X61886Y-30287
X62071Y-42657
X62149Y-51646
X62630Y-52296
X62953Y-35685
X63169Y-53091
X63276Y-30295
X63555Y-36382
X63555Y-40949
X63587Y-30917
X63920Y-48808
X64043Y-29524
X64059Y-27831
X64255Y-48159
X64463Y-44730
X64774Y-44081
X64783Y-52945
X64941Y-27803
X64941Y-29504
X64941Y-33843
X65374Y-51646
X65433Y-39106
X66362Y-52296
X66402Y-32031
X66748Y-40461
X66913Y-52945
X67075Y-43059
X67512Y-29480
X67591Y-27827
X68167Y-44081
X68234Y-44730
X68326Y-51646
X68382Y-35512
X68402Y-36362
X68449Y-53264
X68988Y-41039
X69063Y-37098
X69083Y-34709
X69724Y-53260
X69773Y-48159
X69873Y-48808
X69925Y-52296
X70043Y-42204
X70172Y-42995
X70476Y-29484
X71051Y-53220
X71314Y-51646
X71598Y-40618
X71598Y-41477
X71598Y-42390
X71598Y-46213
X71929Y-53185
X72106Y-35634
X72248Y-42430
X72248Y-46564
X72370Y-40634
X72886Y-53220
X73335Y-42591
X74039Y-43280
X74192Y-40359
X74457Y-44035
X74496Y-53220
X74504Y-40020
X74587Y-40843
X74827Y-40362
X74835Y-42150
X75024Y-33220
X75272Y-43252
X75744Y-38953
X76031Y-37539
X76205Y-39413
X76276Y-40362
X76303Y-42961
X76616Y-39825
X76771Y-40359
X76772Y-40894
X77413Y-31610
X77602Y-49508
X78291Y-44035
X78374Y-39067
T2
X77638Y-36631
X77638Y-46471
T3
X54130Y-54028
X63973Y-54028
X67568Y-54028
X77411Y-54028
X40693Y-54028
X50535Y-54028
T4
X44000Y-50000
X74000Y-50000
X44000Y-30000
X74000Y-30000
T0
M30
